<svg width="180" height="366" viewBox="0 0 180 366" fill="none" xmlns="http://www.w3.org/2000/svg">
<g clip-path="url(#clip0)">
<path d="M134.199 366C159.494 366 179.999 361.03 179.999 354.9C179.999 348.77 159.494 343.8 134.199 343.8C108.905 343.8 88.3994 348.77 88.3994 354.9C88.3994 361.03 108.905 366 134.199 366Z" fill="#157E89"/>
<path d="M21.7002 100.3C21.7002 100.3 97.5002 93.5999 109.6 99.9999C121.6 106.4 129.4 133.4 121.3 137.4C113.2 141.3 31.6002 139.9 31.6002 139.9L21.7002 100.3Z" fill="#9FC43A"/>
<path d="M31.8005 139C30.8005 139 29.2005 138.4 26.7005 135.4C25.9005 133.6 15.6005 109.6 20.2005 102.6C21.0005 101.4 22.2005 100.8 23.8005 100.8C24.1005 100.8 24.4005 100.8 24.8005 100.9C32.8005 101.9 36.8005 118 36.2005 129.2C35.8005 135.2 34.1005 139 31.8005 139Z" fill="#9FC43A"/>
<path d="M23.8001 99.8999V101.5C24.1001 101.5 24.4001 101.5 24.7001 101.6C32.1001 102.5 36.0001 118.4 35.3001 129C34.9001 135.3 33.2001 138.2 31.8001 138.2C31.3001 138.2 29.8001 137.9 27.4001 135C26.9001 133.9 24.4001 128 22.4001 121.4C18.7001 109.1 19.8001 104.6 20.9001 103C21.3001 102.4 22.0001 101.6 23.9001 101.6L23.8001 99.8999ZM23.8001 99.8999C10.0001 99.8999 26.0001 135.8 26.0001 135.8C28.3001 138.6 30.2001 139.8 31.8001 139.8C40.7001 139.8 38.2001 101.6 24.9001 99.9999C24.5001 99.8999 24.2001 99.8999 23.8001 99.8999Z" fill="#718721"/>
<path d="M30.0005 134.6C29.9005 134.6 29.9005 134.6 29.9005 134.6C26.4005 134.2 22.5005 113.5 22.4005 113.3C21.7005 109.5 22.1005 107.1 23.6005 106.1C25.4005 104.9 27.8005 106.4 28.1005 106.6L27.2005 108L27.6005 107.3L27.2005 108C26.7005 107.7 25.3005 107 24.5005 107.5C24.1005 107.8 23.3005 108.8 24.0005 113C25.6005 122.1 28.5005 131 29.9005 132.7C31.3005 129 30.8005 115.1 29.2005 113.4C28.0005 112.2 27.5005 112.3 27.5005 112.3C27.5005 112.3 27.0005 112.6 27.0005 114.7H25.4005C25.4005 113.3 25.6005 111.3 26.9005 110.8C28.3005 110.2 29.9005 111.8 30.4005 112.3C32.9005 114.8 32.9005 130.2 31.4005 133.6C31.0005 134.5 30.4005 134.6 30.0005 134.6Z" fill="#718721"/>
<path d="M41.1006 106.5C41.1006 106.5 85.6006 100.7 99.0006 104.6C112.401 108.5 41.1006 106.5 41.1006 106.5Z" fill="#718721"/>
<path d="M51.2002 116.5C51.2002 116.5 95.7002 110.7 109.1 114.6C122.4 118.5 51.2002 116.5 51.2002 116.5Z" fill="#718721"/>
<path d="M51.2002 130.4C51.2002 130.4 95.7002 124.6 109.1 128.5C122.4 132.4 51.2002 130.4 51.2002 130.4Z" fill="#718721"/>
<path d="M27.1992 40.5001C27.1992 40.5001 79.5992 36.2001 87.8992 40.3001C96.1992 44.4001 101.599 61.5001 95.9992 64.0001C90.3992 66.5001 33.9992 65.6001 33.9992 65.6001L27.1992 40.5001Z" fill="#9FC43A"/>
<path d="M34.1997 65C33.4997 65 32.3997 64.6 30.6997 62.7001C30.1997 61.6 22.9997 46.4001 26.1997 41.9001C26.6997 41.1001 27.5997 40.8 28.6997 40.8C28.8997 40.8 29.0997 40.8 29.3997 40.8C34.8997 41.4 37.6997 51.6 37.2997 58.7001C36.8997 62.6 35.7997 65 34.1997 65Z" fill="#9FC43A"/>
<path d="M28.6996 40.3V41.3C28.8996 41.3 29.0996 41.3 29.2996 41.3C34.3996 41.9 37.0996 52.0001 36.6996 58.7001C36.3996 62.7001 35.2996 64.5 34.2996 64.5C33.8996 64.5 32.8996 64.3001 31.2996 62.4001C30.9996 61.7001 29.1996 57.9 27.7996 53.8C25.1996 46 25.9996 43.2001 26.6996 42.2001C26.9996 41.8001 27.4996 41.3 28.6996 41.3V40.3ZM28.6996 40.3C19.1996 40.3 30.1996 63 30.1996 63C31.7996 64.8 33.0996 65.5 34.1996 65.5C40.3996 65.5 38.5996 41.3 29.3996 40.3C29.1996 40.3 28.8996 40.3 28.6996 40.3Z" fill="#718721"/>
<path d="M32.9994 62.2C32.8994 62.2 32.8994 62.2 32.9994 62.2C30.4994 61.9 27.7994 48.8 27.6994 48.7C27.1994 46.3 27.4994 44.8 28.4994 44.2C29.6994 43.4 31.3994 44.4 31.5994 44.5L30.9994 45.4L31.2994 45L30.9994 45.4C30.6994 45.2 29.6994 44.8 29.0994 45.1C28.7994 45.3 28.2994 45.9 28.7994 48.6C29.8994 54.4 31.8994 60 32.8994 61.1C33.8994 58.8 33.4994 49.9 32.3994 48.9C31.5994 48.1 31.1994 48.2 31.1994 48.2C31.1994 48.2 30.8994 48.4 30.8994 49.7H29.7994C29.7994 48.8 29.8994 47.6 30.7994 47.2C31.7994 46.8 32.7994 47.8 33.1994 48.1C34.9994 49.7 34.8994 59.4 33.8994 61.6C33.5994 62.2 33.1994 62.2 32.9994 62.2Z" fill="#718721"/>
<path d="M40.5996 44.5001C40.5996 44.5001 71.3996 40.8001 80.5996 43.3001C89.7996 45.8001 40.5996 44.5001 40.5996 44.5001Z" fill="#718721"/>
<path d="M47.5996 50.8002C47.5996 50.8002 78.3996 47.1002 87.5996 49.6002C96.7996 52.1002 47.5996 50.8002 47.5996 50.8002Z" fill="#718721"/>
<path d="M47.5996 59.6002C47.5996 59.6002 78.3996 55.9002 87.5996 58.4002C96.7996 60.9002 47.5996 59.6002 47.5996 59.6002Z" fill="#718721"/>
<path d="M106.3 143.3C105.2 144.8 99.8002 132.8 99.8002 132.8L95.6002 134.9C95.6002 134.9 94.8002 138.9 93.6002 138.5C92.4002 138.1 89.2002 141.6 89.2002 141.6C89.2002 141.6 89.6002 141.6 90.2002 143.3C90.8002 145 96.5002 145.8 97.4002 145.8C98.3002 145.8 100.7 145.8 100.7 145.8C100.7 145.8 91.6002 152.8 103.8 164.1C116 175.4 123.4 197.8 136.4 180C149.4 162.2 154.7 153.3 142.7 147.7C130.8 142.2 114.8 131.7 106.3 143.3Z" fill="#003C71"/>
<path d="M135 170.5L108.4 150.9C108.5 150.9 132.8 159.5 135 170.5Z" fill="#0E5E99"/>
<path d="M144.501 159L113.601 147.4C113.601 147.4 139.401 149.1 144.501 159Z" fill="#0E5E99"/>
<path d="M53.5995 9.2C51.7995 9.3 57.2995 1.4 57.2995 1.4L52.8995 0.2C52.8995 0.2 49.3995 1.5 48.8995 0.8C48.3995 0.1 43.6995 0 43.6995 0C43.6995 0 43.9995 0.2 43.0995 1.2C42.1995 2.2 45.2995 5.4 45.8995 5.9C46.4995 6.4 48.0995 7.6 48.0995 7.6C48.0995 7.6 36.8995 6.1 36.2995 17C35.6995 28 23.4995 41.3 45.4995 40.2C67.4995 39.1 77.6995 37.8 74.0995 29.4C70.4995 21 67.9995 8.5 53.5995 9.2Z" fill="#003C71"/>
<path d="M51.7998 35.3999L49.2998 13.6999C49.2998 13.5999 58.5998 29.4999 51.7998 35.3999Z" fill="#0E5E99"/>
<path d="M39.3994 35.4001L45.1994 14.3C45.1994 14.4 47.8994 32.6001 39.3994 35.4001Z" fill="#0E5E99"/>
<path d="M66.6998 35.0999L55.2998 14.7C55.2998 14.7 70.8998 28.2999 66.6998 35.0999Z" fill="#0E5E99"/>
<path d="M33.9996 174.7C33.9996 174.7 12.6996 158.9 17.0996 150.1C21.4996 141.3 30.8996 125.4 41.2996 128.3C51.6996 131.2 113.1 154.7 140.1 179.8C145.2 184.6 130.4 227.3 113.7 221.6C96.9996 215.9 41.1996 180.9 33.9996 174.7Z" fill="#F79321"/>
<path d="M23.7998 138.6C23.7998 138.6 87.7998 184.3 137.4 199.5L135.4 203.6C135.4 203.6 39.5998 161.4 22.2998 140.8L23.7998 138.6Z" fill="#A55F19"/>
<path d="M126.7 216.6C126.7 216.6 37.1 182.5 26.5 162.4C32.7 166.7 72.9 193.5 127.5 215.7C126.7 216.6 126.7 216.6 126.7 216.6Z" fill="#F9D0AC"/>
<path d="M130.9 211.6C130.9 211.6 41.5 177.9 31 158C37.2 162.2 77.2 188.8 131.7 210.8C130.9 211.6 130.9 211.6 130.9 211.6Z" fill="#F9D0AC"/>
<path d="M141.2 184C141.2 184 61.2996 131.4 39.0996 134.5C46.1996 137 91.1996 153.9 141 185.2C141.2 184 141.2 184 141.2 184Z" fill="#F9D0AC"/>
<path d="M140.3 189.1C140.3 189.1 60.4996 137.7 38.0996 141.1C45.1996 143.5 90.2996 159.7 140.1 190.2C140.3 189.1 140.3 189.1 140.3 189.1Z" fill="#F9D0AC"/>
<path d="M39.9999 287.4C39.9999 287.4 27.9999 267 36.7999 260.9C45.5999 254.7 63.0999 244.1 71.5999 249.8C79.9999 255.6 126.4 295.3 138.9 325.5C141.3 331.2 104.4 363.2 91.3999 353C78.3999 342.8 43.5999 295 39.9999 287.4Z" fill="#F79321"/>
<path d="M49.4004 253.1C49.4004 253.1 86.4004 312.7 125.9 341.5L121.8 344.4C121.8 344.4 52.4004 277.7 46.9004 254.5L49.4004 253.1Z" fill="#A55F19"/>
<path d="M106.5 352.9C106.5 352.9 38.7996 295.1 39.2996 274.5C42.9996 280.2 67.1996 316 107.7 352.4C106.5 352.9 106.5 352.9 106.5 352.9Z" fill="#F9D0AC"/>
<path d="M113.2 349.9C113.2 349.9 45.4998 292.5 45.9998 272.1C49.6998 277.7 73.8998 313.3 114.4 349.5C113.2 349.9 113.2 349.9 113.2 349.9Z" fill="#F9D0AC"/>
<path d="M137.7 329.4C137.7 329.4 89.0998 258.8 66.2998 254.4C71.6998 258.8 105.8 287.6 137 330.3C137.7 329.4 137.7 329.4 137.7 329.4Z" fill="#F9D0AC"/>
<path d="M134.2 333.5C134.2 333.5 85.0998 264 61.7998 259.8C67.2998 264.1 101.9 292.4 133.4 334.4C134.2 333.5 134.2 333.5 134.2 333.5Z" fill="#F9D0AC"/>
<path d="M37.7994 99.8001C37.7994 99.8001 19.8994 98.1001 19.2994 91.5001C18.6994 84.9001 18.5994 72.3001 25.5994 70.3001C32.5994 68.3001 76.5994 60.4001 101.099 65.5001C105.699 66.5001 112.199 96.4001 100.499 99.0001C88.7994 101.6 44.1994 100.8 37.7994 99.8001Z" fill="#F79321"/>
<path d="M19.1996 82.4C19.1996 82.4 72.3996 86.4 106.6 77.8L106.9 80.9C106.9 80.9 36.3996 90.1 19.0996 84.1L19.1996 82.4Z" fill="#A55F19"/>
<path d="M106.399 91.5002C106.399 91.5002 42.3992 103.2 29.1992 95.2002C34.2992 95.5002 67.0992 97.0002 106.599 90.7002C106.399 91.5002 106.399 91.5002 106.399 91.5002Z" fill="#F9D0AC"/>
<path d="M107 87.2C107 87.2 43.2996 99 30.0996 91.2C35.1996 91.5 67.7996 92.8 107.1 86.5C107 87.2 107 87.2 107 87.2Z" fill="#F9D0AC"/>
<path d="M103.199 67.5C103.199 67.5 38.299 65 26.499 74.6C31.499 73.6 63.599 67.6 103.499 68.2C103.199 67.5 103.199 67.5 103.199 67.5Z" fill="#F9D0AC"/>
<path d="M104.5 70.8001C104.5 70.8001 40.0998 69.0001 28.2998 78.8001C33.2998 77.7001 65.1998 71.3001 104.8 71.5001C104.5 70.8001 104.5 70.8001 104.5 70.8001Z" fill="#F9D0AC"/>
<path d="M160.499 331.4C162.999 332.3 164.399 334.5 163.999 336.2C163.699 337.3 162.799 337.9 162.399 338.2C162.699 340.1 163.099 342.1 163.399 344C163.799 344.4 164.399 345 164.699 346.1C165.399 348.1 164.599 349.8 164.399 350.2C159.599 350.7 154.899 351.2 150.099 351.7C149.999 351.6 148.899 350.5 149.099 349.2C149.299 347.8 151.099 346.6 153.299 346.9C153.499 345.2 153.599 342.4 152.499 339.2C152.299 338.5 151.999 337.9 151.699 337.3C153.599 336.8 155.999 335.8 158.199 333.8C159.099 333 159.899 332.1 160.499 331.4C160.499 331.3 160.499 331.3 160.499 331.4Z" fill="#032F51"/>
<path d="M144.9 309.4C150.1 316.7 155.3 324 160.5 331.2C159.9 332.1 159.1 332.9 158.2 333.8C156 335.8 153.6 336.8 151.7 337.3C151.3 336.6 151 335.9 150.6 335.3C149.4 335.3 148.1 335.3 146.9 335.3C143.4 331.3 138.3 325.4 132.1 318.1C132 317.9 131.8 317.8 131.7 317.6C128.7 311.8 126.1 306.4 124 301.6C122.3 297.6 118.6 288.8 115.1 277.1C112.1 267.3 110.2 261 109.1 251.9C107.9 242.3 108.3 235.9 107.4 235.9C106.3 235.8 104.8 244.2 103.3 252.9C102 260.2 101.1 266.3 100.5 270.9C100.3 270.4 100.1 270 99.8996 269.5C99.1996 275.6 98.8996 284.5 101.5 294.8C103.1 301 105.2 305.3 106.7 308.6C110.4 316.6 115.2 328.4 120 344.5C118.1 345.5 115.6 346.4 112.7 347.1C110.6 347.5 108.6 347.7 106.9 347.7C107 347.7 107.1 347.7 107.2 347.6C100.8 335.5 95.1996 324.3 90.2996 314.4C83.5996 300.7 80.6996 294.2 78.5996 285C77.5996 280.8 77.0996 276.4 75.9996 267.9C75.0996 260.6 74.6996 255.3 72.9996 240.2C72.8996 239.6 72.8996 239.1 72.7996 238.5C72.6996 238.1 72.6996 237.5 72.5996 236.9C77.5996 237.5 80.4996 215.6 86.9996 215.1C93.5996 214.7 96.6996 204 102 206.7C106.7 209.1 116.5 219.5 116 230.2C117.8 242 119.5 253.8 121.3 265.6C122.8 271.5 125.1 278.7 129.1 286.5C134.2 296.7 140.1 304.2 144.9 309.4Z" fill="#003C71"/>
<path d="M124.1 301.7C126.2 306.5 128.7 311.9 131.8 317.7C122.2 306.2 117.1 300.2 112.5 293C107.5 285.2 103.6 277.7 100.6 271C101.2 266.4 102.1 260.3 103.4 253C104.9 244.3 106.4 235.9 107.5 236C108.4 236.1 108 242.5 109.2 252C110.4 261.1 112.3 267.4 115.2 277.2C118.7 288.9 122.3 297.7 124.1 301.7Z" fill="#032F51"/>
<path d="M14.2998 153.8C16.9998 152 21.0998 154.8 21.6998 155.2C23.9998 156.8 25.0998 158.9 25.7998 160.3C27.2998 163.4 29.4998 168.7 30.8998 176.4C31.0998 176.5 31.3998 176.6 31.5998 176.7C30.9998 177 30.2998 177.3 29.5998 177.4C27.2998 177.7 24.9998 176.6 23.7998 175.1C22.2998 173.2 22.6998 171.2 20.9998 170.6C20.1998 170.3 19.1998 170.3 18.8998 170.8C18.2998 171.7 20.5998 173.6 19.9998 175.4C19.7998 176 19.2998 176.4 18.9998 176.6C17.5998 174.2 14.8998 173 12.2998 173.5C10.1998 173.9 8.89985 175.3 8.29985 176.3C7.09985 176.6 4.89985 176.9 2.89985 175.6C-0.500154 173.5 -0.100155 168.9 -0.00015457 167.8C0.0998454 166.9 0.399845 163.8 2.29985 162.8C3.59985 162.1 4.49985 163.1 5.69985 162.4C7.49985 161.4 6.89985 159.1 8.49985 158C9.09985 157.6 10.1998 157.4 12.0998 158.1C12.2998 157.5 12.4998 155 14.2998 153.8Z" fill="#542535"/>
<path d="M120.3 345.7C122.6 348.2 122.9 351.4 121.5 353.3C120.5 354.6 119 355 118.4 355.1C109.7 356.3 100.9 357.5 92.2002 358.7C92.8002 357.4 93.7002 355.8 95.1002 354.3C99.2002 349.7 104.5 348.3 107 347.9C108.8 347.9 110.7 347.7 112.8 347.3C115.7 346.7 118.2 345.7 120.1 344.7C120.1 345 120.2 345.3 120.3 345.7Z" fill="#032F51"/>
<path d="M20.9998 170.7C22.5998 171.4 22.1998 173.4 23.7998 175.2C25.0998 176.7 27.2998 177.8 29.5998 177.5C30.3998 177.4 30.9998 177.1 31.5998 176.8C32.1998 177.1 32.8998 177.4 33.4998 177.7C33.6998 177.5 33.9998 177.1 34.4998 176.6C35.1998 178.8 34.7998 181.1 33.4998 183C32.0998 184.9 29.7998 185.9 27.3998 185.8C27.6998 185.5 27.8998 185.2 28.0998 185C26.8998 184.4 25.6998 183.9 24.3998 183.3C23.5998 184.3 22.6998 185.2 21.8998 186.2C20.0998 185.7 17.2998 184.6 14.3998 182.3C11.6998 180.1 9.9998 177.8 9.0998 176.2C8.9998 176.2 8.6998 176.3 8.2998 176.4C8.9998 175.4 10.2998 174 12.2998 173.6C14.8998 173.1 17.4998 174.3 18.9998 176.7C19.2998 176.5 19.6998 176.1 19.9998 175.5C20.5998 173.7 18.2998 171.9 18.8998 170.9C19.1998 170.4 20.2998 170.4 20.9998 170.7Z" fill="#F0A87D"/>
<path d="M48.8994 220.1C55.8994 226.4 62.8994 232.8 69.8994 239.1C70.3994 238.9 70.8994 238.7 71.3994 238.4C71.5994 238.6 71.8994 238.8 72.0994 239C74.7994 237.8 77.8994 236.2 80.8994 233.9C85.5994 230.3 88.2994 226.7 92.2994 221.4C96.2994 216.2 99.3994 211.2 101.699 206.7C100.999 206.1 100.099 205.3 98.9994 204.4C92.0994 201.7 84.6994 198.4 77.0994 194.3C70.1994 190.6 63.8994 186.7 58.3994 182.9C57.1994 185.6 54.4994 187.2 51.6994 186.9C49.1994 186.6 47.0994 184.8 46.2994 182.4C49.3994 180.8 53.7994 178 57.7994 173.3C64.3994 165.5 65.6994 157 66.6994 150.1C68.2994 139.2 66.8994 129.6 64.9994 122.4C63.3994 119.4 61.7994 117 60.3994 114.6C59.3994 114.7 58.2994 114.9 57.1994 115.3C55.7994 115.8 54.6994 116.6 53.7994 117.4C54.3994 118.4 54.7994 119.5 55.3994 121C57.7994 127.7 58.3994 134 58.3994 134C58.9994 141 59.7994 149.1 55.6994 157.1C55.4994 157.4 48.5994 164.8 47.5994 166.1C46.6994 167.3 45.8994 168.3 44.9994 169.2C41.8994 171 34.5994 175.3 33.6994 177.5C33.8994 179 34.1994 179.6 33.0994 181.7C31.9994 183.7 29.9994 185 27.7994 185.3C26.9994 187.5 25.9994 191.7 27.3994 196.5C28.7994 201.2 31.7994 204.1 33.0994 205.1C38.2994 210.3 43.5994 215.2 48.8994 220.1Z" fill="#26BED6"/>
<path d="M46.2998 182.5C47.0998 184.9 49.1998 186.7 51.6998 187C54.4998 187.3 57.1998 185.7 58.3998 183C63.9998 186.8 70.1998 190.7 77.0998 194.4C84.6998 198.5 91.9998 201.8 98.9998 204.5C90.6998 197.4 73.6998 183 64.4998 175.2C67.5998 170.9 69.3998 167 70.2998 164.3C74.0998 153.8 72.4998 144.6 71.8998 141.2C71.0998 136.7 69.7998 133.5 68.5998 130.3C67.3998 127.3 66.1998 124.7 64.9998 122.5C66.8998 129.8 68.2998 139.4 66.6998 150.2C65.6998 157.1 64.3998 165.5 57.7998 173.4C53.7998 178.2 49.3998 181 46.2998 182.5Z" fill="#2599A5"/>
<path d="M60.0993 115.4C60.2993 115.8 60.3993 116.2 60.6993 116.6C59.6993 116.8 58.4993 117.3 57.3993 117.9C56.4993 118.5 55.7993 119.1 55.1993 119.7C55.0993 119.5 54.9993 119.2 54.7993 119C52.6993 114.9 44.7993 108.5 43.4993 102.4C43.1993 100.9 47.7993 102.9 49.9993 104.4C53.4993 106.7 56.5993 107.4 57.5993 110.4C58.2993 112.6 59.2993 113.2 60.0993 115.4Z" fill="#F0A87D"/>
<path d="M29.2002 201L42.7002 247.9L49.0002 247L40.9002 198.5C40.9002 198.5 29.7002 187.9 29.2002 201Z" fill="#26BED6"/>
<path d="M42.6999 247.9C42.6999 247.9 41.1999 254.7 42.6999 257C44.1999 259.2 49.5999 257.8 49.5999 257.6C49.5999 257.4 50.6999 254.7 50.6999 253.3C50.6999 251.9 48.9999 247 48.9999 247L42.6999 247.9Z" fill="#F0A87D"/>
</g>
<defs>
<clipPath id="clip0">
<rect width="180" height="366" fill="white"/>
</clipPath>
</defs>
</svg>
