<svg width="280" height="177" viewBox="0 0 280 177" fill="none" xmlns="http://www.w3.org/2000/svg">
<path d="M191.2 10.3C191.2 10.3 195.4 10.5 199.9 3.10002C204.4 -4.29998 208.9 3.50002 209.7 7.60002C210.6 11.7 215.3 6.30002 216.4 5.90002C217.5 5.50002 223.6 4.40002 223.8 10.3H191.2Z" fill="#F79321"/>
<path d="M80 13.6C80 13.6 83.4 13.8 87.2 7.70001C91 1.60001 94.6 8.00001 95.3 11.4C96 14.8 99.9 10.4 100.8 10C101.7 9.70001 106.7 8.70001 106.9 13.6H80Z" fill="#F79321"/>
<path d="M67.6003 53.5H40.8003C40.0003 53.5 39.4003 52.7 39.6003 51.9C40.2003 49.9 42.2003 47.1 48.3003 50.9C48.4003 50.9 48.4003 51 48.5003 51C49.2003 51.3 52.4003 52.1 54.3003 46.2C56.5003 39.7 63.5003 53.4 67.6003 53.5Z" fill="#F79321"/>
<path d="M0 84.3001L280 37.6001L68.2 107.5L0 84.3001Z" fill="#26BED6"/>
<path d="M68.2002 107.5L99.6002 177L280 37.6001L68.2002 107.5Z" fill="#003C71"/>
<path d="M99.5996 177L246.2 96.7L278 38.8L129.8 131L99.5996 177Z" fill="#022B49"/>
<path d="M209.4 161.2L130.2 131.4L280 37.6001L209.4 161.2Z" fill="#26BED6"/>
<path d="M153.1 42.3999C153.1 42.3999 144.4 44.6999 142.3 47.2999C140.2 49.8999 136 53.1999 135.2 58.7999C134.4 64.3999 137 75.9999 139.1 81.0999C141.2 86.1999 146.5 101.9 153.9 106.9C161.3 111.9 168.6 119.7 182.4 112.7C196.2 105.7 197 85.0999 189.5 73.2999C182 61.4999 174.7 47.0999 169.1 44.9999C163.5 42.8999 157.1 41.0999 153.1 42.3999Z" fill="#F79321"/>
<path d="M153.7 44.7999C153.7 44.7999 146.6 47 144.7 48.9C142.9 50.8 139.2 53.2999 138.2 57.0999C137.1 60.8999 138.4 68.3999 139.6 71.5999C140.9 74.7999 143.9 84.8999 149.5 87.5999C155 90.3999 160.2 95 171.8 89.3C183.3 83.6 185.5 69.8999 180.4 62.5999C175.3 55.2999 170.6 46.2999 166.3 45.2999C161.9 44.3999 157 43.6999 153.7 44.7999Z" fill="#022B49"/>
<path d="M163.8 80.8C163.8 80.8 180.2 82.7 191.2 79C187.8 82.5 163.4 115.8 139.2 82.6C136.3 71.8 136.1 70.7 136.1 70.7C136.1 70.7 146.2 81.9 163.8 80.8Z" fill="#B76716"/>
<path d="M174.6 49.9001C174.6 49.9001 179.2 68.6001 163.8 80.8001C175.8 82.9001 192.1 78.8001 192.1 78.8001C192.1 78.8001 181.9 57.4001 174.6 49.9001Z" fill="#DB873B"/>
<path d="M162.123 73.1009C169.707 69.6333 173.193 61 169.909 53.8179C166.625 46.6357 157.815 43.6245 150.231 47.092C142.647 50.5596 139.161 59.1929 142.445 66.375C145.729 73.5572 154.539 76.5684 162.123 73.1009Z" fill="#EDAB7D"/>
<path d="M144.12 70.4567C145.025 70.0454 145.073 68.2038 144.227 66.3434C143.382 64.483 141.963 63.3084 141.058 63.7198C140.153 64.1311 140.104 65.9727 140.95 67.8331C141.796 69.6934 143.215 70.8681 144.12 70.4567Z" fill="#EDAB7D"/>
<path d="M172.739 57.475C173.644 57.0637 173.692 55.2221 172.847 53.3617C172.001 51.5013 170.582 50.3267 169.677 50.7381C168.772 51.1494 168.724 52.991 169.569 54.8514C170.415 56.7117 171.834 57.8864 172.739 57.475Z" fill="#EDAB7D"/>
<path d="M148.5 63.9001C148.5 63.9001 148.4 63.9001 148.3 64.0001C146.4 64.7001 144.5 63.6001 144.4 63.5001L144.9 62.7001C144.9 62.7001 146.5 63.7001 148 63.1001C148.9 62.7001 149.6 61.8001 150 60.4001L150.9 60.6001C150.5 62.3001 149.7 63.4001 148.5 63.9001Z" fill="#935212"/>
<path d="M161.7 57.2C161.7 57.2 161.6 57.1999 161.5 57.2999C159.6 57.9999 157.7 56.8999 157.6 56.7999L158.1 56C158.1 56 159.7 57 161.2 56.4C162.1 56 162.8 55.1 163.2 53.7L164.1 53.9C163.6 55.6 162.8 56.7 161.7 57.2Z" fill="#935212"/>
<path d="M158.6 68C158.6 68 158.5 68 158.6 68C157.3 68.5 155.8 67.2 155.7 67.1L156.1 66.7C156.5 67 157.6 67.8 158.4 67.5C159 67.3 159.3 66.5 159.4 65.2H159.9C159.7 66.7 159.3 67.7 158.6 68ZM155.9 66.9L156.1 66.7L155.9 66.9Z" fill="#935212"/>
<path d="M151.6 47.9C151.6 47.9 145.9 49 144.9 43.7C143.9 38.4 151.3 39.5 148.8 43C148.6 41.8 146.8 39.2 145.7 42.8C144.5 46.3 150.2 47.9 151.6 47.9Z" fill="#935212"/>
</svg>
