<svg width="280" height="194" viewBox="0 0 280 194" fill="none" xmlns="http://www.w3.org/2000/svg">
<path d="M62.3008 15.8C63.1008 13.4 64.2008 11 65.6008 8.8C70.4008 1.1 83.3008 0.800002 89.3008 6.8C101.201 18.7 101.001 64.5 88.1008 75.3C70.4008 90.2 62.4008 57.9 60.7008 42.9C59.7008 33.8 59.4008 24.3 62.3008 15.8Z" fill="black"/>
<path d="M74.4004 47.3H83.6004L83.8004 36H74.6004L74.4004 47.3Z" fill="#F0A87D"/>
<path d="M74.6006 35.8C74.6006 35.8 77.5006 39.7001 83.6006 39.7001V35.8H74.6006Z" fill="#DB8E67"/>
<path d="M87.6004 22.1C87.6004 22.1 88.2004 18.8 90.8004 18.8C93.5004 18.8 91.4004 25.9001 88.4004 27.2001C86.8004 27.9001 87.6004 22.1 87.6004 22.1Z" fill="#F0A87D"/>
<path d="M70.5011 22.1C70.5011 22.1 69.9011 18.8 67.3011 18.8C64.6011 18.8 66.7011 25.9001 69.7011 27.2001C71.3011 27.9001 70.5011 22.1 70.5011 22.1Z" fill="#F0A87D"/>
<path d="M79.0008 37.8C74.6008 37.9 70.2008 33.6 68.3008 26V16.1C68.3008 9.60005 73.1008 4.30005 79.0008 4.30005C84.9008 4.30005 89.7008 9.60005 89.7008 16.1V26C89.0008 32.6 83.6008 37.8 79.0008 37.8Z" fill="#F0A87D"/>
<path d="M66.2006 48.4V47.9L64.1006 91.3L92.0006 92.3L94.0006 49C94.0006 49 90.8006 45.9 86.6006 45.4C85.3006 45.2 81.9006 43.7 80.5006 43.7C75.4006 43.7 70.4006 45.5 66.2006 48.4Z" fill="#FFC0BE"/>
<path d="M72.1006 5.10005C72.2006 5.10005 77.6006 11.7 78.1006 12.3C81.0006 15 84.9006 17.8 88.6006 18.9C92.7006 20.1 90.4006 13.2 89.8006 11.5C88.4006 7.30005 83.0006 3.50005 78.6006 4.10005L72.1006 5.10005Z" fill="black"/>
<path d="M77.9009 4.80006L79.6009 6.60006C84.2009 9.60006 74.5009 16.2001 71.4009 18.4001C67.9009 20.9001 65.4009 15.2001 65.5009 12.9001C65.7009 9.60006 73.1009 1.80006 77.9009 4.80006Z" fill="black"/>
<path d="M108.7 71.4C105.5 58 100.3 39.9 86.3004 42.4C86.3004 42.4 86.1004 43.9 79.0004 43.9C71.9004 43.9 71.9004 42.8 71.9004 42.8C71.9004 42.8 55.3004 40.2 49.6004 70.5H49.5004L46.4004 91.6L48.1004 126.2L53.2004 126.4L59.2004 113.6L59.0004 125.3C59.0004 125.3 77.9004 129.8 98.9004 125.3C98.8004 121.6 98.6004 117 98.4004 112.2L104 126L109.1 125.8L110.8 91.2L108.7 71.4Z" fill="#26BED6"/>
<path d="M108.3 92.3001H48.7002C45.9002 92.3001 43.7002 90.1001 43.7002 87.3001V57.3C43.7002 54.5 45.9002 52.3 48.7002 52.3H108.2C111 52.3 113.2 54.5 113.2 57.3V87.3001C113.3 90.0001 111 92.3001 108.3 92.3001Z" fill="#003C71"/>
<path d="M81.9006 85H75.1006V101.2H81.9006V85Z" fill="#003C71"/>
<path d="M185.799 17.7002C184.699 15.4002 185.899 11.0002 187.299 8.80025C192.099 1.10025 204.999 0.800246 210.999 6.80025C216.799 15.4002 209.399 30.4002 200.699 27.6002C192.099 24.9002 190.399 27.4002 185.799 17.7002Z" fill="black"/>
<path d="M196.1 47.3002H205.3L205.5 36.0002H196.3L196.1 47.3002Z" fill="#F0A87D"/>
<path d="M196.3 35.8003C196.3 35.8003 199.2 39.7003 205.3 39.7003V35.8003H196.3Z" fill="#DB8E67"/>
<path d="M209.3 22.1003C209.3 22.1003 209.9 18.8003 212.5 18.8003C215.2 18.8003 213.1 25.9003 210.1 27.2003C208.5 27.9003 209.3 22.1003 209.3 22.1003Z" fill="#F0A87D"/>
<path d="M192.2 22.1003C192.2 22.1003 191.6 18.8003 189 18.8003C186.3 18.8003 188.4 25.9003 191.4 27.2003C193 27.9003 192.2 22.1003 192.2 22.1003Z" fill="#F0A87D"/>
<path d="M200.7 37.8003C196.3 37.9003 191.9 33.6003 190 26.0003V16.1003C190 9.60029 194.8 4.30029 200.7 4.30029C206.6 4.30029 211.4 9.60029 211.4 16.1003V26.0003C210.7 32.6003 205.3 37.8003 200.7 37.8003Z" fill="#F0A87D"/>
<path d="M187.9 48.4003V47.9003L185.8 91.3003L213.7 92.3003L215.7 48.9003C215.7 48.9003 212.5 45.8003 208.3 45.3003C207 45.1003 203.6 43.6003 202.2 43.6003C197.1 43.7003 192.1 45.5003 187.9 48.4003Z" fill="#FFC0BE"/>
<path d="M189.299 7.10018C189.399 7.10018 197.699 12.6002 198.499 13.0002C202.599 14.9002 207.699 16.7002 211.899 16.6002C216.599 16.4002 211.199 9.40018 209.899 7.70018C206.699 3.40018 199.499 1.10018 195.399 3.50018L189.299 7.10018Z" fill="black"/>
<path d="M193.399 4.80006L194.299 6.60006C196.599 9.60006 191.699 16.2001 190.199 18.4001C188.399 20.9001 187.199 15.2001 187.199 12.9001C187.299 9.60006 190.999 1.80006 193.399 4.80006Z" fill="black"/>
<path d="M230.4 71.4003C227.2 58.0003 222 39.9003 208 42.4003C208 42.4003 207.8 43.9003 200.7 43.9003C193.6 43.9003 193.6 42.8003 193.6 42.8003C193.6 42.8003 177 40.2003 171.3 70.5003H171.2L168.1 91.6003L169.8 126.2L174.9 126.4L180.9 113.6L180.7 125.2C180.7 125.2 199.6 129.7 220.6 125.2C220.5 121.5 220.3 116.9 220.1 112.1L225.7 125.9L230.8 125.7L232.5 91.1003L230.4 71.4003Z" fill="#26BED6"/>
<path d="M232 94.6H169.3C166.5 94.6 164.3 92.4 164.3 89.6V57.8C164.3 55 166.5 52.8 169.3 52.8H232C234.8 52.8 237 55 237 57.8V89.6C237 92.3 234.7 94.6 232 94.6Z" fill="#003C71"/>
<path d="M204.2 86.9001H197.1V103.8H204.2V86.9001Z" fill="#003C71"/>
<path d="M182.7 127.5L216.5 121.9L191 130.3L182.7 127.5Z" fill="#26BED6"/>
<path d="M191 130.3L194.7 138.7L216.5 121.9L191 130.3Z" fill="#DDDDDD"/>
<path d="M194.7 138.7L212.4 129L216.2 122L198.4 133.1L194.7 138.7Z" fill="#707070"/>
<path d="M208 136.8L198.4 133.2L216.5 121.9L208 136.8Z" fill="#26BED6"/>
<path d="M81.0998 34.7001C80.6998 34.6 80.2998 34.5001 79.7998 34.4001C79.0998 34.2001 78.7998 33.7001 78.8998 33C78.9998 32.3 79.3998 31.8 80.0998 31.8C81.0998 31.8 82.0998 31.7 82.7998 32.6C82.8998 32.7 83.1998 32.8 83.3998 32.8C86.6998 32.9 87.3998 31.3 89.5998 28.3C89.7998 27.9 89.7998 27.6 89.6998 27.1C89.4998 26.2001 89.2998 25.2 89.2998 24.3C89.2998 23.1 89.2998 21.9001 89.3998 20.7001C89.3998 20.2001 89.4998 19.7 89.7998 19.3C90.1998 18.6 90.2998 17.9 90.2998 17.2C90.2998 13.9 89.3998 10.9 86.8998 8.60005C83.7998 5.60005 80.0998 4.70005 75.8998 5.90005C71.7998 7.10005 69.2998 9.90005 68.2998 14C67.9998 15.4 68.0998 16.8 67.9998 18.2C67.9998 18.3 67.9998 18.5 68.0998 18.6C68.8998 19.7 68.9998 20.9001 68.9998 22.2001C68.9998 23.3001 68.8998 24.5 68.9998 25.6C69.0998 27.3001 67.4998 29.5 65.0998 29.8C62.9998 30 60.9998 28.6 60.4998 26.5C60.4998 26.3 60.3998 26.2001 60.2998 26C60.2998 24.3 60.2998 22.6 60.2998 20.9L60.3998 20.8C60.8998 18.3 62.3998 17.1 64.9998 17C65.1998 17 65.2998 17 65.4998 16.9C65.4998 16.7 65.4998 16.5 65.4998 16.3C65.3998 11.3 68.5998 5.50005 74.8998 3.50005C75.8998 3.20005 76.9998 3.00005 77.9998 2.80005C78.6998 2.80005 79.2998 2.80005 79.9998 2.80005C80.0998 2.80005 80.2998 2.90005 80.3998 2.90005C86.0998 3.50005 90.6998 7.40005 92.0998 12.9C92.3998 14.2 92.4998 15.6 92.6998 17C92.8998 17 93.1998 17 93.4998 17C94.5998 16.9 95.4998 17.4 96.2998 18C97.1998 18.8 97.6998 19.8 97.7998 21C97.7998 22.6 97.7998 24.2 97.7998 25.8C97.7998 25.9 97.6998 26 97.6998 26.1C97.1998 28.7001 94.9998 30.3001 92.3998 29.7001C91.6998 29.5 91.0998 29.2 90.4998 28.9C88.3998 32.1 87.8998 33.1001 84.6998 33.9001C83.5998 34.2001 82.4998 33.8001 81.5998 34.7001C81.5998 34.7001 81.2998 34.7001 81.0998 34.7001Z" fill="#9FC43A"/>
<path d="M203.6 35.3001C203.1 35.2001 202.7 35.1001 202.2 35.0001C201.4 34.8001 201.1 34.2001 201.2 33.4001C201.3 32.6001 201.8 32.1001 202.5 32.1001C203.6 32.1001 204.7 32.0001 205.5 33.0001C205.6 33.2001 205.9 33.2001 206.1 33.2001C209.8 33.3001 209.7 31.1001 212.3 28.3001C212.6 27.8001 212.5 27.5001 212.4 27.0001C212.1 26.0001 212 24.9001 212 23.9001C211.9 22.6001 212 21.2001 212.1 19.9001C212.1 19.4001 212.2 18.8001 212.5 18.4001C213 17.7001 213 16.9001 213 16.1001C213 12.4001 212 9.1001 209.3 6.5001C205.8 3.2001 201.7 2.2001 197.2 3.5001C192.7 4.9001 189.9 8.0001 188.8 12.5001C188.4 14.0001 188.6 15.6001 188.5 17.2001C188.5 17.3001 188.5 17.5001 188.6 17.6001C189.5 18.8001 189.6 20.2001 189.6 21.6001C189.6 22.9001 189.5 24.1001 189.6 25.3001C189.7 27.2001 187.9 29.7001 185.3 29.9001C182.9 30.1001 180.7 28.5001 180.2 26.2001C180.2 26.0001 180.1 25.8001 180 25.6001C180 23.7001 180 21.8001 180 20.0001L180.1 19.9001C180.7 17.1001 182.3 15.8001 185.2 15.7001C185.4 15.7001 185.6 15.7001 185.8 15.6001C185.8 15.3001 185.8 15.1001 185.8 14.9001C185.6 9.4001 189.3 3.0001 196.2 0.800098C197.3 0.400098 198.5 0.300098 199.7 0.100098C200.4 0.100098 201.2 0.100098 201.9 0.100098C202.1 0.100098 202.2 0.200098 202.4 0.200098C208.7 0.900098 213.8 5.2001 215.3 11.2001C215.7 12.6001 215.8 14.1001 216 15.7001C216.3 15.7001 216.6 15.7001 216.9 15.7001C218.1 15.6001 219.1 16.1001 220 16.9001C221 17.8001 221.5 18.9001 221.7 20.2001C221.7 22.0001 221.7 23.7001 221.7 25.5001C221.7 25.6001 221.6 25.7001 221.6 25.8001C221.1 28.7001 218.6 30.4001 215.7 29.8001C215 29.6001 214.3 29.2001 213.6 28.9001C211.3 32.4001 210.6 33.8001 207.9 34.5001C206.7 34.8001 205.5 34.4001 204.5 35.4001C204.2 35.3001 203.9 35.3001 203.6 35.3001Z" fill="#9FC43A"/>
<path d="M280 101.2H0V194H280V101.2Z" fill="#022B49"/>
<path d="M272.7 106.2H7.2002V194H272.7V106.2Z" fill="#003C71"/>
<path d="M30.6998 131.1H25.2998V194H30.6998V131.1Z" fill="#022B49"/>
<path d="M48.9 131.1H43.5V194H48.9V131.1Z" fill="#022B49"/>
<path d="M67.1002 131.1H61.7002V194H67.1002V131.1Z" fill="#022B49"/>
<path d="M85.4 131.1H80V194H85.4V131.1Z" fill="#022B49"/>
<path d="M200 131.1H194.6V194H200V131.1Z" fill="#022B49"/>
<path d="M218.299 131.1H212.899V194H218.299V131.1Z" fill="#022B49"/>
<path d="M236.5 131.1H231.1V194H236.5V131.1Z" fill="#022B49"/>
<path d="M254.7 131.1H249.3V194H254.7V131.1Z" fill="#022B49"/>
<path d="M107.2 152.2L169.9 141.7L122.5 157.4L107.2 152.2Z" fill="#26BED6"/>
<path d="M122.5 157.4L129.5 172.9L169.9 141.7L122.5 157.4Z" fill="#DDDDDD"/>
<path d="M129.5 172.9L162.4 155L169.5 142L136.3 162.6L129.5 172.9Z" fill="#707070"/>
<path d="M154.1 169.4L136.4 162.7L169.9 141.7L154.1 169.4Z" fill="#26BED6"/>
</svg>
