<svg width="280" height="200" viewBox="0 0 280 200" fill="none" xmlns="http://www.w3.org/2000/svg">
<g clip-path="url(#clip0)">
<path d="M0 106.68L280 59.6802L68.24 129.98L0 106.68Z" fill="#26BED6"/>
<path d="M68.2402 129.98L99.6102 200L280 59.6802L68.2402 129.98Z" fill="#003C71"/>
<path d="M99.6104 200L246.24 119.19L278.04 60.8701L129.8 153.68L99.6104 200Z" fill="#022B49"/>
<path d="M209.41 184.09L130.2 154.08L280 59.6802L209.41 184.09Z" fill="#26BED6"/>
<path d="M121.25 109.35C132.616 109.35 141.83 106.162 141.83 102.23C141.83 98.2978 132.616 95.1101 121.25 95.1101C109.884 95.1101 100.67 98.2978 100.67 102.23C100.67 106.162 109.884 109.35 121.25 109.35Z" fill="#157E89"/>
<path d="M209.75 127.6C211.83 128.77 214 130.88 213.57 131.85C213.15 132.8 210.46 132.17 202.39 131.76C199.33 131.6 197.73 131.6 196.96 131.68C195.78 131.16 194.5 130.45 193.25 129.46C191.55 128.12 190.36 126.65 189.55 125.4C190.28 125.37 191.06 125.26 191.88 125.02C193.45 124.57 194.72 123.81 195.72 122.96C197.87 124.36 199.81 125.13 201.31 125.57C205.11 126.68 206.91 126.01 209.75 127.6Z" fill="#ABE8EF"/>
<path d="M203.31 135.22C203.21 136.3 197.29 135.46 186.68 136.91C182.13 137.53 179.75 138.16 178.25 136.68C176.59 135.05 177.71 132.57 177.53 128.44C177.52 128.13 177.5 127.84 177.47 127.54C178.8 128.32 180.78 129.06 183.1 128.63C185.75 128.14 187.33 126.4 187.81 125.82C187.8 125.66 187.79 125.49 187.78 125.32C188.31 125.38 188.91 125.41 189.55 125.38C190.36 126.63 191.55 128.1 193.25 129.44C194.5 130.43 195.78 131.15 196.96 131.66C196.5 131.71 196.33 131.8 196.31 131.91C196.16 132.7 203.42 134.03 203.31 135.22Z" fill="#ABE8EF"/>
<path d="M159.76 75.0102C159.87 74.8702 166.56 75.2802 170.79 76.2102C172.21 76.5202 173.46 77.5302 174.83 78.3902C185.2 84.8502 189.4 94.6102 190.63 97.6002C192.1 101.15 192.61 104.56 193.79 111.06C194.67 115.87 195.16 119.92 195.44 122.76C195.54 122.82 195.63 122.89 195.73 122.95C194.72 123.8 193.45 124.57 191.89 125.01C191.07 125.24 190.28 125.35 189.56 125.39C189.1 124.68 188.76 124.04 188.51 123.54L187.65 123.62C187.43 121.26 187.04 118.34 186.32 115.05C185.05 109.29 182.95 99.7702 175.58 90.9802C173.61 88.6402 170.45 85.3602 165.72 82.2702C164.13 81.8302 157.5 81.0002 157.5 81.0002C157.5 81.0002 158.95 75.9802 159.76 75.0102Z" fill="#032F51"/>
<path d="M196.27 121.98C196.57 122.5 196.98 123.16 197.53 123.88C196.85 123.97 196.22 123.98 195.65 123.96C195.57 123.39 195.48 122.78 195.37 122.13L196.27 121.98Z" fill="#073F61"/>
<path d="M187.78 125.34C187.79 125.51 187.8 125.67 187.81 125.84C187.33 126.42 185.75 128.16 183.1 128.65C180.78 129.08 178.81 128.34 177.47 127.56C177.09 123.32 175.38 120.18 172.56 114.99C168.94 108.34 166.78 104.37 162.38 101.84C160.75 100.9 157.32 99.3 142.28 100.84C130.46 102.04 128.3 105.74 121.43 104.22C119.44 103.78 113.39 102.44 109.97 96.87C106.35 90.96 108.26 84.55 108.62 83.41C108.53 83.07 108.45 82.73 108.37 82.39C111.31 81.96 113.81 81.53 115.81 81.17C118.48 80.68 120.22 80.31 120.32 79.53C120.86 79.92 121.4 80.31 121.94 80.71C122.54 79.53 155.46 79.35 165.71 82.29C170.43 85.39 173.6 88.66 175.57 91C182.94 99.79 185.04 109.31 186.31 115.07C187.04 118.36 187.43 121.28 187.64 123.64C187.7 124.23 187.74 124.81 187.78 125.34Z" fill="#003C71"/>
<path d="M135.689 71.7901C136.349 72.2401 145.849 75.6801 146.849 76.1801C145.179 77.0901 147.279 79.6301 145.349 80.5201C144.409 80.9501 125.909 80.2401 124.819 80.4201C124.259 79.9601 133.869 71.6901 134.559 70.8301C134.899 71.1901 135.279 71.5101 135.689 71.7901Z" fill="#032F51"/>
<path d="M133.01 78.71C132.96 79.56 118.73 81.6901 115.94 82.43C113.85 82.98 111.24 83.65 108.16 84.35C105.97 77.6 104.65 71.7901 103.81 67.3601C103.74 66.9801 103.63 66.39 103.5 65.6101C107.09 72.7801 110.36 52.34 113.79 53.68C115.85 54.49 133.08 77.43 133.01 78.71Z" fill="#597D39"/>
<path d="M114.19 56.46C116.1 61.39 115.97 67.25 117.54 68.65C117.98 69.05 135.39 71.82 136.86 73.04C136.28 73.66 136.51 77.45 136.37 78.1C136.25 77.99 122.71 81.04 120.6 80.32C119.18 79.83 107.8 79.53 103.51 65.63C103.11 63.3 102.51 59.3 102.16 54.41C101.47 44.96 102.4 41.91 103.16 40.09C104 38.06 105.04 36.57 105.76 35.57C107.16 36.07 109.02 36.66 111.22 37.16C115.09 38.05 118.94 38.93 122.89 38.25C127.43 37.47 130.86 34.83 133.12 32.51C133.7 33.05 134.29 33.68 134.85 34.4C136.94 37.07 137.65 39.69 138.05 41.11C138.07 41.17 138.07 41.2 138.08 41.21C138.02 40.98 136.52 35.26 144.58 59.98C145.54 62.91 159.38 62.58 160.45 62.33C159.89 63.58 158.71 67.37 156.58 68.06C155.88 68.29 141.11 72.85 137.56 68.77C133.67 64.29 131.98 59.15 131.19 55.04C130.99 58.09 130.68 66.8 134.56 70.84C133.87 71.7 132.95 72.6 131.73 73.35C131.11 73.72 130.51 74.01 129.96 74.22C127.75 72.62 125.37 70.68 122.96 68.37C120.85 66.32 115.78 58.43 114.19 56.46Z" fill="#9FC43A"/>
<path d="M176.639 53.5001C176.789 53.3501 179.289 50.9001 179.439 51.5201C179.589 52.1601 176.929 54.3101 177.069 54.6301C177.219 54.9501 178.329 53.8001 179.459 52.9801C180.579 52.1501 177.929 55.2701 177.929 55.2701L175.259 57.2501C175.109 57.2201 174.929 57.2101 174.749 57.2601C174.589 57.1701 174.429 57.0601 174.259 56.9501C173.379 56.3001 172.829 55.4701 172.489 54.8001C172.689 54.6401 172.799 54.5501 172.799 54.5501C172.799 54.5501 173.449 50.8201 174.009 49.8401C174.559 48.8601 174.049 52.5901 174.339 52.9101C174.629 53.2301 174.899 52.4201 174.899 52.4201C174.899 52.4201 177.389 48.3401 178.099 48.4901C178.809 48.6401 175.749 52.4101 175.889 52.5701C176.029 52.7301 178.679 49.4601 178.969 49.9401C179.279 50.3801 176.789 53.3201 176.639 53.5001Z" fill="#EDAB7D"/>
<path d="M157.119 63.1502L173.399 54.4402L175.059 56.8202L157.349 68.4802L157.119 63.1502Z" fill="#EDAB7D"/>
<path d="M140.56 46.7602C140.48 46.5702 139.17 43.4402 138.81 43.9402C138.43 44.4602 140 47.3702 139.75 47.6002C139.5 47.8302 138.93 46.3902 138.24 45.2302C137.55 44.0702 138.74 47.8402 138.74 47.8402L140.37 50.6102C140.51 50.6402 140.68 50.7002 140.82 50.8102C141 50.7902 141.18 50.7602 141.37 50.7102C142.4 50.4702 143.2 49.9402 143.75 49.4602C143.63 49.2402 143.57 49.1202 143.57 49.1202C143.57 49.1202 144.38 45.5602 144.26 44.4802C144.13 43.4002 143.2 46.9102 142.82 47.0802C142.44 47.2502 142.51 46.4302 142.51 46.4302C142.51 46.4302 141.82 41.8602 141.13 41.7202C140.44 41.5802 141.76 46.0902 141.57 46.1802C141.38 46.2702 140.25 42.3502 139.81 42.6702C139.38 42.9902 140.49 46.5502 140.56 46.7602Z" fill="#EDAB7D"/>
<path d="M143.579 49.6602L153.569 62.2802L150.299 65.6402L141.149 50.5802L143.579 49.6602Z" fill="#EDAB7D"/>
<path d="M165.869 44.6502C165.869 44.6502 165.689 52.1602 162.329 54.6702C158.969 57.1802 155.079 56.0602 152.609 51.5502C150.129 47.0502 159.679 33.5302 165.869 44.6502Z" fill="#EDAB7D"/>
<path d="M154.26 83.0102L148.47 87.9502L145.83 85.2702L151.67 78.0002L154.26 83.0102Z" fill="#EDAB7D"/>
<path d="M145.619 79.1602L138.989 82.8902L136.909 79.7502L144.049 73.7502L145.619 79.1602Z" fill="#EDAB7D"/>
<path d="M160.36 57.0902C160.36 57.0902 162.8 57.8702 163.62 59.2102C164.06 59.9402 164.08 67.7702 164 74.7402C163.93 80.5402 156.02 85.6602 156.02 85.6602C156.02 85.6602 147.22 80.0402 138.8 76.0802C140.82 72.6002 144.27 74.6402 145.23 70.6602C146.64 64.8402 147.41 59.3802 148.96 56.9202C151.29 55.9302 152.34 56.6202 152.34 56.6202L160.36 57.0902Z" fill="#F79321"/>
<path d="M164.779 53.6802L161.689 53.3502C161.689 53.3502 164.119 49.2702 163.659 48.1702C163.199 47.0702 156.989 45.4902 156.989 45.4902C156.989 45.4902 154.659 49.9902 154.849 50.9802C155.049 51.9702 151.369 49.9902 151.369 49.9902C151.369 49.9902 154.129 38.8802 161.299 40.3702C168.459 41.8502 166.029 50.6402 164.779 53.6802Z" fill="black"/>
<path d="M159.899 57.6103C159.899 57.6103 159.809 55.5203 159.899 54.9103C159.989 54.3003 155.939 53.0103 155.939 53.0103L155.079 56.5003C155.069 56.5103 156.619 60.0603 159.899 57.6103Z" fill="#EDAB7D"/>
<path d="M146.31 85.3802C146.31 85.3802 148.03 86.3702 148.29 87.1602C148.55 87.9502 148.87 88.9002 145.77 88.0602C142.67 87.2102 141.09 86.7202 142.56 85.3802C144.03 84.0502 146.31 85.3802 146.31 85.3802Z" fill="#EDAB7D"/>
<path d="M136.31 79.3803C136.31 79.3803 134.35 79.1003 133.66 79.5603C132.97 80.0203 132.14 80.5803 135.1 81.8303C138.06 83.0803 139.61 83.6703 139.26 81.7003C138.93 79.7303 136.31 79.3803 136.31 79.3803Z" fill="#EDAB7D"/>
<path d="M143.98 72.9601C146.5 73.7201 150.98 73.3001 150.94 74.5701C150.89 75.9901 149.79 79.9401 144.41 81.0301C141.73 80.0501 139.05 79.0701 136.37 78.0901C136.27 77.4401 136.21 76.6701 136.27 75.8101C136.35 74.6501 136.62 73.6501 136.93 72.8601C136.98 72.8801 137.03 72.8901 137.07 72.9101C139.6 72.9301 141.44 72.9401 143.98 72.9601Z" fill="#F3B88B"/>
<path d="M129.83 30.0801C130.72 30.6001 131.9 31.3701 133.11 32.5001C130.85 34.8201 127.42 37.4601 122.88 38.2401C118.93 38.9201 115.08 38.0401 111.21 37.1501C109.01 36.6401 107.15 36.0601 105.75 35.5601C106.33 34.7401 106.71 34.2401 106.6 34.0301C107.95 33.0101 109.16 32.2101 110.13 31.6101C113.54 29.5001 115.25 29.0601 115.78 28.9401C116.71 28.7201 117.54 28.6301 118.18 28.5901C117.47 30.6601 117.1 31.7301 117.66 32.6401C118.25 33.6001 119.58 33.8801 120.41 33.8601C122.23 33.8101 124 32.2101 125.1 29.7201C126.04 29.8601 127 29.7701 127.82 29.4201C127.95 29.3601 128.07 29.3101 128.19 29.2301C128.38 29.4401 128.66 29.6901 129.05 29.8601C129.17 29.9101 129.47 30.0301 129.86 30.0601C129.86 30.0601 129.85 30.0701 129.83 30.0801Z" fill="#9FC43A"/>
<path d="M124.29 13.2901C121.87 18.1201 120.74 19.2601 120.19 19.0901C119.49 18.8701 119.81 16.5501 119.16 16.4301C118.56 16.3201 117.29 18.1401 117.58 19.8101C117.78 20.9701 118.57 21.1801 119.55 22.5601C119.69 22.7601 119.81 22.9401 119.92 23.1301C119.35 25.1001 118.83 26.7101 118.42 27.9001C118.34 28.1401 118.26 28.3701 118.19 28.5901C117.54 28.6301 116.72 28.7201 115.79 28.9401C115.26 29.0701 113.54 29.5101 110.14 31.6101C109.17 32.2101 107.96 33.0101 106.61 34.0301C106.6 34.0201 106.6 34.0101 106.58 34.0001C106.45 33.8701 105.9 34.2001 105.57 34.4001C105.1 34.6801 104.8 34.9701 104.77 35.0001C103.97 35.7701 95.2499 41.3701 91.6799 43.8201C83.2099 49.6501 71.9799 47.8501 70.6499 47.6201C68.2799 47.2101 60.0599 45.6701 53.6899 38.3501C52.8299 37.3701 44.9399 27.9901 47.1699 15.9601C47.6199 13.5101 48.7699 7.34008 54.0499 3.47008C58.6199 0.12008 63.7999 0.32008 65.7799 0.40008C72.5199 0.66008 73.8599 3.85008 84.6099 6.64008C88.7799 7.73008 90.8699 8.27008 93.6999 8.13008C100.22 7.81008 103.11 4.53008 108.54 2.47008C112.82 0.84008 121.8 -1.87992 127.35 1.99008C129.17 3.26008 129.89 4.74008 133.28 6.71008C135.71 8.12008 137.26 8.47008 137.75 10.0101C138.05 10.9401 137.68 11.4401 137 14.7401C136.56 16.8801 136.62 17.1401 136.33 18.5201C135.79 21.1301 135.25 23.5601 133.74 25.9701C133.08 27.0101 131.92 28.5701 129.9 30.0601C129.51 30.0301 129.21 29.9101 129.09 29.8601C128.7 29.6901 128.42 29.4501 128.23 29.2301C128.85 28.8401 129.47 28.0301 131.1 25.2401C133.64 20.8901 134.91 18.6901 134.33 17.8501C133.53 16.6901 131.26 18.1101 128.37 16.9701C126.42 16.2101 125.14 14.6901 124.29 13.2901Z" fill="#935212"/>
<path d="M128.2 29.22C128.08 29.3 127.96 29.36 127.83 29.41C127.01 29.76 126.05 29.85 125.11 29.71C123.75 29.52 122.43 28.86 121.61 27.87C120.36 26.37 121.11 25.16 119.92 23.12C119.81 22.94 119.69 22.75 119.55 22.55C118.56 21.17 117.77 20.96 117.58 19.8C117.3 18.13 118.56 16.31 119.16 16.42C119.81 16.54 119.49 18.86 120.19 19.08C120.74 19.25 121.87 18.11 124.29 13.28C125.14 14.68 126.42 16.2 128.34 16.96C131.23 18.09 133.5 16.68 134.3 17.84C134.88 18.68 133.62 20.87 131.07 25.23C129.44 28.02 128.82 28.83 128.2 29.22Z" fill="#F0A87B"/>
<path d="M118.19 28.5801C118.26 28.3601 118.34 28.1301 118.42 27.8901C118.83 26.6901 119.35 25.0801 119.92 23.1201C121.11 25.1601 120.36 26.3701 121.61 27.8701C122.43 28.8601 123.75 29.5201 125.11 29.7101C124.02 32.2001 122.24 33.7901 120.42 33.8501C119.59 33.8701 118.26 33.5901 117.67 32.6301C117.11 31.7101 117.48 30.6501 118.19 28.5801Z" fill="#E4A576"/>
</g>
<defs>
<clipPath id="clip0">
<rect width="280" height="200" fill="white"/>
</clipPath>
</defs>
</svg>
