<svg width="282" height="234" viewBox="0 0 282 234" fill="none" xmlns="http://www.w3.org/2000/svg">
<g clip-path="url(#clip0)">
<path d="M0 140.8L281.3 93.9001L68.5 164.1L0 140.8Z" fill="#26BED6"/>
<path d="M68.5 164.1L100.1 234L281.3 93.9001L68.5 164.1Z" fill="#003C71"/>
<path d="M100.1 234L247.4 153.3L279.3 95.0002L130.4 187.7L100.1 234Z" fill="#022B49"/>
<path d="M210.401 218.1L130.801 188.1L281.301 93.9001L210.401 218.1Z" fill="#26BED6"/>
<path d="M117.5 139.6C127.938 139.6 136.4 136.69 136.4 133.1C136.4 129.51 127.938 126.6 117.5 126.6C107.061 126.6 98.5996 129.51 98.5996 133.1C98.5996 136.69 107.061 139.6 117.5 139.6Z" fill="#157E89"/>
<path d="M198.799 156.3C200.699 157.4 202.699 159.3 202.299 160.2C201.899 161.1 199.399 160.5 191.999 160.1C189.199 160 187.699 160 186.999 160C185.899 159.5 184.699 158.9 183.599 158C181.999 156.8 180.899 155.4 180.199 154.3C180.899 154.3 181.599 154.2 182.299 154C183.699 153.6 184.899 152.9 185.799 152.1C187.799 153.4 189.599 154.1 190.899 154.5C194.499 155.4 196.199 154.8 198.799 156.3Z" fill="#ABE8EF"/>
<path d="M192.9 163.2C192.8 164.2 187.4 163.4 177.6 164.7C173.4 165.3 171.2 165.8 169.9 164.5C168.4 163 169.4 160.8 169.2 157C169.2 156.7 169.2 156.4 169.1 156.2C170.3 156.9 172.1 157.6 174.3 157.2C176.7 156.8 178.2 155.2 178.6 154.6C178.6 154.5 178.6 154.3 178.6 154.1C179.1 154.2 179.6 154.2 180.2 154.2C180.9 155.3 182 156.7 183.6 157.9C184.8 158.8 185.9 159.5 187 159.9C186.6 160 186.4 160 186.4 160.1C186.3 160.9 193 162.1 192.9 163.2Z" fill="#ABE8EF"/>
<path d="M152.9 108.3C153 108.2 159.1 108.5 163 109.4C164.3 109.7 165.5 110.6 166.7 111.4C176.2 117.3 180.1 126.2 181.2 128.9C182.5 132.1 183 135.3 184.1 141.2C184.9 145.6 185.4 149.3 185.6 151.9C185.7 152 185.8 152 185.9 152.1C185 152.9 183.8 153.6 182.4 154C181.6 154.2 180.9 154.3 180.3 154.3C179.9 153.7 179.6 153.1 179.3 152.6L178.5 152.7C178.3 150.5 177.9 147.9 177.3 144.9C176.1 139.6 174.2 131 167.4 122.9C165.6 120.8 162.7 117.8 158.4 114.9C156.9 114.5 150.9 113.7 150.9 113.7C150.9 113.7 152.1 109.2 152.9 108.3Z" fill="#032F51"/>
<path d="M186.4 151.1C186.7 151.6 187.1 152.2 187.6 152.8C187 152.9 186.4 152.9 185.9 152.9C185.8 152.4 185.7 151.8 185.6 151.2L186.4 151.1Z" fill="#073F61"/>
<path d="M178.601 154.2C178.601 154.4 178.601 154.5 178.601 154.7C178.201 155.2 176.701 156.8 174.301 157.3C172.201 157.7 170.401 157 169.101 156.3C168.801 152.4 167.201 149.6 164.601 144.8C161.301 138.7 159.301 135.1 155.301 132.8C153.801 131.9 150.701 130.5 136.801 131.9C125.901 133 124.001 136.4 117.701 135C115.901 134.6 110.301 133.4 107.201 128.3C103.901 122.9 105.601 117.1 106.001 116C105.901 115.7 105.801 115.4 105.801 115.1C108.501 114.7 110.801 114.3 112.601 114C115.001 113.6 116.701 113.2 116.701 112.5C117.201 112.9 117.701 113.2 118.201 113.6C118.801 112.5 149.001 112.4 158.401 115C162.701 117.8 165.601 120.8 167.401 123C174.201 131 176.101 139.7 177.301 145C178.001 148 178.301 150.7 178.501 152.8C178.501 153.2 178.601 153.7 178.601 154.2Z" fill="#003C71"/>
<path d="M130.8 105.3C131.4 105.7 140.1 108.9 141 109.3C139.5 110.1 141.4 112.4 139.6 113.3C138.7 113.7 121.8 113 120.8 113.2C120.3 112.8 129.1 105.2 129.7 104.4C130.1 104.8 130.4 105.1 130.8 105.3Z" fill="#032F51"/>
<path d="M128.299 111.7C128.299 112.5 115.199 114.4 112.599 115.1C110.699 115.6 108.299 116.2 105.499 116.9C103.499 110.7 102.299 105.4 101.499 101.4C101.399 101.1 101.299 100.5 101.199 99.8003C104.499 106.3 108.199 109.1 111.299 110.4C113.199 111 128.399 110.5 128.299 111.7Z" fill="#597D39"/>
<path d="M111.1 91.3002C112.9 95.8002 112.7 101.1 114.2 102.4C114.6 102.8 130.6 105.3 131.9 106.4C131.4 107 131.6 110.4 131.4 111C131.3 110.9 118.9 113.7 116.9 113C115.6 112.6 105.2 112.3 101.2 99.6002C100.8 97.5002 100.3 93.8002 100 89.4002C99.4 80.8002 100.2 78.0002 100.9 76.3002C101.7 74.5002 102.6 73.1002 103.3 72.2002C104.6 72.7002 106.3 73.2002 108.3 73.7002C111.9 74.5002 115.4 75.3002 119 74.7002C123.2 74.0002 126.3 71.6002 128.4 69.5002C128.9 70.0002 129.5 70.6002 130 71.2002C131.9 73.6002 132.6 76.0002 132.9 77.3002C132.9 77.4002 132.9 77.4002 132.9 77.4002C132.8 77.2002 131.5 72.0002 138.9 94.5002C139.8 97.2002 152.5 96.9002 153.5 96.6002C153 97.7002 151.9 101.2 150 101.8C149.4 102 135.8 106.2 132.5 102.4C128.9 98.3002 127.4 93.6002 126.7 89.9002C126.5 92.7002 126.2 100.6 129.8 104.3C129.2 105.1 128.3 105.9 127.2 106.6C126.6 106.9 126.1 107.2 125.6 107.4C123.6 105.9 121.4 104.2 119.2 102.1C117.2 100.3 112.5 93.1002 111.1 91.3002Z" fill="#9FC43A"/>
<path d="M128.799 105.5C128.599 105.7 114.199 103 113.699 102.9C112.199 102.4 112.599 99.9002 113.699 98.5002C115.399 99.4002 125.099 104.1 128.799 105.5Z" fill="#597D39"/>
<path d="M160.8 80.8003L167.4 93.5003L157.3 121.9L147.9 108.8L160.8 80.8003Z" fill="#003C71"/>
<path d="M144.199 89.9003L134.199 119.3L157.299 122L167.399 93.5003C167.399 93.5003 146.999 89.0003 144.199 89.9003Z" fill="#26BED6"/>
<path d="M138.401 106.4C140.701 107.1 144.801 106.7 144.801 107.9C144.801 109.2 143.701 112.8 138.801 113.8C136.301 112.9 133.901 112 131.401 111.1C131.301 110.5 131.301 109.8 131.301 109C131.401 107.9 131.601 107 131.901 106.3H132.001C134.401 106.4 136.101 106.4 138.401 106.4Z" fill="#F3B88B"/>
<path d="M125.401 67.3001C126.201 67.8001 127.301 68.5001 128.401 69.5001C126.301 71.6001 123.201 74.0001 119.001 74.7001C115.401 75.3001 111.801 74.5001 108.301 73.7001C106.301 73.2001 104.601 72.7001 103.301 72.2001C103.801 71.5001 104.201 71.0001 104.101 70.8001C105.301 69.9001 106.501 69.1001 107.301 68.6001C110.401 66.7001 112.001 66.3001 112.501 66.2001C113.401 66.0001 114.101 65.9001 114.701 65.9001C114.001 67.8001 113.701 68.8001 114.201 69.6001C114.701 70.5001 116.001 70.7001 116.701 70.7001C118.401 70.7001 120.001 69.2001 121.001 66.9001C121.901 67.0001 122.701 66.9001 123.501 66.6001C123.601 66.5001 123.701 66.5001 123.801 66.4001C124.001 66.6001 124.201 66.8001 124.601 67.0001C124.801 67.1001 125.101 67.2001 125.401 67.3001C125.401 67.2001 125.401 67.3001 125.401 67.3001Z" fill="#9FC43A"/>
<path d="M113.901 73.3003C112.801 71.7003 111.801 70.3003 111.001 68.8003C109.701 66.4003 110.101 64.2003 111.601 62.5003C113.201 60.8003 116.201 60.2003 118.401 61.1003C121.701 62.5003 122.801 66.5003 120.501 69.4003C119.101 71.2003 117.201 72.5003 115.001 73.2003C113.001 73.9003 110.901 74.4003 108.801 74.7003C107.901 74.9003 107.501 75.3003 107.701 76.0003C108.201 77.4003 108.901 78.9003 109.701 80.2003C109.901 80.5003 110.701 80.7003 111.201 80.6003C116.101 79.8003 120.401 77.8003 123.801 74.1003C126.101 71.6003 126.901 68.6003 126.601 65.3003C126.201 60.9003 123.201 57.9003 118.401 57.0003C115.801 56.5003 113.101 56.7003 110.601 57.6003C106.601 59.1003 104.601 62.3003 104.901 66.5003C105.101 69.2003 106.201 71.5003 107.901 73.6003C108.101 73.9003 108.601 74.1003 109.001 74.1003C110.601 74.0003 112.201 73.7003 113.901 73.3003Z" fill="#003C71"/>
<path d="M117.7 79.8003C115.4 80.4003 113.2 81.0003 110.9 81.6003C110.3 88.1003 108.2 94.2003 105.1 100.1C105.2 100.2 105.3 100.3 105.5 100.5C105.8 100.3 106.3 100.1 106.5 99.8003C107 98.9003 107.3 97.9003 107.7 96.9003C107.8 96.6003 108.1 96.3003 108.4 96.1003C108.5 96.2003 108.7 96.2003 108.8 96.3003C108.3 97.7003 107.8 99.2003 107.3 100.6C107.4 100.7 107.5 100.8 107.6 100.9C107.9 100.7 108.3 100.5 108.5 100.2C109 99.2003 109.3 98.2003 109.7 97.2003C109.8 96.9003 110.1 96.7003 110.3 96.4003C110.5 96.5003 110.6 96.5003 110.8 96.6003C110 99.1003 109.3 101.6 108.5 104.1C108.6 104.2 108.7 104.3 108.8 104.4C109.1 104.1 109.5 103.9 109.6 103.6C110 102.6 110.3 101.5 110.7 100.4C110.8 100.1 111.2 99.9003 111.4 99.6003C111.5 99.7003 111.6 99.8003 111.7 99.9003C111.2 101.4 110.8 102.9 110.3 104.5C110.4 104.6 110.5 104.7 110.6 104.8C110.9 104.6 111.3 104.4 111.4 104.1C111.8 103 112.1 101.9 112.5 100.9C112.6 100.6 112.9 100.3 113.2 100C113.4 100.1 113.5 100.2 113.7 100.2C113.2 101.7 112.8 103.3 112.3 104.8C112.4 104.9 112.5 105 112.5 105.1C112.8 104.9 113.2 104.8 113.3 104.5C113.7 103.6 113.9 102.6 114.3 101.7C114.5 101.2 114.9 100.8 115.2 100.4C115.2 100.9 115.3 101.5 115.1 102C114.8 103.1 114.5 104.1 114.1 105.2C114.3 105.3 114.4 105.4 114.6 105.5C114.9 105.2 115.2 104.9 115.3 104.5C115.7 103.4 116 102.3 116.4 101.3C116.5 101 116.8 100.8 117 100.6C117.1 100.7 117.3 100.7 117.4 100.8C116.9 102.4 116.5 104 116 105.5C116.1 105.6 116.2 105.6 116.3 105.7C116.6 105.5 116.9 105.3 117 105C119.6 97.5003 120.4 89.8003 118.5 82.0003C118.2 81.0003 117.9 80.4003 117.7 79.8003Z" fill="#003C71"/>
<path d="M120.3 51.9002C118.1 56.3002 117 57.4002 116.5 57.2002C115.9 57.0002 116.2 54.9002 115.6 54.8002C115 54.7002 113.9 56.4002 114.1 57.9002C114.3 59.0002 115 59.1002 115.9 60.4002C116 60.6002 116.1 60.7002 116.2 60.9002C115.7 62.7002 115.2 64.2002 114.8 65.3002C114.7 65.5002 114.7 65.7002 114.6 65.9002C114 65.9002 113.2 66.0002 112.4 66.2002C111.9 66.3002 110.3 66.7002 107.2 68.6002C106.3 69.1002 105.2 69.9002 104 70.8002C103.9 70.7002 103.4 71.0002 103.1 71.2002C102.7 71.5002 102.4 71.7002 102.4 71.8002C101.7 72.5002 93.6999 77.6002 90.3999 79.8002C82.5999 85.1002 72.2999 83.5002 71.0999 83.3002C68.8999 82.9002 61.3999 81.5002 55.4999 74.8002C54.6999 73.9002 47.4999 65.3002 49.4999 54.4002C49.8999 52.2002 50.9999 46.5002 55.7999 43.0002C59.9999 39.9002 64.7999 40.1002 66.5999 40.2002C72.7999 40.4002 73.9999 43.3002 83.8999 45.9002C87.6999 46.9002 89.5999 47.4002 92.1999 47.3002C98.1999 47.0002 100.8 44.0002 105.8 42.1002C109.7 40.6002 118 38.1002 123.1 41.7002C124.8 42.9002 125.4 44.2002 128.5 46.0002C130.7 47.3002 132.2 47.6002 132.6 49.0002C132.9 49.8002 132.5 50.3002 131.9 53.3002C131.5 55.3002 131.5 55.5002 131.3 56.8002C130.8 59.2002 130.3 61.4002 128.9 63.6002C128.3 64.5002 127.2 66.0002 125.4 67.3002C125 67.3002 124.8 67.2002 124.7 67.1002C124.3 66.9002 124.1 66.7002 123.9 66.5002C124.5 66.1002 125 65.4002 126.5 62.9002C128.8 58.9002 130 56.9002 129.5 56.2002C128.8 55.1002 126.7 56.4002 124 55.4002C122.3 54.6002 121.1 53.2002 120.3 51.9002Z" fill="#935212"/>
<path d="M123.899 66.5002C123.799 66.6002 123.699 66.6002 123.599 66.7002C122.799 67.0002 121.999 67.1002 121.099 67.0002C119.899 66.8002 118.599 66.2002 117.899 65.3002C116.799 63.9002 117.399 62.8002 116.399 61.0002C116.299 60.8002 116.199 60.7002 116.099 60.5002C115.199 59.2002 114.499 59.1002 114.299 58.0002C113.999 56.5002 115.199 54.8002 115.799 54.9002C116.399 55.0002 116.099 57.1002 116.699 57.3002C117.199 57.5002 118.199 56.4002 120.499 52.0002C121.299 53.3002 122.499 54.7002 124.199 55.4002C126.899 56.4002 128.899 55.1002 129.699 56.2002C130.199 57.0002 129.099 59.0002 126.699 62.9002C125.099 65.4002 124.499 66.1002 123.899 66.5002Z" fill="#F0A87B"/>
<path d="M114.699 65.9001C114.799 65.7001 114.799 65.5001 114.899 65.3001C115.299 64.2001 115.799 62.7001 116.299 60.9001C117.399 62.8001 116.699 63.9001 117.799 65.2001C118.599 66.1001 119.799 66.7001 120.999 66.9001C119.999 69.2001 118.399 70.6001 116.699 70.7001C115.899 70.7001 114.699 70.5001 114.199 69.6001C113.699 68.8001 114.099 67.8001 114.699 65.9001Z" fill="#E4A576"/>
<path d="M127.7 13.8C125.3 12.8 123 12.9 120.5 14C120.6 13.8 120.7 13.7 120.8 13.6C122.5 10.9 124.5 8.40002 126.8 6.30002C128 5.20002 129.3 4.20002 130.7 3.50002C131.6 3.10002 132.5 2.70002 133.4 2.60002C134.9 2.40002 136.1 3.10002 136.7 4.50002C137.2 5.60002 137.2 6.80002 137.2 8.00002C137.1 10.5 136.5 12.9 135.7 15.2C135 17.2 134.1 19.2 133 21.1C133 21.2 132.9 21.3 132.8 21.4C132.7 20.2 132.4 19.1 131.9 18.1C131.4 17 130.7 16.1 129.7 15.3C129.6 15.4 129.6 15.5 129.5 15.6C126.7 20.3 123.9 25 121.1 29.6C120.1 31.3 118 32.1 116.1 31.5C114.2 31 112.9 29.2 112.9 27.3C112.9 26.5 113.1 25.8 113.5 25.1C113.7 24.7 113.9 24.4 114.1 24C114.5 23.4 115.2 23.2 115.8 23.5C116.4 23.9 116.6 24.6 116.2 25.3C116 25.6 115.8 25.9 115.6 26.3C115 27.3 115.3 28.4 116.2 28.9C117.1 29.4 118.3 29.1 118.8 28.2C121.1 24.3 123.5 20.4 125.8 16.5C126.2 15.8 126.7 15.1 127.1 14.3C127.6 14 127.6 13.9 127.7 13.8Z" fill="#9FC43A"/>
<path d="M144.8 26.1001C143.2 21.9001 138.3 19.9001 134 21.9001C134.1 21.8001 134.1 21.7001 134.2 21.6001C135.9 18.6001 137.2 15.4001 138 12.0001C138.4 10.3001 138.7 8.50015 138.6 6.80015C138.6 6.20015 138.4 5.50015 138.4 4.90015C141.2 7.30015 143.2 10.1001 144.4 13.5001C145.9 17.6001 146 21.9001 144.8 26.1001Z" fill="#9FC43A"/>
<path d="M119.5 13.2001C119.3 10.9001 118.5 9.00009 116.9 7.60009C115.2 6.10009 113.3 5.50009 111.1 5.70009C111.6 4.70009 115.7 2.10009 118.3 1.20009C123.2 -0.599905 128.4 -0.299905 132.5 1.30009C132.5 1.30009 132.5 1.40009 132.4 1.40009C130.5 1.90009 128.9 2.90009 127.4 4.10009C125.3 5.80009 123.5 7.70009 121.8 9.90009C121 10.9001 120.3 12.0001 119.6 13.0001C119.6 13.1001 119.6 13.1001 119.5 13.2001Z" fill="#9FC43A"/>
<path d="M38.5 100.5L28.5 84.4C28.5 84.4 24.1 79.5 19 82.6C21.5 86.7 29.4 99.4 29.4 99.4C29.4 99.4 34.5 96.7 38.5 100.5Z" fill="white"/>
<path d="M40.8984 100.7L30.3984 83.7C30.3984 83.7 30.8984 81.1 38.6984 76.8C40.4984 79.7 49.2984 93.8 49.2984 93.8C49.2984 93.8 42.8984 95.8 40.8984 100.7Z" fill="white"/>
<path d="M41.8992 78.8L43.5992 77.8L54.0992 94.8C54.0992 94.8 47.2992 99 46.4992 99.5C45.6992 100 44.3992 101.1 43.9992 103.1C42.8992 103.8 39.9992 105.6 39.9992 105.6C39.9992 105.6 37.9992 104.8 34.7992 106.8C31.5992 108.8 28.0992 111 28.0992 111L16.6992 92.6L18.3992 91.6L28.8992 108.6C28.8992 108.6 33.7992 105.5 34.6992 105C35.5992 104.4 37.3992 103.3 39.8992 103.9C40.9992 103.3 42.2992 102.4 42.2992 102.4C42.2992 102.4 42.6992 100 45.4992 98.2C48.2992 96.4 51.4992 94.5 51.4992 94.5L41.8992 78.8Z" fill="#26BED6"/>
<path d="M17.7988 87.6001L19.3988 86.6001L28.8988 101.9C28.8988 101.9 33.4988 97.5001 37.0988 101.7C35.0988 102.4 32.2988 103.8 29.2988 106.1C27.3988 103.1 17.7988 87.6001 17.7988 87.6001Z" fill="white"/>
<path d="M51.3001 7.30005C51.7001 8.00005 52.0001 8.40005 52.2001 9.00005C52.7001 10.9 53.3001 12.9 53.7001 14.9C54.3001 17.5 53.0001 19.4 51.0001 20.9C50.0001 21.6 48.9001 22.3 47.8001 23.1C48.6001 23.6 49.2001 24.1 49.9001 24.5C50.1001 24.6 50.5001 24.4 50.7001 24.3C52.9001 22.7 55.8001 22.8001 57.8001 24.7001C59.7001 26.5 60.0001 29.5 58.6001 31.7001C57.0001 34.3001 53.5001 34.9 50.9001 33.1C50.7001 33 50.5001 32.8 50.2001 32.6C49.1001 33.4 48.0001 34.1001 46.9001 34.9001C47.6001 37.0001 47.4001 39 45.9001 40.7001C44.4001 42.4001 42.5001 42.9 40.3001 42.3C38.1001 41.7001 36.8001 40.1001 36.4001 37.9001C36.1001 35.7001 36.8001 33.9 38.6001 32.6C39.3001 32.1 39.4001 31.7001 39.2001 31C39.0001 30.5 38.9001 29.9 38.8001 29.3C37.7001 30 36.8001 30.7 35.8001 31.4C35.1001 31.9 34.3001 32.3 33.5001 32.6C31.8001 33.2 30.2001 32.9 28.8001 31.8C25.8001 29.6 22.8001 27.3 19.8001 25.1C18.7001 24.3 17.7001 23.9001 16.4001 24.7001C15.8001 25 15.2001 24.9 14.9001 24.3C14.6001 23.7 14.7001 23.2 15.3001 22.8C16.7001 21.8 18.9001 21.7 20.4001 22.8C21.5001 23.6 22.7001 24.5 23.7001 25.4C24.3001 26 24.8001 26 25.5001 25.5C33.7001 19.7 41.9001 14 50.2001 8.30005C50.6001 7.90005 50.9001 7.60005 51.3001 7.30005ZM48.8001 30.9C48.8001 29.7 48.6001 28.6 48.8001 27.6C48.9001 26.8 48.8001 26.4 48.1001 26.1C47.3001 25.7 46.6001 24.8 45.8001 24.8C45.0001 24.8 44.3001 25.7001 43.5001 26.2001C42.7001 26.8001 41.5001 27.3 41.2001 28.1C40.9001 28.9 41.5001 30.1 41.7001 31.1C41.7001 31.2 41.7001 31.3 41.8001 31.4C41.9001 31.6 42.1001 31.7 42.3001 31.8C43.5001 32.2 44.6001 32.6 46.0001 33C46.8001 32.3 47.8001 31.5 48.8001 30.9Z" fill="#F79321"/>
<path d="M49.6008 5.70008C43.8008 9.70008 38.1008 13.7001 32.3008 17.7001C32.2008 17.5001 32.1008 17.3001 32.0008 17.0001C31.0008 13.5001 29.9008 9.90008 28.9008 6.40008C28.6008 5.20008 28.7008 5.00008 29.7008 4.30008C36.6008 -1.09992 45.0008 1.20008 49.6008 5.70008Z" fill="#F79321"/>
<path d="M183.101 35C184.701 35.1 186.101 35.9 186.801 37.5C187.201 38.3 187.601 38.5 188.401 38.3C189.601 38 190.901 37.8 192.201 37.6C193.601 37.4 194.501 38 194.701 39.1C194.901 40.2 194.201 41.2 192.801 41.5C191.601 41.8 190.301 42 189.001 42.2C188.201 42.3 187.801 42.7 188.001 43.6C188.301 44.6 188.301 45.6 188.601 46.6C188.701 46.9 189.301 47.3 189.701 47.3C190.701 47.3 191.601 47 192.601 46.9C193.701 46.7 194.501 47.1 195.101 48.1C196.301 50.1 197.601 52.1 198.901 54.1C199.301 54.7 199.601 55.2 200.401 55.1C200.701 55.1 201.401 55.5 201.501 55.8C201.601 56.1 201.401 56.8 201.101 57C200.301 57.6 199.501 58.2 198.601 58.7C197.801 59.2 197.301 58.7 196.901 58C195.801 56.3 194.701 54.7 193.701 53C193.201 52.1 192.601 51.8 191.601 52C189.201 52.5 186.901 52.9 184.501 53.3C182.601 53.7 181.601 53 181.201 51.1C180.501 47.4 179.801 43.8 179.201 40.1C178.501 37.4 180.401 35.1 183.101 35Z" fill="#26BED6"/>
<path d="M180.6 60.7001C184.1 60.7001 186.6 59.0001 188.2 56.0001C188.3 55.7001 188.5 55.4001 188.6 55.2001C188.9 54.4001 189.5 54.1001 190.3 54.4001C191.1 54.7001 191.1 55.4001 190.9 56.2001C190.2 58.1001 189.1 59.7001 187.5 61.0001C184 63.7001 180.1 64.2001 176.1 62.3001C172.1 60.4001 169.9 57.1001 169.8 52.6001C169.7 48.2001 171.7 44.8001 175.6 42.7001C175.9 42.5001 176.3 42.2001 176.7 42.3001C177.2 42.4001 178 42.6001 178.1 42.9001C178.2 43.3001 177.9 44.0001 177.6 44.5001C177.4 44.8001 176.9 44.9001 176.5 45.2001C173.2 47.2001 171.6 51.1001 172.6 54.8001C173.5 58.2001 176.7 60.7001 180.6 60.7001Z" fill="#26BED6"/>
<path d="M177.301 28.9001C177.301 25.8001 179.701 23.4001 182.701 23.5001C185.601 23.5001 188.101 26.0001 188.101 28.9001C188.101 31.8001 185.601 34.3001 182.801 34.4001C179.701 34.3001 177.301 31.9001 177.301 28.9001Z" fill="#26BED6"/>
</g>
<defs>
<clipPath id="clip0">
<rect width="281.3" height="234" fill="white"/>
</clipPath>
</defs>
</svg>
