<svg width="340" height="225" viewBox="0 0 340 225" fill="none" xmlns="http://www.w3.org/2000/svg">
<g clip-path="url(#clip0)">
<path d="M324.08 124.81C323.44 124.81 322.8 124.57 322.31 124.08C321.73 123.5 321.5 122.71 321.6 121.97C321.49 121.22 321.73 120.43 322.31 119.85C323.29 118.88 324.87 118.88 325.85 119.85L326.23 120.23C327.17 121.2 327.17 122.74 326.22 123.71L325.85 124.08C325.36 124.57 324.72 124.81 324.08 124.81Z" fill="white"/>
<path d="M169.841 195.55H169.271C167.891 195.54 166.781 194.42 166.781 193.04C166.791 191.67 167.901 190.56 169.281 190.56H169.291H169.821H170.271C171.651 190.56 172.771 191.68 172.771 193.05C172.771 194.42 171.651 195.54 170.271 195.54L169.841 195.55ZM180.161 195.21C178.861 195.21 177.761 194.2 177.671 192.88C177.581 191.51 178.621 190.32 179.991 190.22L180.971 190.15C182.341 190.05 183.541 191.09 183.641 192.46C183.741 193.83 182.701 195.03 181.321 195.13L180.321 195.2C180.271 195.21 180.221 195.21 180.161 195.21ZM159.401 195.2C159.341 195.2 159.281 195.2 159.231 195.19L158.231 195.12C156.851 195.02 155.821 193.83 155.911 192.45C156.011 191.08 157.201 190.06 158.581 190.14L159.561 190.21C160.941 190.3 161.981 191.49 161.881 192.87C161.801 194.19 160.701 195.2 159.401 195.2ZM190.991 194.13C189.751 194.13 188.681 193.22 188.511 191.96C188.331 190.59 189.291 189.34 190.661 189.16L191.621 189.03C192.981 188.84 194.251 189.79 194.441 191.15C194.631 192.51 193.681 193.78 192.311 193.97L191.311 194.11C191.211 194.12 191.101 194.13 190.991 194.13ZM148.561 194.12C148.451 194.12 148.341 194.11 148.221 194.1L147.221 193.96C145.851 193.77 144.901 192.51 145.091 191.14C145.281 189.77 146.551 188.83 147.911 189.02L148.871 189.15C150.241 189.33 151.201 190.59 151.011 191.95C150.871 193.21 149.801 194.12 148.561 194.12ZM201.731 192.35C200.561 192.35 199.511 191.52 199.281 190.33C199.011 188.98 199.901 187.67 201.251 187.4L202.211 187.21C203.561 186.93 204.881 187.81 205.161 189.16C205.441 190.51 204.561 191.83 203.211 192.1L202.221 192.3C202.051 192.34 201.891 192.35 201.731 192.35ZM137.821 192.33C137.661 192.33 137.491 192.31 137.331 192.28L136.341 192.08C134.991 191.8 134.121 190.48 134.391 189.13C134.671 187.78 135.991 186.91 137.341 187.19L138.301 187.38C139.651 187.65 140.531 188.96 140.261 190.31C140.041 191.51 138.991 192.33 137.821 192.33ZM212.341 189.92C211.231 189.92 210.221 189.18 209.921 188.05C209.571 186.72 210.381 185.35 211.711 185.01L212.651 184.76C213.981 184.4 215.351 185.19 215.711 186.53C216.071 187.86 215.271 189.23 213.941 189.58L212.971 189.84C212.761 189.9 212.551 189.92 212.341 189.92ZM127.211 189.9C127.001 189.9 126.791 189.87 126.581 189.82L125.611 189.56C124.281 189.21 123.481 187.84 123.841 186.51C124.201 185.18 125.571 184.39 126.901 184.74L127.841 184.99C129.181 185.34 129.981 186.7 129.631 188.03C129.341 189.16 128.321 189.9 127.211 189.9ZM222.801 186.89C221.741 186.89 220.761 186.21 220.421 185.16C220.001 183.85 220.721 182.44 222.041 182.02L222.971 181.72C224.281 181.29 225.691 182.01 226.121 183.32C226.551 184.63 225.831 186.04 224.521 186.47L223.561 186.78C223.311 186.86 223.061 186.89 222.801 186.89ZM116.751 186.87C116.501 186.87 116.241 186.83 115.991 186.75L115.031 186.44C113.721 186.01 113.001 184.6 113.431 183.29C113.861 181.98 115.271 181.26 116.581 181.69L117.511 181.99C118.831 182.41 119.551 183.81 119.131 185.13C118.801 186.19 117.811 186.87 116.751 186.87ZM233.081 183.31C232.071 183.31 231.121 182.7 230.741 181.7C230.251 180.41 230.901 178.97 232.191 178.48L233.101 178.13C234.391 177.63 235.841 178.28 236.331 179.56C236.821 180.84 236.181 182.29 234.891 182.78L233.951 183.14C233.681 183.26 233.381 183.31 233.081 183.31ZM106.471 183.28C106.171 183.28 105.871 183.23 105.581 183.12L104.651 182.77C103.361 182.28 102.721 180.83 103.211 179.55C103.701 178.27 105.151 177.62 106.441 178.12L107.361 178.47C108.651 178.96 109.301 180.4 108.811 181.69C108.431 182.66 107.481 183.28 106.471 183.28ZM243.181 179.21C242.221 179.21 241.301 178.65 240.891 177.71C240.341 176.45 240.921 174.98 242.181 174.43L243.081 174.04C244.341 173.48 245.821 174.06 246.371 175.32C246.931 176.58 246.351 178.05 245.091 178.61L244.171 179.01C243.851 179.15 243.511 179.21 243.181 179.21ZM96.3809 179.18C96.0509 179.18 95.7109 179.11 95.3809 178.97L94.4609 178.57C93.2009 178.02 92.6209 176.54 93.1809 175.28C93.7409 174.02 95.2109 173.44 96.4709 174L97.3709 174.39C98.6409 174.94 99.2209 176.41 98.6609 177.67C98.2709 178.62 97.3509 179.18 96.3809 179.18ZM253.071 174.65C252.151 174.65 251.261 174.14 250.821 173.25C250.211 172.01 250.731 170.52 251.961 169.91L252.841 169.48C254.081 168.87 255.581 169.37 256.191 170.6C256.801 171.83 256.301 173.33 255.061 173.94L254.161 174.38C253.811 174.57 253.431 174.65 253.071 174.65ZM86.5009 174.61C86.1309 174.61 85.7609 174.53 85.4009 174.35L84.5009 173.91C83.2609 173.3 82.7609 171.8 83.3709 170.57C83.9809 169.34 85.4809 168.83 86.7209 169.44L87.6009 169.87C88.8409 170.48 89.3509 171.97 88.7409 173.21C88.3109 174.1 87.4209 174.61 86.5009 174.61ZM262.741 169.66C261.861 169.66 261.001 169.19 260.541 168.36C259.881 167.15 260.321 165.64 261.531 164.97L262.401 164.5C263.611 163.84 265.131 164.28 265.791 165.49C266.451 166.7 266.011 168.21 264.801 168.88L263.931 169.35C263.561 169.56 263.151 169.66 262.741 169.66ZM76.8209 169.62C76.4109 169.62 76.0009 169.52 75.6209 169.31L74.7509 168.84C73.5409 168.18 73.0909 166.66 73.7609 165.45C74.4209 164.24 75.9409 163.8 77.1509 164.46L78.0209 164.93C79.2309 165.59 79.6809 167.11 79.0209 168.31C78.5609 169.15 77.7009 169.62 76.8209 169.62ZM272.211 164.28C271.361 164.28 270.531 163.84 270.061 163.06C269.351 161.88 269.741 160.34 270.931 159.64L271.771 159.14C272.951 158.43 274.491 158.81 275.201 159.99C275.911 161.17 275.531 162.7 274.351 163.41L273.491 163.92C273.081 164.17 272.641 164.28 272.211 164.28ZM67.3509 164.23C66.9109 164.23 66.4709 164.12 66.0709 163.88L65.2209 163.37C64.0409 162.66 63.6509 161.13 64.3609 159.95C65.0709 158.77 66.6109 158.39 67.7909 159.1L68.6309 159.6C69.8109 160.31 70.2009 161.84 69.4909 163.02C69.0309 163.8 68.2009 164.23 67.3509 164.23ZM281.451 158.53C280.631 158.53 279.831 158.13 279.351 157.39C278.601 156.23 278.931 154.69 280.091 153.94L280.911 153.41C282.061 152.66 283.611 152.97 284.371 154.13C285.131 155.28 284.811 156.83 283.651 157.58L282.811 158.13C282.391 158.4 281.921 158.53 281.451 158.53ZM58.1109 158.47C57.6409 158.47 57.1709 158.34 56.7509 158.07L55.9209 157.53C54.7609 156.78 54.4409 155.23 55.1909 154.08C55.9409 152.93 57.4909 152.6 58.6509 153.35L59.4809 153.89C60.6409 154.64 60.9609 156.19 60.2109 157.34C59.7309 158.08 58.9209 158.47 58.1109 158.47ZM290.481 152.43C289.691 152.43 288.921 152.06 288.431 151.37C287.641 150.24 287.911 148.69 289.031 147.89L289.831 147.32C290.961 146.52 292.521 146.79 293.321 147.91C294.121 149.03 293.851 150.59 292.731 151.39L291.911 151.96C291.481 152.29 290.981 152.43 290.481 152.43ZM49.0809 152.38C48.5809 152.38 48.0809 152.23 47.6409 151.92L46.8209 151.35C45.6909 150.55 45.4309 149 46.2309 147.87C47.0309 146.74 48.5909 146.48 49.7209 147.28L50.5209 147.85C51.6509 148.64 51.9209 150.2 51.1209 151.33C50.6409 152.01 49.8709 152.38 49.0809 152.38ZM299.271 146.02C298.511 146.02 297.771 145.68 297.271 145.03C296.441 143.93 296.651 142.37 297.761 141.54L298.541 140.95C299.641 140.11 301.211 140.32 302.041 141.42C302.881 142.51 302.671 144.08 301.571 144.92L300.771 145.53C300.331 145.85 299.801 146.02 299.271 146.02ZM40.2909 145.95C39.7609 145.95 39.2309 145.78 38.7809 145.44L37.9809 144.83C36.8809 143.99 36.6809 142.43 37.5209 141.33C38.3609 140.24 39.9309 140.03 41.0209 140.87L41.8009 141.46C42.9009 142.29 43.1109 143.86 42.2809 144.96C41.7909 145.62 41.0409 145.95 40.2909 145.95ZM307.831 139.28C307.111 139.28 306.391 138.97 305.891 138.36C305.011 137.29 305.171 135.72 306.241 134.85L307.001 134.23C308.061 133.35 309.641 133.5 310.521 134.57C311.401 135.63 311.251 137.21 310.181 138.08L309.411 138.71C308.951 139.1 308.391 139.28 307.831 139.28ZM31.7309 139.22C31.1709 139.22 30.6109 139.04 30.1509 138.66L29.3809 138.03C28.3109 137.15 28.1609 135.58 29.0409 134.52C29.9209 133.45 31.4909 133.3 32.5609 134.18L33.3209 134.8C34.3909 135.67 34.5509 137.24 33.6709 138.31C33.1709 138.91 32.4609 139.22 31.7309 139.22ZM316.131 132.23C315.441 132.23 314.751 131.95 314.261 131.39C313.351 130.36 313.441 128.78 314.481 127.87L315.211 127.22C316.241 126.3 317.821 126.39 318.741 127.42C319.661 128.45 319.571 130.02 318.541 130.94L317.791 131.61C317.311 132.02 316.721 132.23 316.131 132.23ZM23.4409 132.16C22.8509 132.16 22.2609 131.95 21.7809 131.53L21.0309 130.86C20.0009 129.94 19.9209 128.36 20.8409 127.34C21.7609 126.31 23.3409 126.23 24.3709 127.15L25.1009 127.8C26.1309 128.72 26.2309 130.29 25.3109 131.32C24.8109 131.87 24.1209 132.16 23.4409 132.16Z" fill="white"/>
<path d="M15.561 124.81C14.921 124.81 14.281 124.57 13.791 124.08L13.421 123.71C12.481 122.74 12.471 121.2 13.411 120.23L13.791 119.85C14.771 118.88 16.351 118.88 17.331 119.85C17.911 120.43 18.141 121.22 18.041 121.97C18.151 122.72 17.911 123.51 17.331 124.08C16.841 124.57 16.201 124.81 15.561 124.81Z" fill="white"/>
<path d="M316.95 117.42C316.35 117.42 315.76 117.21 315.28 116.78L314.55 116.13C313.52 115.21 313.42 113.64 314.34 112.61C315.26 111.58 316.84 111.49 317.87 112.4L318.62 113.07C319.65 113.99 319.73 115.57 318.81 116.59C318.31 117.14 317.63 117.42 316.95 117.42ZM22.7804 117.35C22.0904 117.35 21.4104 117.07 20.9204 116.52C20.0004 115.49 20.0904 113.92 21.1204 113L21.8704 112.33C22.9004 111.42 24.4804 111.51 25.4004 112.55C26.3104 113.58 26.2204 115.16 25.1804 116.07L24.4504 116.72C23.9604 117.14 23.3704 117.35 22.7804 117.35ZM308.68 110.33C308.12 110.33 307.56 110.14 307.09 109.76L306.33 109.14C305.26 108.27 305.1 106.7 305.98 105.63C306.86 104.56 308.43 104.41 309.5 105.28L310.27 105.91C311.34 106.79 311.49 108.36 310.61 109.42C310.11 110.02 309.4 110.33 308.68 110.33ZM31.0504 110.26C30.3304 110.26 29.6204 109.95 29.1204 109.35C28.2404 108.29 28.3904 106.71 29.4604 105.84L30.2304 105.21C31.3004 104.34 32.8704 104.49 33.7504 105.56C34.6304 106.63 34.4704 108.2 33.4004 109.07L32.6404 109.69C32.1804 110.08 31.6104 110.26 31.0504 110.26ZM300.14 103.56C299.61 103.56 299.07 103.39 298.62 103.04L297.84 102.45C296.74 101.62 296.53 100.05 297.36 98.9499C298.2 97.8499 299.76 97.6399 300.86 98.4699L301.66 99.0799C302.76 99.9199 302.96 101.48 302.12 102.58C301.63 103.23 300.89 103.56 300.14 103.56ZM39.5904 103.5C38.8404 103.5 38.0904 103.16 37.6004 102.52C36.7604 101.43 36.9704 99.8599 38.0704 99.0199L38.8704 98.4099C39.9704 97.5799 41.5404 97.7999 42.3704 98.8999C43.2004 99.9999 42.9904 101.56 41.8804 102.39L41.1004 102.98C40.6504 103.33 40.1204 103.5 39.5904 103.5ZM291.36 97.1099C290.86 97.1099 290.36 96.9599 289.92 96.6499L289.12 96.0799C287.99 95.2899 287.72 93.7299 288.52 92.5999C289.31 91.4699 290.87 91.1999 292 91.9999L292.82 92.5699C293.95 93.3699 294.21 94.9199 293.41 96.0499C292.92 96.7499 292.15 97.1099 291.36 97.1099ZM48.3604 97.0499C47.5804 97.0499 46.8104 96.6799 46.3204 95.9999C45.5204 94.8799 45.7904 93.3199 46.9104 92.5199L47.7304 91.9499C48.8604 91.1499 50.4204 91.4299 51.2104 92.5499C52.0004 93.6799 51.7304 95.2299 50.6104 96.0299L49.8104 96.5999C49.3704 96.9099 48.8604 97.0499 48.3604 97.0499ZM282.36 90.9799C281.89 90.9799 281.42 90.8499 281 90.5699L280.17 90.0299C279.01 89.2799 278.69 87.7299 279.44 86.5799C280.19 85.4199 281.74 85.0999 282.9 85.8499L283.73 86.3899C284.89 87.1399 285.21 88.6899 284.46 89.8399C283.98 90.5899 283.18 90.9799 282.36 90.9799ZM57.3704 90.9299C56.5604 90.9299 55.7604 90.5299 55.2804 89.7999C54.5204 88.6499 54.8404 87.0999 56.0004 86.3499L56.8404 85.7999C58.0004 85.0499 59.5504 85.3799 60.3004 86.5399C61.0504 87.6999 60.7204 89.2399 59.5604 89.9899L58.7404 90.5199C58.3104 90.7999 57.8404 90.9299 57.3704 90.9299ZM273.14 85.1999C272.7 85.1999 272.26 85.0899 271.85 84.8399L271.01 84.3299C269.83 83.6199 269.44 82.0899 270.15 80.9099C270.86 79.7299 272.39 79.3399 273.58 80.0499L274.43 80.5599C275.61 81.2699 276 82.7999 275.29 83.9799C274.81 84.7699 273.98 85.1999 273.14 85.1999ZM66.5904 85.1499C65.7404 85.1499 64.9204 84.7199 64.4504 83.9399C63.7404 82.7599 64.1204 81.2299 65.3004 80.5199L66.1604 79.9999C67.3504 79.2999 68.8804 79.6799 69.5904 80.8699C70.3004 82.0499 69.9104 83.5899 68.7204 84.2899L67.8804 84.7899C67.4804 85.0299 67.0304 85.1499 66.5904 85.1499ZM263.69 79.7799C263.28 79.7799 262.87 79.6799 262.49 79.4699L261.63 78.9999C260.42 78.3399 259.97 76.8199 260.63 75.6199C261.29 74.4099 262.81 73.9699 264.02 74.6299L264.89 75.0999C266.1 75.7599 266.55 77.2799 265.88 78.4899C265.43 79.3099 264.58 79.7799 263.69 79.7799ZM76.0404 79.7299C75.1604 79.7299 74.3004 79.2599 73.8404 78.4299C73.1804 77.2199 73.6204 75.7099 74.8304 75.0399L75.7004 74.5699C76.9104 73.9099 78.4304 74.3499 79.0904 75.5599C79.7504 76.7699 79.3104 78.2799 78.1004 78.9499L77.2304 79.4199C76.8605 79.6299 76.4404 79.7299 76.0404 79.7299ZM254.03 74.7499C253.66 74.7499 253.28 74.6699 252.92 74.4899L252.04 74.0599C250.8 73.4499 250.29 71.9599 250.9 70.7199C251.51 69.4799 253 68.9699 254.25 69.5799L255.15 70.0199C256.39 70.6299 256.89 72.1299 256.28 73.3599C255.84 74.2399 254.95 74.7499 254.03 74.7499ZM85.7004 74.6999C84.7804 74.6999 83.9004 74.1899 83.4604 73.3099C82.8504 72.0799 83.3504 70.5799 84.5904 69.9699L85.4904 69.5299C86.7304 68.9299 88.2304 69.4399 88.8404 70.6699C89.4504 71.9099 88.9304 73.3999 87.7004 74.0099L86.8204 74.4399C86.4504 74.6199 86.0704 74.6999 85.7004 74.6999ZM244.17 70.1399C243.83 70.1399 243.49 70.0699 243.16 69.9299L242.26 69.5399C240.99 68.9899 240.41 67.5199 240.97 66.2599C241.52 64.9899 243 64.4199 244.26 64.9699L245.18 65.3699C246.44 65.9199 247.02 67.3999 246.46 68.6599C246.04 69.5799 245.13 70.1399 244.17 70.1399ZM95.5604 70.0999C94.6004 70.0999 93.6804 69.5399 93.2704 68.6099C92.7104 67.3499 93.2904 65.8799 94.5504 65.3199L95.4704 64.9199C96.7404 64.3699 98.2104 64.9499 98.7604 66.2099C99.3104 67.4699 98.7304 68.9399 97.4704 69.4899L96.5704 69.8799C96.2404 70.0299 95.9004 70.0999 95.5604 70.0999ZM234.1 65.9999C233.8 65.9999 233.49 65.9499 233.2 65.8299L232.29 65.4799C231 64.9899 230.35 63.5499 230.84 62.2599C231.33 60.9699 232.78 60.3199 234.06 60.8099L235 61.1699C236.29 61.6699 236.93 63.1099 236.43 64.3999C236.04 65.3899 235.1 65.9999 234.1 65.9999ZM105.64 65.9599C104.64 65.9599 103.69 65.3499 103.31 64.3599C102.81 63.0699 103.46 61.6299 104.75 61.1399L105.69 60.7799C106.98 60.2899 108.42 60.9399 108.91 62.2299C109.4 63.5199 108.75 64.9599 107.46 65.4499L106.55 65.7999C106.24 65.9099 105.93 65.9599 105.64 65.9599ZM223.83 62.3599C223.57 62.3599 223.31 62.3199 223.05 62.2399L222.12 61.9399C220.8 61.5199 220.08 60.1199 220.5 58.7999C220.92 57.4899 222.33 56.7699 223.64 57.1799L224.6 57.4899C225.91 57.9199 226.63 59.3299 226.2 60.6399C225.86 61.6899 224.89 62.3599 223.83 62.3599ZM115.9 62.3299C114.85 62.3299 113.87 61.6599 113.52 60.6099C113.09 59.2999 113.81 57.8899 115.12 57.4599L116.08 57.1499C117.39 56.7299 118.8 57.4499 119.22 58.7599C119.64 60.0699 118.92 61.4799 117.6 61.8999L116.67 62.1999C116.42 62.2899 116.16 62.3299 115.9 62.3299ZM213.39 59.2699C213.18 59.2699 212.96 59.2399 212.75 59.1899L211.81 58.9399C210.47 58.5899 209.67 57.2299 210.02 55.8999C210.37 54.5699 211.73 53.7699 213.07 54.1099L214.04 54.3699C215.37 54.7199 216.17 56.0899 215.81 57.4199C215.51 58.5299 214.5 59.2699 213.39 59.2699ZM126.34 59.2499C125.24 59.2499 124.22 58.5099 123.93 57.3999C123.57 56.0699 124.37 54.6999 125.7 54.3499L126.67 54.0899C128.01 53.7499 129.37 54.5399 129.72 55.8799C130.07 57.2099 129.26 58.5799 127.93 58.9199L126.99 59.1699C126.77 59.2199 126.55 59.2499 126.34 59.2499ZM202.8 56.7799C202.63 56.7799 202.46 56.7599 202.29 56.7299L201.33 56.5399C199.98 56.2699 199.1 54.9599 199.37 53.6099C199.64 52.2599 200.96 51.3899 202.31 51.6499L203.3 51.8499C204.65 52.1299 205.52 53.4499 205.25 54.7999C205 55.9699 203.96 56.7799 202.8 56.7799ZM136.94 56.7599C135.77 56.7599 134.73 55.9399 134.49 54.7599C134.22 53.4099 135.09 52.0899 136.44 51.8199L137.43 51.6199C138.79 51.3499 140.1 52.2399 140.36 53.5899C140.63 54.9399 139.74 56.2499 138.39 56.5199L137.43 56.7099C137.27 56.7499 137.1 56.7599 136.94 56.7599ZM192.07 54.9399C191.95 54.9399 191.84 54.9299 191.72 54.9199L190.76 54.7899C189.39 54.6099 188.43 53.3499 188.62 51.9899C188.8 50.6299 190.05 49.6599 191.43 49.8499L192.43 49.9899C193.8 50.1799 194.75 51.4399 194.56 52.8099C194.36 54.0399 193.29 54.9399 192.07 54.9399ZM147.67 54.9199C146.44 54.9199 145.37 54.0199 145.2 52.7699C145.01 51.4099 145.96 50.1399 147.33 49.9499L148.33 49.8099C149.7 49.6299 150.95 50.5899 151.13 51.9599C151.31 53.3299 150.35 54.5799 148.98 54.7599L148.02 54.8899C147.9 54.9199 147.78 54.9199 147.67 54.9199ZM181.24 53.7899C181.18 53.7899 181.12 53.7899 181.06 53.7799L180.08 53.7099C178.7 53.6199 177.66 52.4299 177.76 51.0499C177.85 49.6699 179.05 48.6399 180.42 48.7299L181.42 48.7999C182.8 48.8999 183.83 50.0899 183.74 51.4699C183.64 52.7799 182.54 53.7899 181.24 53.7899ZM158.49 53.7799C157.19 53.7799 156.09 52.7799 156 51.4599C155.9 50.0899 156.94 48.8899 158.32 48.7899L159.32 48.7199C160.68 48.6399 161.89 49.6599 161.98 51.0399C162.07 52.4099 161.03 53.5999 159.66 53.6999L158.68 53.7699C158.61 53.7799 158.55 53.7799 158.49 53.7799ZM169.37 53.3699C167.99 53.3699 166.87 52.2499 166.87 50.8799C166.87 49.4999 167.99 48.3899 169.37 48.3899H169.8H170.37C171.75 48.3999 172.86 49.5199 172.86 50.8999C172.85 52.2699 171.74 53.3799 170.36 53.3799H170.35H169.82L169.37 53.3699Z" fill="white"/>
<path d="M112.35 164.03L271.02 163.26L147.94 182.85L112.35 164.03Z" fill="#26BED6"/>
<path d="M147.939 182.85L159.049 223.92L271.019 163.26L147.939 182.85Z" fill="#003C71"/>
<path d="M159.049 223.92L247.119 192.79L269.829 163.74L179.819 201.29L159.049 223.92Z" fill="#022B49"/>
<path d="M221.05 225L180 201.54L271.02 163.26L221.05 225Z" fill="#26BED6"/>
<path d="M185.899 38.5901L85.8691 70.0901L179.389 71.3301L185.899 38.5901Z" fill="#022B49"/>
<path d="M175.739 86.73L213.099 59.03L85.8691 70.09L175.739 86.73Z" fill="#022B49"/>
<path d="M195.609 45.4402L234.549 74.7102L85.8691 70.0902L195.609 45.4402Z" fill="#26BED6"/>
<path d="M164.969 22.6001L185.899 38.5901L85.8691 70.0901L164.969 22.6001Z" fill="#26BED6"/>
<path d="M183.937 55.0681C191.801 54.0853 197.968 51.6271 197.712 49.5774C197.456 47.5278 190.873 46.6629 183.009 47.6456C175.145 48.6284 168.977 51.0866 169.233 53.1362C169.489 55.1859 176.072 56.0508 183.937 55.0681Z" fill="#157E89"/>
<path d="M125.18 63.0701C123.96 63.6401 122.66 64.7401 122.86 65.3001C123.06 65.8501 124.59 65.6101 129.14 65.7301C130.87 65.7701 131.76 65.8401 132.19 65.9201C132.88 65.6801 133.62 65.3301 134.37 64.8301C135.38 64.1501 136.11 63.3701 136.62 62.7001C136.21 62.6501 135.78 62.5501 135.33 62.3901C134.47 62.0701 133.79 61.5901 133.26 61.0601C132 61.7601 130.88 62.1101 130.01 62.2901C127.82 62.7501 126.84 62.2901 125.18 63.0701Z" fill="#ABE8EF"/>
<path d="M128.471 67.6399C128.481 68.2499 131.841 68.0299 137.731 69.3099C140.261 69.8599 141.561 70.3099 142.471 69.5399C143.471 68.6999 142.941 67.2499 143.221 64.9299C143.241 64.7599 143.261 64.5899 143.291 64.4299C142.511 64.8099 141.371 65.1399 140.091 64.7999C138.621 64.4099 137.811 63.3599 137.561 63.0099C137.571 62.9199 137.591 62.8299 137.601 62.7299C137.301 62.7399 136.961 62.7299 136.601 62.6899C136.091 63.3599 135.361 64.1399 134.351 64.8199C133.601 65.3199 132.861 65.6699 132.171 65.9099C132.421 65.9599 132.521 66.0199 132.521 66.0799C132.591 66.5199 128.461 66.9599 128.471 67.6399Z" fill="#ABE8EF"/>
<path d="M170.63 35.5101C170.57 35.4301 152.1 34.8301 149.21 35.7801C148.45 36.0601 147.66 36.4101 146.85 36.8301C140.76 40.0201 137.99 45.3501 137.17 46.9801C136.2 48.9201 135.77 50.8201 134.83 54.4301C134.13 57.1101 133.69 59.3701 133.41 60.9601C133.35 60.9901 133.3 61.0201 133.24 61.0501C133.77 61.5701 134.45 62.0601 135.31 62.3801C135.76 62.5501 136.2 62.6401 136.6 62.6901C136.89 62.3101 137.11 61.9601 137.27 61.6901L137.75 61.7701C137.97 60.4501 138.31 58.8201 138.86 57.0001C139.82 53.8101 141.4 48.5301 145.9 43.9001C147.1 42.6601 175.22 42.5401 177.42 39.9301C176.62 38.7901 171.44 36.6401 170.63 35.5101Z" fill="#032F51"/>
<path d="M137.279 61.6899C137.119 61.9599 136.899 62.3099 136.609 62.6899C136.969 62.7399 137.299 62.7399 137.609 62.7299C137.649 62.4299 137.699 62.1099 137.759 61.7699L137.279 61.6899Z" fill="#073F61"/>
<path d="M137.61 62.73C137.6 62.83 137.58 62.92 137.57 63.01C137.82 63.36 138.63 64.4 140.1 64.8C141.38 65.14 142.52 64.81 143.3 64.43C143.69 62.06 144.78 60.36 146.59 57.55C148.9 53.96 150.28 51.81 152.85 50.58C153.81 50.12 155.79 49.37 164.18 50.88C170.76 52.07 171.82 54.24 175.74 53.68C176.87 53.52 180.33 53.02 182.48 50.03C184.76 46.86 183.96 43.16 183.8 42.5C183.86 42.31 183.93 42.12 183.99 41.94C182.36 41.57 180.97 41.22 179.86 40.93C178.38 40.54 177.42 40.26 177.4 39.81C177.08 40.01 176.76 40.21 176.44 40.4C176.55 39.94 154.57 38.37 151.81 39.41C149.03 40.95 147.11 42.66 145.91 43.9C141.4 48.54 139.82 53.81 138.87 57C138.32 58.82 137.98 60.45 137.76 61.77C137.7 62.11 137.65 62.44 137.61 62.73Z" fill="#003C71"/>
<path d="M183.99 41.9301C183.99 41.9301 184.37 29.8901 185.05 27.4201C186.37 22.6501 186.21 21.0001 186.01 19.9901C185.79 18.8701 185.41 18.0001 185.15 17.4101C184.39 17.5201 183.38 17.6401 182.21 17.6701C180.15 17.7301 178.11 17.8001 176.17 17.0501C173.94 16.1901 172.69 14.4901 171.78 13.0801C171.43 13.3001 170.85 13.5601 170.49 13.8701C169.16 15.0201 168.52 16.3001 168.18 16.9801C168.17 17.0101 168.16 17.0201 168.16 17.0301C168.21 16.9201 169.56 14.1401 162.93 25.9801C162.14 27.3901 158.98 33.3001 156.71 35.2501C156.48 35.4501 160.85 35.2401 160.98 35.2501C161.81 34.8701 163.37 32.9301 165.59 31.2001C168.03 29.3001 169.41 26.8401 170.23 24.8201C170.02 26.4001 170.05 35.4801 170.05 35.4801C170.05 35.4801 172.71 40.1201 174.71 40.9901C176.38 41.7001 183.99 41.9301 183.99 41.9301Z" fill="#F79321"/>
<path d="M193.34 50.8201C194 50.7301 198.66 51.1401 199.06 50.6001C199.51 50.0001 196.7 48.0801 195.87 47.4101C194.69 46.4601 193.19 46.5101 191.76 46.0401C191.5 46.2701 190.86 44.9801 190.6 45.3601C190.25 45.8601 188.99 46.3001 188.85 46.7301C188.87 46.7401 190.13 48.3401 190.16 48.3501C191.22 49.1701 192.01 51.0001 193.34 50.8201Z" fill="#F3B88B"/>
<path d="M174.68 12.0399C174.73 12.0999 174.79 12.1399 174.85 12.1899C175.23 12.4699 175.71 12.6399 176.21 12.6799C176.93 12.7499 177.69 12.5799 178.24 12.1799C179.07 11.5699 178.84 10.8599 179.7 9.96992C179.78 9.88992 179.86 9.80992 179.96 9.72992C180.64 9.14992 181.07 9.14992 181.32 8.57992C181.67 7.75992 181.25 6.67992 180.93 6.65992C180.58 6.63992 180.46 7.85992 180.07 7.88992C179.77 7.90992 179.33 7.17992 178.69 4.41992C178.08 5.02992 177.23 5.63992 176.14 5.78992C174.51 5.99992 173.52 4.99992 172.96 5.48992C172.56 5.83992 172.93 7.11992 173.69 9.65992C174.19 11.2699 174.41 11.7599 174.68 12.0399Z" fill="#F0A87B"/>
<path d="M173.74 12.27C173.22 12.42 172.51 12.67 171.75 13.09C172.62 14.56 174.06 16.34 176.3 17.31C178.25 18.16 180.34 18.19 182.44 18.22C183.64 18.24 184.67 18.17 185.45 18.1C185.25 17.61 185.12 17.31 185.21 17.21C184.64 16.52 184.12 15.96 183.69 15.53C182.2 14.02 181.37 13.58 181.11 13.45C180.66 13.22 180.25 13.07 179.92 12.97C180.03 14.12 180.08 14.71 179.68 15.1C179.25 15.52 178.54 15.49 178.11 15.37C177.18 15.11 176.47 14.08 176.21 12.67C175.71 12.62 175.23 12.46 174.85 12.18C174.79 12.14 174.73 12.09 174.68 12.03C174.56 12.11 174.38 12.2 174.16 12.24C174.09 12.25 173.92 12.28 173.72 12.24C173.72 12.26 173.73 12.26 173.74 12.27Z" fill="#F79321"/>
<path d="M179.92 12.97C179.91 12.85 179.9 12.72 179.89 12.59C179.83 11.93 179.76 11.04 179.72 9.96997C178.85 10.86 179.08 11.57 178.26 12.18C177.71 12.58 176.95 12.75 176.23 12.68C176.48 14.09 177.19 15.12 178.13 15.38C178.56 15.5 179.27 15.52 179.7 15.11C180.08 14.71 180.03 14.12 179.92 12.97Z" fill="#E4A576"/>
<path d="M180.88 0.239977C182.2 0.369977 182.74 2.27998 182.83 2.56998C183.14 3.64998 182.94 4.57998 182.8 5.20998C182.48 6.54998 181.8 8.74998 180.27 11.5C180.32 11.6 180.37 11.7 180.41 11.79C180.14 11.74 179.87 11.65 179.61 11.49C178.82 11 178.39 10.09 178.38 9.29998C178.37 8.32998 179.01 7.80998 178.67 7.18998C178.51 6.90998 178.18 6.64998 177.95 6.71998C177.53 6.84998 177.78 8.01998 177.14 8.41998C176.92 8.54998 176.69 8.55998 176.54 8.53998C176.69 7.43998 176.17 6.37998 175.25 5.88998C174.5 5.48998 173.75 5.58998 173.28 5.72998C172.83 5.50998 172.07 5.02998 171.77 4.12998C171.27 2.60998 172.56 1.28998 172.87 0.979977C173.13 0.709978 174 -0.180023 174.86 0.0199775C175.45 0.149977 175.46 0.659977 176.04 0.759977C176.84 0.899977 177.26 0.0199775 178.03 0.129977C178.32 0.169977 178.72 0.359978 179.14 1.06998C179.33 0.879978 180.02 0.159977 180.88 0.239977Z" fill="#542535"/>
<path d="M186.001 19.99L191.821 46.08C191.821 46.08 189.601 46.01 188.911 46.75C188.221 47.5 183.151 28.57 182.991 27.5C182.841 26.43 181.391 17.8 186.001 19.99Z" fill="#F79321"/>
<path d="M182.311 23.74C182.311 23.74 177.861 37.8 178.101 41.57C181.031 41.93 183.981 41.93 183.981 41.93C183.981 41.93 185.381 21.5 182.311 23.74Z" fill="#A55F19"/>
<path d="M12.54 98.51C5.62 98.51 0 104.67 0 112.27C0 119.87 12.54 131.95 12.54 131.95C12.54 131.95 25.08 119.87 25.08 112.27C25.09 104.67 19.47 98.51 12.54 98.51ZM12.54 115.51C9.51 115.51 7.06 113.06 7.06 110.04C7.06 107.02 9.51 104.57 12.54 104.57C15.57 104.57 18.02 107.02 18.02 110.04C18.02 113.06 15.57 115.51 12.54 115.51Z" fill="#26BED6"/>
<path d="M327.46 98.51C320.53 98.51 314.92 104.67 314.92 112.27C314.92 119.87 327.46 131.95 327.46 131.95C327.46 131.95 340 119.87 340 112.27C340 104.67 334.38 98.51 327.46 98.51ZM327.46 115.51C324.44 115.51 321.98 113.06 321.98 110.04C321.98 107.02 324.43 104.57 327.46 104.57C330.49 104.57 332.94 107.02 332.94 110.04C332.93 113.06 330.48 115.51 327.46 115.51Z" fill="#26BED6"/>
</g>
<defs>
<clipPath id="clip0">
<rect width="340" height="225" fill="white"/>
</clipPath>
</defs>
</svg>
