<svg width="210" height="290" viewBox="0 0 210 290" fill="none" xmlns="http://www.w3.org/2000/svg">
<path d="M61.6 287.5C95.6207 287.5 123.2 260.01 123.2 226.1C123.2 192.19 95.6207 164.7 61.6 164.7C27.5793 164.7 0 192.19 0 226.1C0 260.01 27.5793 287.5 61.6 287.5Z" fill="#26BED6"/>
<path d="M61.5999 274.7C88.4962 274.7 110.3 252.941 110.3 226.1C110.3 199.259 88.4962 177.5 61.5999 177.5C34.7036 177.5 12.8999 199.259 12.8999 226.1C12.8999 252.941 34.7036 274.7 61.5999 274.7Z" fill="#003C71"/>
<path d="M61.6 273.5C87.8887 273.5 109.2 252.278 109.2 226.1C109.2 199.922 87.8887 178.7 61.6 178.7C35.3112 178.7 14 199.922 14 226.1C14 252.278 35.3112 273.5 61.6 273.5Z" fill="#FCFCFE"/>
<path fill-rule="evenodd" clip-rule="evenodd" d="M61.6 226.1L61.8 178.7C78.7 178.8 94.4 187.8 102.8 202.4C115.9 224.9 108 254.2 85.4 267.2C62.9 280.2 33.7 272.4 20.5 250.1L61.6 226.1Z" fill="white"/>
<path fill-rule="evenodd" clip-rule="evenodd" d="M61.6 226.1L61.2 178.7C61.3 178.7 61.5 178.7 61.6 178.7C87.7 178.7 109.2 200.1 109.2 226.1C109.2 252.1 87.7 273.5 61.6 273.5C35.5 273.5 14 252.1 14 226.1C14 217.7 16.2 209.5 20.4 202.3L61.6 226.1Z" fill="#F79321"/>
<path fill-rule="evenodd" clip-rule="evenodd" d="M60.7 190.8V181.8C60.7 181.3 61.1 181 61.5 181H61.5999C62.0999 181 62.4 181.4 62.4 181.8V190.8C62.4 191.3 61.9999 191.6 61.5999 191.6H61.5C61 191.6 60.7 191.2 60.7 190.8Z" fill="#003C71"/>
<path fill-rule="evenodd" clip-rule="evenodd" d="M62.5 261.7V270.7C62.5 271.2 62.1001 271.5 61.7001 271.5H61.6C61.1 271.5 60.8 271.1 60.8 270.7V261.7C60.8 261.2 61.2 260.9 61.6 260.9H61.7001C62.1001 260.9 62.5 261.3 62.5 261.7Z" fill="#003C71"/>
<path fill-rule="evenodd" clip-rule="evenodd" d="M41.1999 192.9L38.4999 188.2C38.2999 187.8 38.3999 187.3 38.7999 187.1L38.8999 187C39.2999 186.8 39.7999 186.9 39.9999 187.3L42.6999 192C42.8999 192.4 42.7999 192.9 42.3999 193.1L42.2999 193.2C41.9999 193.4 41.4999 193.3 41.1999 192.9Z" fill="#1364A0"/>
<path fill-rule="evenodd" clip-rule="evenodd" d="M81.8998 259.6L84.5998 264.3C84.7998 264.7 84.6998 265.2 84.2998 265.4L84.1998 265.5C83.7998 265.7 83.2998 265.6 83.0998 265.2L80.3998 260.5C80.1998 260.1 80.2998 259.6 80.6998 259.4L80.7998 259.3C81.1998 259.1 81.6998 259.2 81.8998 259.6Z" fill="#1364A0"/>
<path fill-rule="evenodd" clip-rule="evenodd" d="M27.3 207.5L22.6 204.8C22.2 204.6 22.1 204.1 22.3 203.7L22.4 203.6C22.6 203.2 23.1 203.1 23.5 203.3L28.2 206C28.6 206.2 28.7 206.7 28.5 207.1L28.4 207.2C28.1 207.6 27.6 207.7 27.3 207.5Z" fill="#1364A0"/>
<path fill-rule="evenodd" clip-rule="evenodd" d="M95.8999 245L100.6 247.7C101 247.9 101.1 248.4 100.9 248.8L100.8 248.9C100.6 249.3 100.1 249.4 99.6999 249.2L94.9999 246.5C94.5999 246.3 94.4999 245.8 94.6999 245.4L94.7999 245.3C94.9999 244.9 95.4999 244.8 95.8999 245Z" fill="#1364A0"/>
<path fill-rule="evenodd" clip-rule="evenodd" d="M94.9999 206L99.6999 203.3C100.1 203.1 100.6 203.2 100.8 203.6L100.9 203.7C101.1 204.1 101 204.6 100.6 204.8L95.8999 207.5C95.4999 207.7 94.9999 207.6 94.7999 207.2L94.6999 207.1C94.4999 206.7 94.5999 206.2 94.9999 206Z" fill="#1364A0"/>
<path fill-rule="evenodd" clip-rule="evenodd" d="M28.0999 246.5L23.3999 249.2C22.9999 249.4 22.4999 249.3 22.2999 248.9L22.1999 248.8C21.9999 248.4 22.0999 247.9 22.4999 247.7L27.1999 245C27.5999 244.8 28.0999 244.9 28.2999 245.3L28.3999 245.4C28.6999 245.8 28.4999 246.3 28.0999 246.5Z" fill="#1364A0"/>
<path fill-rule="evenodd" clip-rule="evenodd" d="M80.3 192L83 187.3C83.2 186.9 83.7 186.8 84.1 187L84.2 187.1C84.6 187.3 84.7 187.8 84.5 188.2L81.8 192.9C81.6 193.3 81.1 193.4 80.7 193.2L80.6 193.1C80.3 192.9 80.1 192.4 80.3 192Z" fill="#1364A0"/>
<path fill-rule="evenodd" clip-rule="evenodd" d="M42.8 260.5L40.1 265.2C39.9 265.6 39.4 265.7 39 265.5L38.9 265.4C38.5 265.2 38.4 264.7 38.6 264.3L41.3 259.6C41.5 259.2 42 259.1 42.4 259.3L42.5 259.4C42.9 259.6 43 260.1 42.8 260.5Z" fill="#1364A0"/>
<path fill-rule="evenodd" clip-rule="evenodd" d="M97.1 225.4H106.1C106.6 225.4 106.9 225.8 106.9 226.2V226.3C106.9 226.8 106.5 227.1 106.1 227.1H97.1C96.6 227.1 96.3 226.7 96.3 226.3V226.2C96.3 225.7 96.7 225.4 97.1 225.4Z" fill="#003C71"/>
<path fill-rule="evenodd" clip-rule="evenodd" d="M26 227.1H17C16.5 227.1 16.2 226.7 16.2 226.3V226.2C16.2 225.7 16.6 225.4 17 225.4H26C26.5 225.4 26.7999 225.8 26.7999 226.2V226.3C26.7999 226.8 26.5 227.1 26 227.1Z" fill="#003C71"/>
<path d="M61.6 141C95.6207 141 123.2 113.51 123.2 79.5999C123.2 45.6897 95.6207 18.2 61.6 18.2C27.5793 18.2 0 45.6897 0 79.5999C0 113.51 27.5793 141 61.6 141Z" fill="#26BED6"/>
<path d="M61.5999 128.2C88.4962 128.2 110.3 106.441 110.3 79.6C110.3 52.759 88.4962 31 61.5999 31C34.7036 31 12.8999 52.759 12.8999 79.6C12.8999 106.441 34.7036 128.2 61.5999 128.2Z" fill="#003C71"/>
<path d="M61.6 127C87.8887 127 109.2 105.778 109.2 79.5999C109.2 53.4217 87.8887 32.2 61.6 32.2C35.3112 32.2 14 53.4217 14 79.5999C14 105.778 35.3112 127 61.6 127Z" fill="#FCFCFE"/>
<path fill-rule="evenodd" clip-rule="evenodd" d="M61.6 79.5999L61.8 32.2C78.7 32.3 94.4 41.3 102.8 55.9C115.9 78.4 108 107.7 85.4 120.7C62.9 133.7 33.7 125.9 20.5 103.6L61.6 79.5999Z" fill="white"/>
<path fill-rule="evenodd" clip-rule="evenodd" d="M61.6001 79.5999L61.7001 32.2C87.8001 32.3 109.2 53.6999 109.2 79.5999C109.2 105.6 87.7001 127 61.6001 127C44.7001 127 29.1001 118.1 20.6001 103.6L61.6001 79.5999Z" fill="#F79321"/>
<path fill-rule="evenodd" clip-rule="evenodd" d="M60.7 44.3V35.3C60.7 34.8 61.1 34.5 61.5 34.5H61.5999C62.0999 34.5 62.4 34.9 62.4 35.3V44.3C62.4 44.8 61.9999 45.1 61.5999 45.1H61.5C61 45.1 60.7 44.8 60.7 44.3Z" fill="#003C71"/>
<path fill-rule="evenodd" clip-rule="evenodd" d="M62.5 115.3V124.3C62.5 124.8 62.1001 125.1 61.7001 125.1H61.6C61.1 125.1 60.8 124.7 60.8 124.3V115.3C60.8 114.8 61.2 114.5 61.6 114.5H61.7001C62.1001 114.4 62.5 114.8 62.5 115.3Z" fill="#003C71"/>
<path fill-rule="evenodd" clip-rule="evenodd" d="M41.1999 46.5L38.4999 41.8C38.2999 41.4 38.3999 40.9 38.7999 40.7L38.8999 40.6C39.2999 40.4 39.7999 40.5 39.9999 40.9L42.6999 45.6C42.8999 46 42.7999 46.5 42.3999 46.7L42.2999 46.8C41.9999 47 41.4999 46.9 41.1999 46.5Z" fill="#1364A0"/>
<path fill-rule="evenodd" clip-rule="evenodd" d="M81.8998 113.1L84.5998 117.8C84.7998 118.2 84.6998 118.7 84.2998 118.9L84.1998 119C83.7998 119.2 83.2998 119.1 83.0998 118.7L80.3998 114C80.1998 113.6 80.2998 113.1 80.6998 112.9L80.7998 112.8C81.1998 112.6 81.6998 112.7 81.8998 113.1Z" fill="#1364A0"/>
<path fill-rule="evenodd" clip-rule="evenodd" d="M27.3 61.1L22.6 58.4C22.2 58.2 22.1 57.7 22.3 57.3L22.4 57.2C22.6 56.8 23.1 56.7 23.5 56.9L28.2 59.6C28.6 59.8 28.7 60.3 28.5 60.7L28.4 60.8C28.1 61.1 27.6 61.3 27.3 61.1Z" fill="#1364A0"/>
<path fill-rule="evenodd" clip-rule="evenodd" d="M95.8999 98.5001L100.6 101.2C101 101.4 101.1 101.9 100.9 102.3L100.8 102.4C100.6 102.8 100.1 102.9 99.6999 102.7L94.9999 100C94.5999 99.8001 94.4999 99.3001 94.6999 98.9001L94.7999 98.8001C94.9999 98.4001 95.4999 98.3001 95.8999 98.5001Z" fill="#1364A0"/>
<path fill-rule="evenodd" clip-rule="evenodd" d="M94.9999 59.5L99.6999 56.8C100.1 56.6 100.6 56.7 100.8 57.1L100.9 57.2C101.1 57.6 101 58.1 100.6 58.3L95.8999 61C95.4999 61.2 94.9999 61.1 94.7999 60.7L94.6999 60.6C94.4999 60.3 94.5999 59.8 94.9999 59.5Z" fill="#1364A0"/>
<path fill-rule="evenodd" clip-rule="evenodd" d="M28.0999 100.1L23.3999 102.8C22.9999 103 22.4999 102.9 22.2999 102.5L22.1999 102.4C21.9999 102 22.0999 101.5 22.4999 101.3L27.1999 98.6C27.5999 98.4 28.0999 98.5 28.2999 98.9L28.3999 99C28.6999 99.3 28.4999 99.8 28.0999 100.1Z" fill="#1364A0"/>
<path fill-rule="evenodd" clip-rule="evenodd" d="M80.3 45.6L83 40.9C83.2 40.5 83.7 40.4 84.1 40.6L84.2 40.7C84.6 40.9 84.7 41.4 84.5 41.8L81.8 46.5C81.6 46.9 81.1 47 80.7 46.8L80.6 46.7C80.3 46.5 80.1 46 80.3 45.6Z" fill="#1364A0"/>
<path fill-rule="evenodd" clip-rule="evenodd" d="M42.8 114L40.1 118.7C39.9 119.1 39.4 119.2 39 119L38.9 118.9C38.5 118.7 38.4 118.2 38.6 117.8L41.3 113.1C41.5 112.7 42 112.6 42.4 112.8L42.5 112.9C42.9 113.1 43 113.6 42.8 114Z" fill="#1364A0"/>
<path fill-rule="evenodd" clip-rule="evenodd" d="M97.1 78.8999H106.1C106.6 78.8999 106.9 79.2999 106.9 79.6999V79.7999C106.9 80.2999 106.5 80.5999 106.1 80.5999H97.1C96.6 80.5999 96.3 80.1999 96.3 79.7999V79.6999C96.3 79.2999 96.7 78.8999 97.1 78.8999Z" fill="#003C71"/>
<path fill-rule="evenodd" clip-rule="evenodd" d="M26 80.7H17C16.5 80.7 16.2 80.3 16.2 79.9V79.8C16.2 79.3 16.6 79 17 79H26C26.5 79 26.7999 79.4 26.7999 79.8V79.9C26.7999 80.3 26.5 80.7 26 80.7Z" fill="#003C71"/>
<path d="M170.3 290C192.226 290 210 285.702 210 280.4C210 275.098 192.226 270.8 170.3 270.8C148.374 270.8 130.6 275.098 130.6 280.4C130.6 285.702 148.374 290 170.3 290Z" fill="#157E89"/>
<path d="M195.8 265C197.8 266 198.7 268 198.3 269.4C198 270.3 197.2 270.8 196.8 271C196.9 272.7 197 274.4 197.1 276.1C197.4 276.4 197.8 277.1 198 278C198.4 279.7 197.6 281.2 197.4 281.5C193.4 281.5 189.4 281.5 185.4 281.5C185.3 281.4 184.5 280.3 184.8 279.3C185.1 278.1 186.7 277.2 188.5 277.7C188.8 276.3 189.1 273.9 188.5 271C188.4 270.4 188.2 269.8 188 269.3C189.7 269 191.7 268.4 193.7 266.9C194.5 266.3 195.2 265.6 195.8 265Z" fill="#032F51"/>
<path d="M184.8 244.7C188.5 251.4 192.2 258.2 195.8 264.9C195.2 265.6 194.5 266.3 193.7 266.9C191.7 268.4 189.6 269 188 269.3C187.8 268.6 187.5 268 187.3 267.5C186.3 267.4 185.2 267.3 184.2 267.2C181.7 263.5 177.9 257.9 173.4 251C173.3 250.9 173.2 250.7 173.1 250.6C171.1 245.4 169.5 240.5 168.2 236.1C167.1 232.5 164.9 224.6 163 214.2C161.4 205.5 160.4 199.9 160.2 192C160 183.6 161 178.2 160.2 178C159.3 177.8 157.3 184.9 155.3 192.3C153.6 198.4 152.3 203.6 151.4 207.5C151.3 207.1 151.1 206.7 151 206.3C149.9 211.5 148.8 219.1 150.1 228.2C150.9 233.7 152.2 237.6 153.2 240.6C155.5 247.8 158.5 258.4 161.1 272.7C159.4 273.4 157.3 274 154.8 274.2C153 274.4 151.4 274.4 149.9 274.2C150 274.2 150.1 274.2 150.2 274.2C146 263.2 142.3 253.1 139.1 244.1C134.7 231.7 132.9 225.9 132 217.8C131.6 214.1 131.5 210.3 131.4 202.9C131.3 196.6 131.5 191.9 131.4 178.8C131.4 178.3 131.4 177.9 131.4 177.3C131.4 176.9 131.4 176.5 131.4 175.9C135.5 176.8 140.4 177.6 145.9 177.8C151.5 178 155.2 178.3 160.1 177.2C163.2 176.4 165.9 175.3 168.1 174.2C168.5 184.5 168.9 194.8 169.3 205.1C170 210.3 171.3 216.7 173.9 223.8C177 232.8 181.2 239.8 184.8 244.7Z" fill="#003C71"/>
<path d="M168.1 236.2C169.4 240.6 171 245.4 173 250.7C166 239.9 162.4 234.3 159.1 227.7C155.6 220.5 153.1 213.7 151.2 207.7C152.1 203.8 153.4 198.6 155.1 192.5C157.1 185.2 159.1 178.1 160 178.2C160.8 178.3 159.8 183.8 160 192.2C160.2 200.1 161.2 205.7 162.8 214.4C164.8 224.6 167 232.5 168.1 236.2Z" fill="#032F51"/>
<path d="M154.7 88.9C157.5 89 158.8 93 159.1 93.6C159.9 95.9 159.6 97.9 159.4 99.3C158.9 102.2 157.8 107 155 113.2C155.1 113.4 155.2 113.6 155.3 113.8C154.7 113.7 154.2 113.6 153.6 113.3C151.9 112.4 150.9 110.5 150.8 108.8C150.7 106.7 151.9 105.5 151.1 104.2C150.7 103.6 150 103.1 149.5 103.3C148.6 103.6 149.3 106.1 148 107.1C147.6 107.4 147.1 107.5 146.8 107.5C147 105.1 145.8 102.9 143.8 102C142.2 101.2 140.6 101.6 139.7 101.9C138.7 101.5 137.1 100.6 136.4 98.7C135.2 95.5 137.7 92.5 138.3 91.8C138.8 91.2 140.5 89.2 142.3 89.4C143.5 89.6 143.6 90.7 144.9 90.8C146.6 91 147.3 89 149 89.2C149.6 89.2 150.5 89.6 151.4 91.1C151.5 90.5 152.9 88.8 154.7 88.9Z" fill="#542535"/>
<path d="M145.3 125.8C146.4 127.7 146.4 130 145.3 131.8C144 133.8 143.1 135 140.7 134.2C139.7 144.2 138.3 143.2 136.4 152.7C134.9 160 133.1 166.7 131.1 172.8C131 163.4 135.8 145 135.7 134.5C131.3 134.2 132.4 130.7 133.3 130.7C138.5 130.5 142.7 126.9 145.3 125.8Z" fill="#6E9B41"/>
<path d="M168.1 148.3C168.4 156.4 168.7 164.6 169 172.7C168.6 172.9 168.2 173.1 167.8 173.3C167.8 173.6 167.8 173.8 167.8 174.1C165.6 175.2 162.9 176.4 159.8 177.1C155 178.3 151.2 178 145.6 177.7C140.1 177.5 135.2 176.7 131.1 175.8C131.1 175 131.1 173.9 131.1 172.8C133.1 166.7 134.9 160 136.4 152.7C137.7 146.1 143 131.6 138.9 134.8C134.5 138.3 126.5 152.3 121.1 150.1C118.8 149.1 116.3 145.4 117.6 138.7C118.5 133.9 121.5 129.3 122.2 126.6C125.6 129 126.2 127.9 126.6 128.8C126.6 130 124.7 135.6 124.2 140.7C126.7 136.6 131.5 123.6 139.1 120.2C142.9 119.1 146.4 117.3 148.3 117.9C149 119.8 150 116.1 152 116.5C153.9 116.9 155.8 116.3 157.2 115C159.1 115.7 162.3 117.3 164.6 121C166.9 124.6 167.1 128.1 167.1 129.6C167.5 135.8 167.8 142 168.1 148.3Z" fill="#9FC43A"/>
<path d="M161 273.6C162.7 275.9 162.7 278.7 161.3 280.3C160.4 281.3 159.1 281.5 158.5 281.6C151.1 281.8 143.7 282 136.3 282.2C136.9 281.1 137.8 279.9 139.1 278.7C142.9 275.1 147.5 274.4 149.6 274.3C151.1 274.4 152.7 274.5 154.5 274.3C157 274 159.1 273.4 160.8 272.8C160.9 273 161 273.3 161 273.6Z" fill="#032F51"/>
<path d="M151 104.1C151.8 105.4 150.5 106.6 150.7 108.7C150.8 110.4 151.8 112.3 153.5 113.2C154.1 113.5 154.7 113.7 155.2 113.7C155.5 114.2 155.8 114.8 156.1 115.3C156.4 115.2 156.8 115.1 157.3 115C156.7 116.9 155.3 118.4 153.5 119C151.6 119.6 149.5 119.2 148 117.9C148.3 117.8 148.6 117.8 148.9 117.7C148.3 116.7 147.8 115.7 147.2 114.7C146.2 114.9 145.1 115.2 144.1 115.4C143.1 114.2 141.7 112 140.9 108.9C140.1 106 140.1 103.5 140.3 102C140.2 102 139.9 101.9 139.6 101.8C140.6 101.4 142.1 101.1 143.7 101.9C145.7 102.8 146.9 105 146.7 107.4C147 107.4 147.5 107.4 147.9 107C149.2 106 148.5 103.6 149.4 103.2C149.9 103 150.6 103.5 151 104.1Z" fill="#F0A87D"/>
<path d="M126.9 128C126.7 128.3 126.6 128.7 126.5 129C125.8 128.6 125 128.2 124 128C123.2 127.8 122.5 127.8 121.8 127.9C121.9 127.7 121.9 127.4 122 127.2C123.1 123.7 125.1 120.1 126.2 119.5C126.7 119.3 128 119.2 128.7 120C129.5 120.9 128.9 122.8 128.6 123.3C128.2 121.4 130.3 122.3 129.2 124.6C128.5 126.1 127.7 126.2 126.9 128Z" fill="#F0A87D"/>
<path d="M122 127.2C122 127.2 124.3 127.3 126.7 128.5C126.6 129 126.5 129.4 126.5 129.4C126.5 129.4 126 128.5 121.8 128.1C121.8 127.7 122 127.2 122 127.2Z" fill="#003C71"/>
<path d="M124.3 130C125.46 130 126.4 129.06 126.4 127.9C126.4 126.74 125.46 125.8 124.3 125.8C123.14 125.8 122.2 126.74 122.2 127.9C122.2 129.06 123.14 130 124.3 130Z" fill="#003C71"/>
<path d="M124.3 129.7C125.294 129.7 126.1 128.894 126.1 127.9C126.1 126.906 125.294 126.1 124.3 126.1C123.306 126.1 122.5 126.906 122.5 127.9C122.5 128.894 123.306 129.7 124.3 129.7Z" fill="#26BED6"/>
<path d="M36.3999 12.2001V0.600098H38.7999L41.7999 5.6001C42.5999 6.9001 43.2999 8.2001 43.7999 9.5001C43.6999 7.9001 43.5999 6.4001 43.5999 4.7001V0.600098H45.5999V12.2001H43.3999L40.3999 7.1001C39.6999 5.8001 38.8999 4.4001 38.2999 3.1001H38.1999C38.2999 4.6001 38.2999 6.1001 38.2999 8.0001V12.2001H36.3999Z" fill="#003C71"/>
<path d="M56 7.99995C56 11.1 53.8 12.5 51.7 12.5C49.3 12.5 47.5 10.9 47.5 8.19995C47.5 5.39995 49.3 3.79995 51.9 3.79995C54.4 3.69995 56 5.39995 56 7.99995ZM52.5 0.199951L54.2 2.79995H52.7L51.8 1.19995L50.9 2.79995H49.4L51 0.199951H52.5ZM49.7 8.09995C49.7 9.69995 50.5 10.9 51.8 10.9C53 10.9 53.9 9.69995 53.9 7.99995C53.9 6.69995 53.3 5.19995 51.9 5.19995C50.3 5.19995 49.7 6.69995 49.7 8.09995ZM52.8 14.7C52.8 15.3 52.4 15.8 51.8 15.8C51.2 15.8 50.7 15.3 50.7 14.7C50.7 14.1 51.2 13.6 51.8 13.6C52.4 13.6 52.8 14.1 52.8 14.7Z" fill="#003C71"/>
<path d="M59.9999 1.50005C59.9999 2.10005 59.4999 2.60005 58.7999 2.60005C58.0999 2.60005 57.5999 2.10005 57.5999 1.50005C57.5999 0.800049 58.0999 0.300049 58.7999 0.300049C59.5999 0.300049 59.9999 0.800049 59.9999 1.50005ZM57.7999 12.2V3.80005H59.8999V12.2H57.7999Z" fill="#003C71"/>
<path d="M73.4998 2.8V9.8C73.4998 10.7 73.4998 11.6 73.5998 12.2H71.6998L71.5998 10.9C71.0998 11.8 70.0998 12.4 68.8998 12.4C66.8998 12.4 65.2998 10.7 65.2998 8.1C65.2998 5.3 66.9998 3.6 69.0998 3.6C70.2998 3.6 71.0998 4.1 71.4998 4.7V2.8H68.1998V1.6H71.4998V0H73.5998V1.6H74.9998V2.8H73.4998ZM71.3998 7.3C71.3998 7.1 71.3998 6.9 71.2998 6.7C71.0998 5.9 70.3998 5.2 69.4998 5.2C68.0998 5.2 67.3998 6.4 67.3998 8C67.3998 9.5 68.1998 10.7 69.4998 10.7C70.3998 10.7 71.0998 10.1 71.2998 9.2C71.3998 9 71.3998 8.8 71.3998 8.6V7.3Z" fill="#003C71"/>
<path d="M78.1 1.50005C78.1 2.10005 77.6 2.60005 76.9 2.60005C76.2 2.60005 75.7 2.10005 75.7 1.50005C75.7 0.800049 76.2 0.300049 76.9 0.300049C77.6 0.300049 78.1 0.800049 78.1 1.50005ZM75.8 12.2V3.80005H78V12.2H75.8ZM78 14.7C78 15.3 77.6 15.8 76.9 15.8C76.3 15.8 75.8 15.3 75.8 14.7C75.8 14.1 76.3 13.6 76.9 13.6C77.5 13.6 78 14.1 78 14.7Z" fill="#003C71"/>
<path d="M85 12.2001L84.9 11.3001H84.8C84.3 12.0001 83.4 12.4001 82.3 12.4001C80.6 12.4001 79.7 11.2001 79.7 9.9001C79.7 7.8001 81.6 6.7001 84.7 6.7001V6.6001C84.7 6.0001 84.5 5.1001 83 5.1001C82.2 5.1001 81.3 5.4001 80.7 5.7001L80.3 4.3001C80.9 3.9001 82 3.6001 83.3 3.6001C86 3.6001 86.8 5.3001 86.8 7.1001V10.1001C86.8 10.9001 86.8 11.6001 86.9 12.1001H85V12.2001ZM84.7 8.1001C83.2 8.1001 81.8 8.4001 81.8 9.7001C81.8 10.5001 82.3 10.9001 83 10.9001C83.8 10.9001 84.5 10.3001 84.7 9.7001C84.8 9.5001 84.8 9.4001 84.8 9.2001V8.1001H84.7Z" fill="#003C71"/>
<path d="M44.4 163.1C42.8 162.7 41.3 162.2 39.9 161.6C39.6 161.5 39.4 161.4 39.1 161.4C36.4 161.3 34 159.3 34 155.5C34 151.9 36.2 149.4 39.6 149.4C43 149.4 45 152 45 155.3C45 158.1 43.7 160 42 160.7V160.8C43 161.1 44.1 161.3 45.1 161.5L44.4 163.1ZM42.7 155.4C42.7 153.2 41.6 151.1 39.5 151.1C37.4 151.1 36.2 153.1 36.2 155.4C36.2 157.7 37.4 159.6 39.4 159.6C41.6 159.8 42.7 157.9 42.7 155.4Z" fill="#003C71"/>
<path d="M54.3 158.8C54.3 159.8 54.3001 160.6 54.4001 161.3H52.5L52.4001 160C52.0001 160.6 51.2001 161.5 49.7001 161.5C48.2001 161.5 46.8 160.6 46.8 157.8V152.9H48.9001V157.5C48.9001 158.9 49.3 159.8 50.5 159.8C51.3 159.8 51.9 159.2 52.1 158.7C52.2 158.5 52.2001 158.3 52.2001 158V152.9H54.3V158.8Z" fill="#003C71"/>
<path d="M64.6001 157C64.6001 160.1 62.4001 161.5 60.3001 161.5C57.9001 161.5 56.1001 159.9 56.1001 157.2C56.1001 154.4 57.9001 152.8 60.5001 152.8C63.0001 152.7 64.6001 154.5 64.6001 157ZM61.2001 149.2L62.7001 151.8H61.3001L60.5001 150.2L59.7001 151.8H58.3001L59.8001 149.2H61.2001ZM58.3001 157.1C58.3001 158.7 59.1001 159.9 60.4001 159.9C61.6001 159.9 62.5001 158.7 62.5001 157C62.5001 155.7 61.9001 154.2 60.5001 154.2C58.9001 154.2 58.3001 155.7 58.3001 157.1ZM65.1001 147.7L63.2001 150.1H62.1001L63.4001 147.7H65.1001Z" fill="#003C71"/>
<path d="M72.5999 161C72.1999 161.2 71.2999 161.4 70.1999 161.4C67.5999 161.4 65.8999 159.7 65.8999 157.1C65.8999 154.6 67.5999 152.6 70.5999 152.6C71.3999 152.6 72.1999 152.8 72.6999 153L72.2999 154.6C71.9999 154.4 71.4999 154.3 70.6999 154.3C69.0999 154.3 68.0999 155.5 68.0999 157C68.0999 158.7 69.1999 159.7 70.6999 159.7C71.3999 159.7 71.9999 159.5 72.3999 159.4L72.5999 161Z" fill="#003C71"/>
<path d="M80.1999 150.5V152.9H82.1999V154.5H80.1999V158.2C80.1999 159.2 80.4999 159.8 81.2999 159.8C81.6999 159.8 81.8999 159.7 82.0999 159.7V161.3C81.7999 161.4 81.1999 161.5 80.5999 161.5C79.7999 161.5 79.1999 161.2 78.7999 160.8C78.3999 160.3 78.0999 159.6 78.0999 158.5V154.6H76.8999V153H78.0999V151L80.1999 150.5Z" fill="#003C71"/>
<path d="M85.2 157.7C85.3 159.2 86.4 159.9 87.8 159.9C88.8 159.9 89.5 159.8 90.1 159.5L90.4 161C89.7 161.3 88.7 161.5 87.5 161.5C84.8 161.5 83.2 159.8 83.2 157.3C83.2 155 84.6 152.8 87.3 152.8C90 152.8 90.9 155 90.9 156.9C90.9 157.3 90.9 157.6 90.8 157.8H85.2V157.7ZM88.1 149.2L89.6 151.8H88.2L87.4 150.2L86.6 151.8H85L86.5 149.2H88.1ZM88.9 156.2C88.9 155.4 88.6 154.1 87.2 154.1C85.9 154.1 85.3 155.3 85.2 156.2H88.9ZM92 147.7L90.1 150.1H89L90.3 147.7H92Z" fill="#003C71"/>
</svg>
