<svg width="280" height="254" viewBox="0 0 280 254" fill="none" xmlns="http://www.w3.org/2000/svg">
<g clip-path="url(#clip0)">
<path d="M34.5 14.7C35.3 12.2 36.5 9.79997 37.9 7.49997C42.9 -0.500028 56.2 -0.700027 62.3 5.39997C74.6 17.8 74.4 65 61 76.2C42.7 91.6 34.5 58.2 32.7 42.7C31.7 33.4 31.5 23.5 34.5 14.7Z" fill="black"/>
<path d="M47 47.3001H56.4L56.6 35.6001H47.2L47 47.3001Z" fill="#F0A87D"/>
<path d="M47.1 35.3999C47.1 35.3999 50 39.3999 56.4 39.3999V35.3999H47.1Z" fill="#DB8E67"/>
<path d="M60.5 21.2001C60.5 21.2001 61.1 17.8 63.8 17.8C66.6 17.8 64.4 25.1 61.3 26.5C59.7 27.2 60.5 21.2001 60.5 21.2001Z" fill="#F0A87D"/>
<path d="M42.8 21.2001C42.8 21.2001 42.2 17.8 39.5 17.8C36.7 17.8 38.9 25.1 42 26.5C43.7 27.2 42.8 21.2001 42.8 21.2001Z" fill="#F0A87D"/>
<path d="M51.7 37.4C47.1 37.5 42.6 33.1 40.6 25.3V15.1C40.6 8.4 45.6 3 51.7 3C57.8 3 62.8 8.5 62.8 15.1V25.3C61.9 32.1 56.4 37.4 51.7 37.4Z" fill="#F0A87D"/>
<path d="M38.4 48.5001V48.0001L36.3 92.9001L65 93.9001L67.1 49.1001C67.1 49.1001 63.8 45.9001 59.4 45.4001C58 45.2001 54.6 43.6001 53.1 43.6001C48 43.6001 42.8 45.4001 38.4 48.5001Z" fill="#FFC0BE"/>
<path d="M44.5 3.69998C44.6 3.69998 50.1 10.6 50.7 11.1C53.7 13.8 57.7 16.8 61.5 17.9C65.8 19.2 63.3 12 62.8 10.3C61.4 5.99998 55.8 1.99998 51.3 2.69998L44.5 3.69998Z" fill="black"/>
<path d="M47.4 3.4C47.4 3.4 48.7 5.2 48.8 5.2C52.4 8.3 44.8 15.2 42.4 17.4C39.6 19.9 37.7 14 37.7 11.7C37.8 8.3 43.7 0.299997 47.4 3.4Z" fill="black"/>
<path d="M82.3 72.1999C79 58.2999 73.6 39.6999 59.2 42.2999C59.2 42.2999 59 43.7999 51.7 43.7999C44.4 43.7999 44.4 42.6999 44.4 42.6999C44.4 42.6999 27.3 39.9999 21.4 71.2999H21.3L18.1 93.1999L19.9 128.9L25.1 129.1L31.3 115.9L31.1 127.9C31.1 127.9 50.6 132.5 72.2 127.9C72.1 124 71.9 119.3 71.7 114.4L77.5 128.7L82.7 128.5L84.5 92.7999L82.3 72.1999Z" fill="#26BED6"/>
<path d="M113 65.7998H0V245.4H113V65.7998Z" fill="#022B49"/>
<path d="M110 75.3999H2.9V245.3H110V75.3999Z" fill="#003C71"/>
<path d="M145.1 56.1998L140.2 58.6998C139.2 59.1998 138 58.7998 137.5 57.7998L130.8 44.7998C130.3 43.7998 130.7 42.5998 131.7 42.0998L136.6 39.5998C137.6 39.0998 138.8 39.4998 139.3 40.4998L146 53.4998C146.5 54.4998 146.1 55.6998 145.1 56.1998Z" fill="#26BED6"/>
<path d="M220.1 254C253.182 254 280 248.851 280 242.5C280 236.149 253.182 231 220.1 231C187.018 231 160.2 236.149 160.2 242.5C160.2 248.851 187.018 254 220.1 254Z" fill="#157E89"/>
<path d="M235.5 238.3C238.151 238.3 240.3 236.151 240.3 233.5C240.3 230.849 238.151 228.7 235.5 228.7C232.849 228.7 230.7 230.849 230.7 233.5C230.7 236.151 232.849 238.3 235.5 238.3Z" fill="#999999"/>
<path d="M232.2 240.1C234.851 240.1 237 237.951 237 235.3C237 232.649 234.851 230.5 232.2 230.5C229.549 230.5 227.4 232.649 227.4 235.3C227.4 237.951 229.549 240.1 232.2 240.1Z" fill="white"/>
<path d="M274 225.1C276.651 225.1 278.8 222.951 278.8 220.3C278.8 217.649 276.651 215.5 274 215.5C271.349 215.5 269.2 217.649 269.2 220.3C269.2 222.951 271.349 225.1 274 225.1Z" fill="#999999"/>
<path d="M270.4 226.5C273.051 226.5 275.2 224.351 275.2 221.7C275.2 219.049 273.051 216.9 270.4 216.9C267.749 216.9 265.6 219.049 265.6 221.7C265.6 224.351 267.749 226.5 270.4 226.5Z" fill="white"/>
<path d="M272.6 216.2L232.2 230.7C227 232.6 221.3 229.9 219.4 224.7L192.7 150.1C190.8 144.9 193.5 139.2 198.7 137.3L239.1 122.8C244.3 120.9 250 123.6 251.9 128.8L278.6 203.4C280.5 208.6 277.8 214.3 272.6 216.2Z" fill="#935212"/>
<path d="M267.5 218L227.1 232.5C221.9 234.4 216.2 231.7 214.3 226.5L187.6 151.9C185.7 146.7 188.4 141 193.6 139.1L234 124.6C239.2 122.7 244.9 125.4 246.8 130.6L273.5 205.2C275.4 210.4 272.7 216.1 267.5 218Z" fill="#F79321"/>
<path d="M225.3 213C224.6 213.3 223.8 212.9 223.5 212.2L204.7 159.8C204.4 159.1 204.8 158.3 205.5 158C206.2 157.7 207 158.1 207.3 158.8L226.1 211.2C226.5 211.9 226.1 212.7 225.3 213Z" fill="white"/>
<path d="M237.4 213C236.7 213.3 235.9 212.9 235.6 212.2L216.8 159.8C216.5 159.1 216.9 158.3 217.6 158C218.3 157.7 219.1 158.1 219.4 158.8L238.2 211.2C238.6 211.9 238.2 212.7 237.4 213Z" fill="white"/>
<path d="M246.8 203.6C246.1 203.9 245.3 203.5 245 202.8L226.2 150.4C225.9 149.7 226.3 148.9 227 148.6C227.7 148.3 228.5 148.7 228.8 149.4L247.6 201.8C247.9 202.5 247.6 203.3 246.8 203.6Z" fill="white"/>
<path d="M259.3 203.6C258.6 203.9 257.8 203.5 257.5 202.8L238.7 150.4C238.4 149.7 238.8 148.9 239.5 148.6C240.2 148.3 241 148.7 241.3 149.4L260.1 201.8C260.5 202.5 260.1 203.3 259.3 203.6Z" fill="white"/>
<path d="M202.1 136.2L198.1 125.9L224.3 115.4L228.9 126.6L202.1 136.2Z" fill="#935212"/>
<path d="M250.2 222.5C252.8 223.8 254 226.2 253.4 228C253 229.1 251.9 229.7 251.4 230C251.5 232.1 251.7 234.2 251.8 236.2C252.2 236.6 252.7 237.4 253 238.5C253.5 240.7 252.5 242.4 252.2 242.8C247.1 242.8 241.9 242.8 236.8 242.8C236.7 242.6 235.6 241.4 236 240.1C236.4 238.6 238.5 237.5 240.8 238.1C241.2 236.3 241.6 233.4 240.8 229.9C240.6 229.1 240.4 228.4 240.2 227.8C242.3 227.5 245 226.7 247.6 224.8C248.7 224 249.6 223.2 250.3 222.4C250.2 222.5 250.2 222.5 250.2 222.5Z" fill="#032F51"/>
<path d="M236 199.4C241.1 207.6 246.2 215.8 251.4 223.9C250.6 224.7 249.6 225.6 248.5 226.3C245.7 228.1 242.8 228.9 240.5 229.2C240.2 228.4 239.8 227.7 239.5 227C238.1 226.9 236.6 226.7 235.2 226.6C231.7 222.1 226.4 215.3 220.2 207C220.1 206.8 219.9 206.6 219.8 206.5C217 200.1 214.7 194.2 212.9 188.9C211.4 184.5 208.2 174.9 205.6 162.3C203.4 151.8 202 144.9 201.7 135.3C201.5 125.2 202.8 118.5 201.7 118.4C200.5 118.2 197.7 126.8 194.8 135.7C192.4 143.1 190.6 149.5 189.3 154.1C189.1 153.6 188.9 153.1 188.8 152.6C187.2 158.9 185.8 168.2 187.5 179.2C188.6 185.9 190.4 190.6 191.8 194.2C195.1 202.9 199.2 215.8 202.7 233.2C200.3 234 197.4 234.7 193.9 235C191.4 235.2 189.1 235.2 187.1 235C187.2 235 187.4 235 187.5 235C181.6 221.6 176.5 209.3 172.1 198.4C166 183.4 163.5 176.3 162.2 166.4C161.6 161.9 168 135 167.9 119C167.9 118.4 167.9 117.9 167.9 117.2C167.9 116.7 167.9 116.2 167.9 115.5C173.6 116.6 173.8 117.6 181.5 117.9C189.2 118.2 194.5 118.5 201.2 117.1C205.6 116.2 209.3 114.8 212.4 113.4C213 125.9 213.5 138.4 214.1 150.9C215.1 157.2 216.9 165 220.5 173.6C225.2 184.9 231.1 193.4 236 199.4Z" fill="#003C71"/>
<path d="M212.8 189C214.6 194.3 216.9 200.2 219.7 206.6C210 193.5 204.9 186.7 200.4 178.6C195.6 169.9 192 161.6 189.4 154.3C190.7 149.6 192.5 143.3 194.9 135.9C197.8 127 200.5 118.4 201.8 118.6C202.9 118.8 201.6 125.4 201.8 135.5C202 145.1 203.4 151.9 205.7 162.5C208.2 175 211.3 184.6 212.8 189Z" fill="#032F51"/>
<path d="M194.1 -0.000116968C197.9 0.099883 199.9 5.49988 200.2 6.29988C201.3 9.29988 200.9 11.9999 200.6 13.8999C199.9 17.7999 198.4 24.1999 194.4 32.3999C194.6 32.6999 194.7 32.8999 194.9 33.1999C194.1 33.0999 193.3 32.8999 192.5 32.4999C190.1 31.2999 188.7 28.6999 188.5 26.4999C188.3 23.6999 190 22.0999 189 20.3999C188.5 19.5999 187.5 18.8999 186.8 19.1999C185.6 19.6999 186.6 22.9999 184.8 24.1999C184.2 24.5999 183.5 24.6999 183.1 24.6999C183.3 21.4999 181.6 18.5999 178.9 17.2999C176.7 16.2999 174.5 16.6999 173.2 17.1999C171.9 16.6999 169.6 15.3999 168.5 12.8999C166.8 8.59988 170.3 4.59988 171.1 3.69988C171.8 2.89988 174.2 0.199883 176.7 0.599883C178.4 0.899883 178.5 2.29988 180.3 2.49988C182.6 2.69988 183.7 0.099883 185.9 0.299883C186.7 0.399883 187.9 0.799883 189.3 2.79988C189.7 2.09988 191.6 -0.100117 194.1 -0.000116968Z" fill="#542535"/>
<path d="M181.1 49.2C182.7 51.7 182.7 54.8 181.1 57.2C179.3 59.9 178 61.4 174.7 60.5C173.4 73.9 171.3 72.4999 168.6 85.1999C166.6 94.8999 170.6 103.8 167.8 112C167.7 99.3999 167.7 74.9 167.6 60.9C161.4 60.5 166.5 55.3999 167.8 55.2999C175.2 55.0999 177.4 50.7 181.1 49.2Z" fill="#6E9B41"/>
<path d="M142.7 58.7999C143 59.1999 143.1 60.7999 143.5 61.1999C143.5 62.3999 143.9 63.9 142.9 64.9C142.1 65.7 139.8 64.4999 139 64.5999C138.8 64.3999 138.5 64.0999 138.3 63.9C134.8 60.2999 131.9 55.6 131.9 53.9C132.1 53.8 131.5 52.1999 131.7 51.0999C132.2 48.2999 137.8 52.8999 138.2 53.5999C137.4 50.6999 138.3 50.8999 140.2 53.7999C141.5 55.7999 141.1 56.6999 142.7 58.7999Z" fill="#F0A87D"/>
<path d="M212.8 79.1998C213.2 90.0998 213.7 100.9 214.1 111.8C213.5 112.1 213 112.4 212.4 112.6C212.4 113 212.4 113.3 212.4 113.7C209.3 115.2 205.6 116.7 201.2 117.7C194.5 119.2 189.2 118.9 181.5 118.5C173.8 118.2 173.6 117.2 167.9 115.9C167.9 114.8 167.9 113.4 167.9 111.8C170.7 103.7 166.6 94.6998 168.7 84.9998C170.6 76.0998 174.2 54.4998 172.1 61.1998C170.1 67.6998 168 88.1998 160.5 85.1998C157.2 83.8998 137.5 67.1998 138.4 63.6998C143.1 66.8998 143.1 59.8998 143.7 61.0998C143.7 62.6998 155.7 68.1998 160.2 73.5998C160.8 67.6998 166.7 44.0998 172.6 41.5998C177.9 40.1998 182.8 37.6998 185.5 38.5998C186.5 41.0998 187.9 36.1998 190.6 36.7998C193.2 37.2998 195.9 36.5998 197.8 34.7998C200.4 35.6998 204.9 37.8998 208.1 42.6998C211.3 47.3998 211.5 52.1998 211.5 54.0998C212 62.5998 212.4 70.8998 212.8 79.1998Z" fill="#9FC43A"/>
<path d="M203 234C205.3 237.1 205.3 240.8 203.4 242.9C202.1 244.3 200.3 244.5 199.5 244.6C189.2 244.9 178.9 245.2 168.6 245.4C169.5 243.9 170.7 242.3 172.5 240.7C177.8 235.9 184.2 235 187.1 234.8C189.2 235 191.5 235 193.9 234.8C197.4 234.5 200.3 233.6 202.7 232.8C202.8 233.2 202.9 233.6 203 234Z" fill="#032F51"/>
<path d="M189 20.3C190.1 22 188.3 23.6 188.5 26.4C188.7 28.7 190.1 31.2 192.5 32.4C193.3 32.8 194.1 33 194.9 33.1C195.3 33.8 195.7 34.5 196.1 35.2C196.5 35.1 197.1 35 197.8 34.8C197 37.3 195 39.3 192.5 40.1C189.8 40.9 187 40.3 184.8 38.6C185.3 38.5 185.7 38.4 186.1 38.3C185.3 37 184.6 35.6 183.8 34.3C182.3 34.6 180.9 35 179.4 35.3C178.1 33.6 176.1 30.7 174.9 26.6C173.8 22.7 173.8 19.4 174 17.4C173.9 17.4 173.5 17.3 173.1 17.1C174.4 16.6 176.6 16.2 178.8 17.2C181.6 18.4 183.3 21.4 183 24.6C183.4 24.6 184.1 24.6 184.7 24.1C186.5 22.8 185.5 19.5 186.7 19.1C187.5 18.9 188.5 19.6 189 20.3Z" fill="#F0A87D"/>
<path d="M11.9 160.4H9.2V245.4H11.9V160.4Z" fill="#022B49"/>
<path d="M21 160.4H18.3V245.4H21V160.4Z" fill="#022B49"/>
<path d="M30.2 160.4H27.5V245.4H30.2V160.4Z" fill="#022B49"/>
<path d="M39.4 160.4H36.7V245.4H39.4V160.4Z" fill="#022B49"/>
<path d="M48.6 160.4H45.9V245.4H48.6V160.4Z" fill="#022B49"/>
<path d="M57.7 160.4H55V245.4H57.7V160.4Z" fill="#022B49"/>
<path d="M66.9 160.4H64.2V245.4H66.9V160.4Z" fill="#022B49"/>
<path d="M76.1 160.4H73.4V245.4H76.1V160.4Z" fill="#022B49"/>
<path d="M85.3 160.4H82.6V245.4H85.3V160.4Z" fill="#022B49"/>
<path d="M94.4 160.4H91.7V245.4H94.4V160.4Z" fill="#022B49"/>
<path d="M103.6 160.4H100.9V245.4H103.6V160.4Z" fill="#022B49"/>
<path d="M56.1 127.5H21.7V129.8H56.1V127.5Z" fill="#26BED6"/>
<path d="M21.6306 133.287H23.9306V129.887H21.6306V133.287Z" fill="#26BED6"/>
<path d="M26.3707 133.287H28.6707V129.887H26.3707V133.287Z" fill="#26BED6"/>
<path d="M30.8758 133.287H33.1758V129.887H30.8758V133.287Z" fill="#26BED6"/>
<path d="M35.3799 133.287H37.6799V129.887H35.3799V133.287Z" fill="#26BED6"/>
<path d="M40.12 133.287H42.42V129.887H40.12V133.287Z" fill="#26BED6"/>
<path d="M44.6251 133.287H46.9251V129.887H44.6251V133.287Z" fill="#26BED6"/>
<path d="M49.2583 133.287H51.5583V129.887H49.2583V133.287Z" fill="#26BED6"/>
<path d="M53.7634 133.287H56.0634V129.887H53.7634V133.287Z" fill="#26BED6"/>
<path d="M48.1 106.8H30V102.1C30 99.6 32.1 97.5 34.6 97.5H43.4C45.9 97.5 48 99.6 48 102.1V106.8H48.1ZM32.3 104.5H45.7V102.1C45.7 100.8 44.7 99.8 43.4 99.8H34.6C33.3 99.8 32.3 100.8 32.3 102.1V104.5Z" fill="#26BED6"/>
<path d="M50.1 104.7H27.9V125.2H50.1V104.7Z" fill="#26BED6"/>
<path d="M24.8 104.7C22.9 104.7 21.4 106.2 21.4 108.1V125.1H26.4V104.6H24.8V104.7Z" fill="#26BED6"/>
<path d="M56 108.1C56 106.2 54.5 104.7 52.6 104.7H51.5V125.2H56V108.1Z" fill="#26BED6"/>
<path d="M40.9 115.6V110H36.6V115.6H34.6C34.6 115.6 37.3 119.8 38.8 119.8C40.3 119.8 43 115.6 43 115.6H40.9Z" fill="white"/>
<path d="M67.1 112.9C67.1 113.4 67 113.9 66.8 114.2C66.6 114.5 66.3 114.8 66 115C65.7 115.2 65.3 115.3 64.8 115.4C64.3 115.5 63.8 115.5 63.3 115.5C62.9 115.5 62.5 115.5 62.1 115.5C61.8 115.5 61.4 115.4 61 115.4V106.8C61.3 106.8 61.6 106.7 62 106.7C62.4 106.7 62.8 106.7 63.3 106.7C63.8 106.7 64.2 106.7 64.6 106.8C65 106.9 65.3 107 65.6 107.2C65.9 107.4 66.1 107.6 66.3 107.9C66.5 108.2 66.6 108.6 66.6 109C66.6 109.4 66.5 109.7 66.3 110C66.1 110.3 65.9 110.5 65.7 110.7C65.9 110.8 66.1 110.9 66.2 111C66.4 111.1 66.5 111.3 66.7 111.4C66.8 111.6 66.9 111.8 67 112C67.1 112.3 67.1 112.6 67.1 112.9ZM63.1 110.1H63.4C63.7 110.1 64 110 64.2 109.9C64.4 109.8 64.5 109.5 64.5 109.2C64.5 109 64.5 108.9 64.4 108.8C64.3 108.7 64.2 108.6 64.1 108.5C64 108.4 63.9 108.4 63.8 108.4C63.7 108.4 63.5 108.4 63.4 108.4C63.4 108.4 63.3 108.4 63.2 108.4C63.1 108.4 63.1 108.4 63 108.4V110.1H63.1ZM63.1 111.8V113.8C63.2 113.8 63.2 113.8 63.3 113.8C63.4 113.8 63.5 113.8 63.6 113.8C63.8 113.8 63.9 113.8 64.1 113.8C64.3 113.8 64.4 113.7 64.5 113.6C64.6 113.5 64.7 113.4 64.8 113.3C64.9 113.2 64.9 113 64.9 112.8C64.9 112.4 64.8 112.2 64.5 112C64.2 111.9 63.9 111.8 63.5 111.8H63.1Z" fill="white"/>
<path d="M69.6 115.4C69.4 115.4 69.2 115.5 69.1 115.5C68.9 115.5 68.8 115.5 68.7 115.5C68.6 115.5 68.4 115.5 68.2 115.5C68 115.5 67.8 115.5 67.6 115.4L70.3 106.8C70.5 106.8 70.7 106.8 70.9 106.7C71.1 106.6 71.3 106.7 71.4 106.7C71.6 106.7 71.7 106.7 71.9 106.7C72.1 106.7 72.3 106.7 72.5 106.8L75.2 115.4C74.7 115.5 74.3 115.5 74 115.5C73.8 115.5 73.7 115.5 73.5 115.5C73.3 115.5 73.2 115.5 73 115.4L72.5 113.7C72.3 113.8 72.1 113.8 71.9 113.8C71.7 113.8 71.5 113.8 71.3 113.8C71.1 113.8 70.9 113.8 70.7 113.8C70.5 113.8 70.3 113.7 70.1 113.7L69.6 115.4ZM71.3 109L70.5 112.1C70.6 112.1 70.8 112.2 70.9 112.2C71 112.2 71.1 112.2 71.3 112.2C71.4 112.2 71.6 112.2 71.7 112.2C71.8 112.2 72 112.2 72.1 112.1L71.3 109Z" fill="white"/>
<path d="M80.1 110.7C80.3 110.7 80.5 110.6 80.7 110.6C80.9 110.6 81 110.6 81.2 110.6C81.3 110.6 81.5 110.6 81.7 110.6C81.9 110.6 82.1 110.6 82.3 110.7V115.1C81.8 115.3 81.4 115.4 80.9 115.4C80.4 115.5 80 115.5 79.7 115.5C79 115.5 78.4 115.4 77.9 115.2C77.4 115 76.9 114.7 76.6 114.3C76.2 113.9 76 113.4 75.8 112.9C75.6 112.4 75.5 111.8 75.5 111.1C75.5 110.4 75.6 109.9 75.8 109.3C76 108.8 76.3 108.3 76.6 107.9C76.9 107.5 77.4 107.2 77.9 107C78.4 106.8 79 106.7 79.6 106.7C80 106.7 80.4 106.7 80.7 106.8C81 106.9 81.4 107 81.8 107.1C81.8 107.4 81.7 107.7 81.6 108.1C81.5 108.4 81.4 108.7 81.3 108.9C81.1 108.8 81 108.8 80.9 108.8C80.8 108.8 80.6 108.7 80.5 108.7C80.4 108.7 80.3 108.7 80.1 108.6C80 108.6 79.9 108.6 79.7 108.6C79.1 108.6 78.6 108.8 78.2 109.3C77.8 109.7 77.7 110.4 77.7 111.3C77.7 112.2 77.9 112.8 78.2 113.2C78.5 113.6 79.1 113.8 79.7 113.8C79.9 113.8 80 113.8 80.1 113.8V110.7Z" fill="white"/>
<path d="M63.4 121C64.9 121 66.1 121.4 66.8 122.1C67.6 122.9 68 124 68 125.5C68 127 67.6 128.1 66.8 128.8C66 129.5 64.8 129.9 63.2 129.9C62.8 129.9 62.4 129.9 62 129.8C61.6 129.8 61.3 129.7 60.9 129.7V121.1C61 121.1 61.2 121.1 61.4 121C61.6 121 61.8 121 62 120.9C62.2 120.9 62.4 120.9 62.7 120.9C63 121 63.2 121 63.4 121ZM63.2 128.1C63.3 128.1 63.3 128.1 63.4 128.1C63.5 128.1 63.5 128.1 63.6 128.1C63.9 128.1 64.2 128.1 64.5 128C64.8 127.9 65 127.8 65.2 127.6C65.4 127.4 65.6 127.1 65.7 126.8C65.8 126.5 65.9 126.1 65.9 125.5C65.9 125 65.8 124.6 65.7 124.2C65.6 123.8 65.4 123.6 65.2 123.4C65 123.2 64.8 123.1 64.5 123C64.2 122.9 64 122.9 63.7 122.9C63.5 122.9 63.4 122.9 63.4 122.9C63.3 122.9 63.3 122.9 63.3 122.9V128.1H63.2Z" fill="white"/>
<path d="M69.3 121.2C69.7 121.2 70.1 121.1 70.4 121.1C70.7 121.1 71.1 121 71.5 121C71.9 121 72.4 121 72.8 121.1C73.2 121.2 73.6 121.3 74 121.5C74.3 121.7 74.6 122 74.8 122.4C75 122.8 75.1 123.2 75.1 123.8C75.1 124.1 75.1 124.4 75 124.6C74.9 124.8 74.8 125 74.7 125.2C74.6 125.4 74.5 125.5 74.3 125.7C74.2 125.8 74 126 73.9 126L75.8 129.7C75.6 129.7 75.4 129.8 75.2 129.8C75 129.8 74.8 129.8 74.6 129.8C74.4 129.8 74.3 129.8 74 129.8C73.8 129.8 73.6 129.8 73.4 129.7L71.7 125.8L71.8 125.7C71.9 125.7 72 125.6 72.1 125.5C72.2 125.4 72.3 125.3 72.4 125.1C72.5 124.9 72.6 124.8 72.7 124.6C72.8 124.4 72.8 124.2 72.8 124C72.8 123.6 72.7 123.3 72.5 123.1C72.3 122.9 72 122.8 71.7 122.8C71.6 122.8 71.6 122.8 71.5 122.8C71.4 122.8 71.4 122.8 71.4 122.8V129.7C71 129.8 70.6 129.8 70.4 129.8C70.1 129.8 69.7 129.8 69.3 129.7V121.2Z" fill="white"/>
<path d="M76.1 125.5C76.1 124.9 76.2 124.3 76.3 123.7C76.4 123.2 76.7 122.7 77 122.3C77.3 121.9 77.7 121.6 78.2 121.4C78.7 121.2 79.2 121.1 79.9 121.1C80.6 121.1 81.1 121.2 81.6 121.4C82.1 121.6 82.5 121.9 82.8 122.3C83.1 122.7 83.3 123.2 83.5 123.7C83.6 124.2 83.7 124.8 83.7 125.5C83.7 126.1 83.6 126.7 83.5 127.3C83.4 127.8 83.1 128.3 82.8 128.7C82.5 129.1 82.1 129.4 81.6 129.6C81.1 129.8 80.6 129.9 79.9 129.9C79.2 129.9 78.7 129.8 78.2 129.6C77.7 129.4 77.3 129.1 77 128.7C76.7 128.3 76.5 127.8 76.3 127.3C76.1 126.7 76.1 126.2 76.1 125.5ZM81.4 125.5C81.4 123.8 80.9 122.9 79.9 122.9C78.9 122.9 78.3 123.8 78.3 125.5C78.3 126.4 78.4 127 78.7 127.5C79 127.9 79.3 128.1 79.9 128.1C80.9 128.1 81.4 127.2 81.4 125.5Z" fill="white"/>
<path d="M84.8 121.2C85 121.2 85.3 121.1 85.6 121.1C86 121.1 86.5 121 87 121C87.4 121 87.9 121 88.3 121.1C88.7 121.2 89.1 121.3 89.5 121.5C89.8 121.7 90.1 122 90.3 122.4C90.5 122.8 90.6 123.3 90.6 124C90.6 124.6 90.5 125 90.3 125.4C90.1 125.8 89.9 126.1 89.6 126.3C89.3 126.5 89 126.7 88.6 126.8C88.2 126.9 87.9 126.9 87.5 126.9C87.3 126.9 87.2 126.9 87 126.9C86.8 126.9 86.7 126.9 86.7 126.9V129.7C86.5 129.7 86.3 129.8 86.1 129.8C85.9 129.8 85.8 129.8 85.6 129.8C85.3 129.8 85 129.8 84.6 129.7V121.2H84.8ZM86.9 125.3C86.9 125.3 87 125.3 87.1 125.3C87.2 125.3 87.3 125.3 87.4 125.3C87.7 125.3 88 125.2 88.2 125C88.4 124.8 88.5 124.5 88.5 124.1C88.5 123.9 88.5 123.7 88.4 123.5C88.3 123.3 88.2 123.2 88.1 123.1C88 123 87.8 122.9 87.7 122.9C87.5 122.9 87.4 122.8 87.2 122.8C87.2 122.8 87.1 122.8 87 122.8C86.9 122.8 86.9 122.8 86.8 122.8V125.3H86.9Z" fill="white"/>
</g>
<defs>
<clipPath id="clip0">
<rect width="280" height="254" fill="white"/>
</clipPath>
</defs>
</svg>
