<svg width="280" height="252" viewBox="0 0 280 252" fill="none" xmlns="http://www.w3.org/2000/svg">
<g clip-path="url(#clip0)">
<path d="M0 159.7L280 113.3L68.2 182.8L0 159.7Z" fill="#26BED6"/>
<path d="M68.2 182.8L99.6 252L280 113.3L68.2 182.8Z" fill="#003C71"/>
<path d="M99.6 252L246.2 172.1L278 114.4L129.8 206.2L99.6 252Z" fill="#022B49"/>
<path d="M209.4 236.3L130.2 206.6L280 113.3L209.4 236.3Z" fill="#26BED6"/>
<path d="M178.9 187.7H100.6C92.3 187.7 85.6 181 85.6 172.7V15C85.6 6.7 92.3 0 100.6 0H178.9C187.2 0 193.9 6.7 193.9 15V172.7C193.9 181 187.2 187.7 178.9 187.7Z" fill="#9FC43A"/>
<path d="M160.2 11.7H119.4C118.5 11.7 117.7 11 117.7 10C117.7 9.10005 118.4 8.30005 119.4 8.30005H160.2C161.1 8.30005 161.9 9.00005 161.9 10C161.8 11 161.1 11.7 160.2 11.7Z" fill="#809928"/>
<path d="M186.7 17.3H91.7999V161H186.7V17.3Z" fill="white"/>
<path d="M139.8 185.1C144.715 185.1 148.7 181.115 148.7 176.2C148.7 171.285 144.715 167.3 139.8 167.3C134.885 167.3 130.9 171.285 130.9 176.2C130.9 181.115 134.885 185.1 139.8 185.1Z" fill="#809928"/>
<path d="M157.3 64C163.7 64 169 69.1999 169 75.5999C169 81.9999 163.8 87.1999 157.3 87.1999C150.9 87.1999 145.6 81.9999 145.6 75.5999C145.7 69.1999 150.9 64 157.3 64ZM157.3 60.7C149 60.7 142.4 67.3999 142.4 75.5999C142.4 83.7999 149.1 90.5 157.3 90.5C165.6 90.5 172.2 83.7999 172.2 75.5999C172.2 67.3999 165.6 60.7 157.3 60.7Z" fill="#F79321"/>
<path d="M147.5 86.7999L145.2 84.4999L167 64.0999L169.2 66.3999L147.5 86.7999Z" fill="#F79321"/>
<path d="M140 77.9999C140 76.8999 140.1 75.6999 140.4 74.6999C139.9 74.5999 139.4 74.5999 138.9 74.5999C134.4 74.5999 130.8 78.1999 130.8 82.6999C130.8 87.1999 134.4 90.7999 138.9 90.7999C141.4 90.7999 143.6 89.6999 145.1 87.8999C142.1 86.2999 140 82.4999 140 77.9999Z" fill="#26BED6"/>
<path d="M127.6 71.7L122.2 66.3C122.2 66.3 130.8 56.4 146.6 61.2C144.1 63.5 142.4 65.7 141.8 67.4C138 67 132.2 66.5 127.6 71.7Z" fill="#26BED6"/>
<path d="M116.5 60.6998L111 55.2998C111 55.2998 120.7 44.2998 138.1 43.8998C155.5 43.4998 165.7 54.9998 165.7 54.9998L162.7 58.1998C162.7 58.1998 161.5 57.7998 157.3 57.4998C153.7 55.0998 134.4 43.5998 116.5 60.6998Z" fill="#26BED6"/>
<path d="M105.5 49.6L100.4 43.9C100.4 43.9 115.3 28.3 138.2 28C161.1 27.7 176.6 43.9 176.6 43.9L171.4 49.6C171.4 49.6 159.9 35.9 138.3 36.1C116.7 36.3 105.5 49.6 105.5 49.6Z" fill="#26BED6"/>
<path d="M187.1 195.9C205.27 195.9 220 191.692 220 186.5C220 181.309 205.27 177.1 187.1 177.1C168.93 177.1 154.2 181.309 154.2 186.5C154.2 191.692 168.93 195.9 187.1 195.9Z" fill="#157E89"/>
<path d="M159.9 170.1C159.9 170.1 138.6 164.9 134.7 169C130.8 173.1 141.9 186.6 159.4 187.9C176.9 189.2 200.4 197.9 200.4 197.9L201.7 189.7C201.7 189.7 174.3 178.8 170.3 177.2C166.4 175.4 161.3 172.2 159.9 170.1Z" fill="#032F51"/>
<path d="M192.2 170.4C192.2 170.4 212.1 166 216.9 167.4C221.7 168.7 225.7 173.1 217.6 179.1C209.5 185.1 165.4 194.5 159.5 198.5C155.9 196.1 154.3 190.4 154.3 190.4L175.9 179.3L167.9 175.9L192.2 170.4Z" fill="#003C71"/>
<path d="M171.8 124.6C171.8 124.6 161.1 129.3 159.9 130.5C158.7 131.7 160.3 149.4 161.6 155C162.9 160.6 159.4 171.8 159.4 171.8C159.4 171.8 174.9 184.2 192.3 171.1C190.7 161.9 188.7 155 191 145.8C190.5 133.7 191.5 128.6 191.5 128.6C191.5 128.6 182.8 125.7 180.8 124.3C178.8 123 171.8 124.6 171.8 124.6Z" fill="#F79321"/>
<path d="M159.9 130.5C159.9 130.5 151 142.7 149.3 150.7C151.5 152.1 157.8 153.1 157.8 153.1L161.3 141.5L159.9 130.5Z" fill="#F79321"/>
<path d="M191.5 128.7C191.5 128.7 190.1 140 191.4 144.8C192.5 149.7 195.5 153.1 195.5 153.1L203.7 149.4C203.7 149.4 197.8 132.9 191.5 128.7Z" fill="#F79321"/>
<path d="M176.7 155.1C174.3 155.1 172.4 153.2 172.4 150.8V143.7C172.4 141.3 174.3 139.4 176.7 139.4C179.1 139.4 181 141.3 181 143.7V150.8C181 153.2 179.1 155.1 176.7 155.1Z" fill="#26BED6"/>
<path d="M156.5 153.1L155.9 154.7L167.8 150.6L172.2 144.5L172.4 147.9L175.7 147.5C175.7 147.5 181.9 150.1 176.4 152.8C170.8 155.5 168.6 154.7 168.6 154.7C168.6 154.7 156.6 162.7 150.4 161.5C147.6 155.7 150.4 151.1 150.4 151.1L156.5 153.1Z" fill="#EDAB7D"/>
<path d="M202.1 150.3C202.1 150.3 203.5 159.3 202.1 161.6C195.8 161 184.7 154.3 184.2 154C183.7 153.7 178.1 154 176.4 152.2C174.7 150.4 172 146 181 147.7C181 145.7 181 145.4 181 145.4C181 145.4 184.5 147.8 185.3 150.4C188.1 152.1 197.2 155 197.2 155L196.1 152.6L202.1 150.3Z" fill="#EDAB7D"/>
<path d="M172.7 121.6C172.7 121.6 173.3 124.1 172.1 124.7C170.9 125.3 172.9 129.7 176.2 129.2C179.5 128.7 181.3 127.1 180.9 124.2C180 123.7 179.7 122.7 179.7 121.6C179.7 120.5 172.7 121.6 172.7 121.6Z" fill="#EDAB7D"/>
<path d="M169.4 112.5C169.4 112.5 170.1 121.8 176.2 124.2C181.3 122.1 183.2 122 185.2 111.4C184.8 103 170.8 95.2001 169.4 112.5Z" fill="#EDAB7D"/>
<path d="M178.2 103.4C178.2 103.4 176.3 108.3 174.8 109.1C173.3 109.9 169.8 112.7 169.8 112.7C169.8 112.7 170.1 118 173.1 122.8C176.1 127.7 169.8 130.7 169.8 130.7C169.8 130.7 171.5 134.3 171 134.9C170.5 135.5 161.7 138.8 160.9 130.7C160.1 122.6 163.9 117.2 162.2 112.9C160.5 108.5 163.8 95.9 168.1 94C172.6 92 176.7 91.1 179.3 93.6C182.7 93.2 187.9 92.4 189.2 98.6C190.6 104.8 188.4 110.1 189.7 112.6C191 115 191.4 122.9 188.9 125.6C186.4 128.3 191.4 135.9 186.2 134.2C181 132.5 179.6 132.8 180.4 124.6C179.6 123.6 178.6 122.6 181.1 119.4C183.6 116.2 185.9 111.1 184.4 108.6C183.1 106.2 180.5 102.9 178.2 103.4Z" fill="#542535"/>
<path d="M154.2 190.8C154.2 190.8 150.8 192 150.3 191.8C149.8 191.6 141.3 190.6 139.7 195.9C138.1 201.2 140.8 203.8 151.7 199.5C156.9 199.8 158.4 198.5 158.4 198.5L154.2 190.8Z" fill="#4D4E4E"/>
<path d="M201.8 189.6C201.8 189.6 203.5 187.4 205 188.5C206.5 189.6 208.1 192.3 211 192.9C213.9 193.5 220.5 196.3 219.2 200.8C217.9 205.3 215.4 204.3 212.6 202.5C209.8 200.7 201.4 198.8 200.4 197.8C199.4 196.9 201.8 189.6 201.8 189.6Z" fill="#4D4E4E"/>
</g>
<defs>
<clipPath id="clip0">
<rect width="280" height="252" fill="white"/>
</clipPath>
</defs>
</svg>
