<svg width="280" height="182" viewBox="0 0 280 182" fill="none" xmlns="http://www.w3.org/2000/svg">
<g clip-path="url(#clip0)">
<path d="M0 89.5001L280 42.9001L68.2 112.6L0 89.5001Z" fill="#26BED6"/>
<path d="M68.2 112.6L99.6 182L280 42.9001L68.2 112.6Z" fill="#003C71"/>
<path d="M99.6001 182L246.2 101.9L278 44.1001L129.8 136.1L99.6001 182Z" fill="#022B49"/>
<path d="M209.4 166.2L130.2 136.5L280 42.9001L209.4 166.2Z" fill="#26BED6"/>
<path d="M211.1 77.7C198.4 70.8 197.6 72.2 188.7 67.5C171.4 58.2 170.5 7.60004 128.7 8.70004C85.0999 9.80004 71.2999 123.9 141.6 130.9C154 132.2 173.1 134.6 194.7 127.8C227.5 117.5 225.8 85.7 211.1 77.7Z" fill="#F79321"/>
<path d="M128.8 8.70019C169.5 7.60019 171.4 61.5002 187.5 73.7002C190 80.2002 191.4 84.4002 191.4 84.4002C191.4 84.4002 145.1 96.3002 136.5 98.8002C127.9 101.3 119.8 104.4 114.7 101.7C98.7001 93.4002 98.7001 23.0002 128.8 8.70019Z" fill="#A55F19"/>
<path d="M104.7 23.6001C88.6 57.7001 98 120.6 150.1 123.7C162.6 124.4 181.8 126.1 203 118.5C209.4 116.2 214.4 113 218.2 109.5C214.5 117 207.1 124 194.7 127.8C173.1 134.6 154 132.1 141.6 130.9C86.8 125.4 83.1 55.0001 104.7 23.6001Z" fill="#A55F19"/>
<path d="M200.8 90.3001C200.8 90.3001 160.3 88.6001 123.9 103C123.9 103.1 186.9 120.1 200.8 90.3001Z" fill="#A55F19"/>
<path fill-rule="evenodd" clip-rule="evenodd" d="M179.9 121C179.9 121 195.1 124.2 187.4 126.3C179.7 128.4 171.3 128.1 173.2 123.6C175.1 119.1 179.9 121 179.9 121Z" fill="#4D4E4E"/>
<path fill-rule="evenodd" clip-rule="evenodd" d="M192.5 117.5C192.5 117.5 207.7 120.7 200 122.8C192.2 124.9 183.9 124.6 185.8 120.1C187.7 115.8 192.5 117.5 192.5 117.5Z" fill="#4D4E4E"/>
<path fill-rule="evenodd" clip-rule="evenodd" d="M147.6 74.9002C147.6 74.9002 163.9 73.6002 174.3 77.9002C184.7 82.2002 195.8 114.8 195.8 114.8C195.8 114.8 188.2 120.1 186 120.2C183.9 120.3 180 120.7 177.7 122.9C175.3 125.1 165.1 127 163.3 127.6C161.5 128.1 150 92.9002 140.2 94.0002C130.4 95.1002 123.9 94.2002 123.5 91.9002C123.1 89.6002 132.5 74.6002 147.6 74.9002Z" fill="#003C71"/>
<path fill-rule="evenodd" clip-rule="evenodd" d="M127.4 23.2002C127.4 23.2002 126.5 23.8002 124.8 23.9002C123.1 24.0002 122.6 24.7002 120.9 26.0002C119.2 27.4002 113.9 36.6002 112.7 44.4002C111.5 52.2002 109.5 63.6002 111 67.8002C112.5 72.0002 112.5 73.5002 114.6 74.0002C116.7 74.6002 115.8 73.4002 117.1 74.4002C118.4 75.5002 117.6 73.3002 118.5 76.8002C119.4 80.4002 121.2 88.4002 123.9 92.1002C126.5 95.8002 126.5 97.7002 127.7 95.3002C129 92.9002 130.4 87.9002 135.6 85.8002C140.7 83.7002 140 80.4002 142.3 78.7002C144.6 77.0002 153.7 78.3002 154.1 75.6002C154.5 72.8002 159.6 64.1002 151.1 55.3002C146.3 50.3002 149.1 42.2002 145.2 38.5002C141.3 34.8002 140.4 30.4002 138.4 30.1002C136.5 29.8002 135.9 28.8002 133.9 27.8002C131.9 26.8002 127.4 23.2002 127.4 23.2002Z" fill="#9FC43A"/>
<path fill-rule="evenodd" clip-rule="evenodd" d="M122.1 72.7001C122.1 72.7001 130.6 74.1001 137.7 73.9001C144.8 73.8001 144.7 73.4001 146.5 73.3001C148.5 73.2001 149.8 73.0001 152.2 72.1001C154.5 71.2001 154.8 70.8001 155.5 69.9001C156.2 69.0001 155.6 67.3001 155.3 66.2001C155.1 65.1001 153.3 65.2001 150.9 65.5001C148.5 65.8001 146.2 68.6001 142.5 69.1001C138.8 69.6001 127.1 65.6001 126.6 65.7001C126 65.9001 125.3 69.3001 122.1 72.7001Z" fill="#EDAB7D"/>
<path fill-rule="evenodd" clip-rule="evenodd" d="M117 31.8002C115.2 35.4002 113.3 40.1002 112.6 44.4002C111.4 52.2002 109.4 63.6002 110.9 67.8002C112.4 72.0002 112.4 73.5002 114.5 74.0002C116.6 74.6002 115.7 73.4002 117 74.4002C118.3 75.5002 117.5 73.3002 118.4 76.8002C119.3 80.4002 121.1 88.4002 123.8 92.1002C126.4 95.8002 126.4 97.7002 127.6 95.3002C128.5 93.6002 129.5 90.5002 132 88.1002C130.6 88.6002 129.1 88.7002 127.6 88.1002C123.3 86.4002 119.6 74.8002 119.6 74.8002C119.6 74.8002 121.6 76.1002 122.8 75.1002C124 74.1002 128 66.3002 127.6 64.7002C127.1 63.1002 126 64.7002 125.2 62.9002C124.8 62.0002 125.8 60.0002 127 57.3002C127.5 58.1002 128.2 58.9002 129.4 59.7002C133.3 62.0002 138.2 59.7002 138.2 59.7002C138.2 59.7002 134.8 60.0002 132 58.1002C130.4 57.1002 129.6 54.1002 129.2 51.8002C129.7 50.4002 130.1 48.9002 130.2 47.5002C131.1 40.7002 127.3 35.4002 127.3 35.4002C127.3 35.4002 129.3 39.7002 127.4 46.4002C125.4 53.2002 122.5 55.5002 122.8 58.1002C123.1 60.7002 116.8 65.4002 118 65.2002C119.3 65.1002 124.2 61.4002 123.5 62.1002C122.7 62.8002 121.9 64.1002 122 64.1002C122.2 64.1002 124 62.6002 124.2 63.2002C124.4 63.7002 123.4 64.2002 121.8 66.3002C120.2 68.4002 118.9 72.7002 116.4 72.9002C114 73.1002 113.3 71.3002 114 69.6002C114.7 67.8002 114.8 68.8002 112.9 68.2002C111 67.7002 112.7 48.8002 114.2 41.6002C115.7 34.7002 117 31.9002 117 31.8002ZM127.4 23.2002C127.4 23.2002 126.5 23.8002 124.8 23.9002C124.2 23.9002 123.7 24.0002 123.3 24.2002C123.3 24.2002 125.7 24.1002 129 26.6002C132.3 29.2002 137.2 32.3002 137.2 31.3002C137.2 30.3002 136.8 30.2002 137.9 30.3002C138.2 30.3002 138.5 30.3002 138.8 30.2002C138.7 30.1002 138.5 30.1002 138.4 30.1002C136.5 29.8002 135.9 28.8002 133.9 27.8002C131.9 26.8002 127.4 23.2002 127.4 23.2002Z" fill="#6A7F1D"/>
<path fill-rule="evenodd" clip-rule="evenodd" d="M145.5 13.4C145.6 16.7 142.9 26.2 139 26.4C137.2 26.5 135 25.7 134.8 25.9C134.5 26.1 134.5 28.8 134.5 28.8C134.5 28.8 130.7 26.6 128.8 25.6C127 24.7 126.3 24.6 126.3 24.6L127.3 20.1C127.3 20.1 127.7 18.5 127.6 17.7C127.4 16.9 125.2 6.09998 130.9 5.99998C136.6 5.89998 143.5 8.19998 145 9.69998C146.3 11.3 146.1 12.3 145.5 13.4Z" fill="#EDAB7D"/>
<path fill-rule="evenodd" clip-rule="evenodd" d="M144.7 12.6001C144.2 13.1001 143.4 13.5001 142.2 13.9001C138.7 14.9001 136.7 15.7001 134.9 18.8001C133.1 21.9001 133.9 25.8001 133.9 25.8001C133.9 25.8001 132.2 19.9001 133 16.8001C133 16.6001 133.1 16.4001 133.2 16.1001C133.4 15.5001 133.7 15.1001 134 14.8001C134.4 14.2001 134.8 13.8001 134.8 13.8001C134.4 14.0001 133.9 14.1001 133.5 14.3001C130.9 15.1001 129.8 17.9001 129.8 17.9001C129.8 17.9001 129.5 16.6001 130.3 15.6001C131.1 14.6001 129.9 13.5001 128.7 14.3001C127.6 15.1001 127.8 17.7001 128.1 18.2001C128.4 18.8001 127.6 19.1001 127.5 19.4001C127.5 19.7001 127.3 20.2001 127.3 20.2001C127.3 20.2001 127.8 17.3001 126.4 15.8001C125 14.2001 125.9 9.10008 125.9 9.10008C125.9 9.10008 121.5 8.50008 122.1 4.10008C122.7 -0.299921 126 -0.49992 127.9 0.40008C129.9 1.30008 130.3 3.00008 130.3 3.00008C130.3 3.00008 135.5 0.20008 141.1 2.70008C142.1 3.20008 142.9 3.70008 143.6 4.30008C143.6 4.30008 146.2 5.80008 146.7 9.60008C147.2 13.4001 145.5 15.2001 145.5 14.8001C145.5 14.5001 144.7 12.6001 144.7 12.6001Z" fill="#935212"/>
</g>
<defs>
<clipPath id="clip0">
<rect width="280" height="182" fill="white"/>
</clipPath>
</defs>
</svg>
