<svg width="280" height="255" viewBox="0 0 280 255" fill="none" xmlns="http://www.w3.org/2000/svg">
<g clip-path="url(#clip0)">
<path d="M280 134.9V224.2C280 240.8 266.6 254.2 250 254.2L99.7998 254.3C83.1998 254.3 69.7998 240.9 69.7998 224.3V135C69.7998 118.4 83.1998 105 99.7998 105L250 104.9C266.6 104.9 280 118.3 280 134.9Z" fill="#597D39"/>
<path d="M279.1 137.8V224.5C279.1 241.1 265.7 254.5 249.1 254.5L98.8999 254.6C82.2999 254.6 68.8999 241.2 68.8999 224.6V137.9C68.8999 121.3 82.2999 107.9 98.8999 107.9L249.1 107.8C265.7 107.8 279.1 121.3 279.1 137.8Z" fill="#9FC43A"/>
<path d="M30.8 255C47.8104 255 61.6 251.642 61.6 247.5C61.6 243.358 47.8104 240 30.8 240C13.7896 240 0 243.358 0 247.5C0 251.642 13.7896 255 30.8 255Z" fill="#157E89"/>
<path d="M41.4 129.2C39.9 128.2 38.8 127.8 38.4 127.6C37.6 127.1 36.7 126 36.1 123.1C34.1 123.4 30.7 124 29 125.2C24.7 128.5 19.5 171.8 23.1 173.6C25.9 175 26 172.5 26.3 171.5C26.6 167.5 30.2 141 31.8 144.2C32.3 145.2 33.4 147.5 33.4 154.3C33.4 157.7 33.2 162.6 32 168.5C34.9 169.9 39.4 171.4 45 170.7C51 170 55.4 167 57.8 165C57.8 164.4 57.9 163.8 57.9 163.1C58.3 152 57.6 142.2 56.6 134.1C56.6 134.1 56.2 132.8 56.6 130.8C57 128.8 58.1 124.6 61 119.7C64.8 113.2 68.9 98.8 69.5 97.1C68.8 97.2 68.6 95.3 67.7 95.1C67.1 95 66.5 94.8 66 94.5C65.8 95 65.6 95.5 65.6 95.5C65.6 97.3 59.8 107.2 54.6 113.3C52.3 116 48.7 118.5 46.9 120.5C47.6 123.5 47.1 125.3 46.5 126.4C45.9 127.3 45.3 127.6 44.9 128.3C44.8 128.5 44.7 128.7 44.6 129C44.2 130.7 45.5 132.2 46.5 134C48.2 137 48.3 139.8 48.6 145.5C48.8 148.8 48.9 151.4 47.9 154.7C47.4 156.3 46.8 157.6 46.3 158.5C45.2 157.2 44.1 155.8 43 154.5C43.3 151 43.6 147.5 43.9 144C44 143 44.3 140.6 44.4 137.4C44.4 133.9 44.2 131.3 42.7 130.1C42.6 130 42.4 129.9 41.9 129.6C41.7 129.4 41.5 129.3 41.4 129.2Z" fill="#F79321"/>
<path d="M9.8999 242C9.0999 243 8.6999 243.9 8.3999 244.6C8.3999 245.3 8.5999 247.4 9.9999 248.7C12.0999 250.6 15.7999 249.7 17.6999 247.2C19.2999 245.1 18.9999 242.4 18.7999 241.3C17.5999 241.4 15.8999 241.5 13.9999 240.8C13.2999 240.6 12.5999 240.2 12.0999 239.9C11.7999 240.9 10.7999 240.9 9.8999 242Z" fill="#032F51"/>
<path d="M12.2001 240C12.8001 240.3 13.4001 240.6 14.1001 240.9C16.0001 241.5 17.7001 241.5 18.9001 241.4C18.9001 241.2 18.8001 241 18.8001 240.9C22.2001 234.4 24.7001 229 26.3001 225.5C27.9001 222 30.4001 216.5 35.4001 204.5C38.7001 196.5 40.4001 192.2 41.3001 191.6C41.7001 190.3 42.1001 189 42.6001 187.7C44.5001 182.3 46.8001 177.7 48.9001 174C48.9001 175.5 49.0001 177.8 48.9001 180.5C48.8001 183.3 48.5001 187.9 46.4001 199.2C46.0001 201.3 44.8001 207.2 42.3001 219.1C41.6001 222.5 41.4001 223.5 41.1001 225.2C39.9001 231.7 39.1001 237.1 38.7001 240.6C38.9001 240.6 39.1001 240.6 39.3001 240.7C39.2001 241 39.2001 241.3 39.1001 241.7C39.9001 242 40.8001 242.3 41.8001 242.4C43.0001 242.5 44.1001 242.4 45.0001 242.2C45.0001 241.8 45.2001 241.6 45.2001 241.6C45.3001 241.4 45.5001 241.2 45.6001 241.2C48.1001 230.1 49.9001 220.6 51.3001 213.4C52.9001 204.8 54.4001 196.4 55.9001 185.2C57.0001 177 57.7001 171.6 58.0001 165.2C55.6001 167.2 51.2001 170.1 45.2001 170.9C39.6001 171.6 35.1001 170.1 32.2001 168.7C32.2001 168.8 32.2001 168.8 32.2001 168.9C30.9001 171.9 29.0001 176.6 27.6001 182.5C26.6001 186.8 26.8001 187.3 25.8001 192.2C24.5001 198.9 22.7001 204.1 19.3001 214.6C17.4001 220.3 17.0001 221.1 15.5001 226C13.9001 231 12.8001 235.1 12.1001 237.9C12.2001 238.5 12.4001 239.3 12.2001 240Z" fill="#003C71"/>
<path d="M32.6999 105.5C30.0999 105 29.1999 109.5 29.2999 110.9C29.3999 112.3 31.2999 113.4 31.3999 114.6C31.4999 115.8 34.1999 118.8 35.3999 119.4C35.8999 119.6 36.3999 119.7 36.8999 119.8C35.8999 119 35.1999 118.2 34.7999 117.5C34.1999 116.6 33.7999 115.7 33.9999 115.6C34.1999 115.4 34.5999 116.1 35.5999 116.2C36.1999 116.3 36.9999 116.1 37.0999 115.7C37.1999 115.1 35.6999 114.8 35.0999 113.4C34.0999 111 35.2999 108.6 35.3999 108.4C35.9999 108.7 36.7999 109 37.7999 109.1C40.0999 109.4 41.9999 108.6 43.0999 107.9C42.7999 107.4 42.5999 107.1 42.5999 107.1C42.5999 107.1 45.0999 106.2 42.8999 102.3C40.6999 98.3999 36.3999 102.6 36.3999 102.6C33.2999 101.6 32.6999 105.5 32.6999 105.5Z" fill="black"/>
<path d="M33.8997 115.5C33.6997 115.7 34.0997 116.6 34.6997 117.4C35.0997 118 35.7997 118.9 36.7997 119.7C37.4997 119.7 38.0997 119.6 38.0997 119.6L37.7997 122.6C37.7997 122.6 37.5997 122.7 37.2997 122.7C38.9997 126.1 41.7997 127.4 43.2997 126.6C44.3997 126 45.0997 124.3 45.1997 122.2C44.8997 122.5 44.6997 122.6 44.6997 122.6C44.6997 122.6 43.2997 119.9 43.9997 119.8C44.5997 119.6 44.8997 119.2 45.8997 117C46.6997 115.2 43.9997 109.9 42.8997 107.8C41.7997 108.5 39.7997 109.3 37.5997 109C36.6997 108.9 35.8997 108.6 35.1997 108.3C35.0997 108.5 33.8997 110.9 34.8997 113.3C35.4997 114.7 37.0997 115 36.8997 115.6C36.7997 116 35.9997 116.2 35.3997 116.1C34.5997 116.1 34.0997 115.4 33.8997 115.5Z" fill="#EDAB7D"/>
<path d="M36.1001 123C36.7001 125.9 37.6001 127.1 38.4001 127.5C38.8001 127.7 39.9001 128.2 41.4001 129.1C41.6001 128.3 42.2001 127.6 42.9001 127.5C43.6001 127.3 44.4001 127.7 44.8001 128.4C45.2001 127.7 45.9001 127.4 46.4001 126.5C47.1001 125.4 47.5001 123.7 46.8001 120.6C46.1001 121.3 45.5001 121.9 45.2001 122.2C45.1001 124.3 44.4001 126.1 43.3001 126.6C41.8001 127.4 39.0001 126.1 37.3001 122.7C37.1001 122.8 36.7001 122.9 36.1001 123Z" fill="#003C71"/>
<path d="M41.3999 129.2C41.5999 129.3 41.6999 129.4 41.8999 129.5C42.2999 129.8 42.4999 129.9 42.6999 130C44.1999 131.3 44.3999 133.8 44.3999 137.3C44.3999 140.5 43.9999 143 43.8999 143.9C43.5999 147.5 43.2999 151 42.9999 154.4C44.0999 155.7 45.1999 157.1 46.2999 158.4C46.7999 157.6 47.3999 156.3 47.8999 154.6C48.8999 151.3 48.7999 148.7 48.5999 145.4C48.2999 139.7 48.1999 136.9 46.4999 133.9C45.4999 132 44.0999 130.6 44.5999 128.9C44.6999 128.6 44.7999 128.4 44.8999 128.2C44.3999 127.5 43.6999 127.1 42.9999 127.3C42.1999 127.7 41.5999 128.3 41.3999 129.2Z" fill="#003C71"/>
<path d="M41.1999 191.6C41.2999 191.5 41.3999 191.5 41.4999 191.5C42.6999 191.8 41.6999 199.5 40.3999 211.9C39.1999 224.1 38.3999 234 37.8999 240.5C38.0999 240.5 38.2999 240.5 38.4999 240.6C38.8999 237 39.5999 231.7 40.8999 225.2C41.1999 223.5 41.3999 222.5 42.0999 219.1C44.4999 207.3 45.7999 201.3 46.1999 199.2C48.2999 187.9 48.5999 183.3 48.6999 180.5C48.7999 177.8 48.7999 175.6 48.6999 174C46.5999 177.7 44.3999 182.3 42.3999 187.7C41.9999 189 41.5999 190.3 41.1999 191.6Z" fill="#032F51"/>
<path d="M38.8001 242.2C37.1001 243.2 36.3001 245.3 36.7001 247.1C37.1001 248.9 38.7001 249.5 38.9001 249.6C44.4001 250.2 49.9001 250.7 55.4001 251.3C55.3001 250.6 55.0001 249.5 54.2001 248.6C53.4001 247.6 52.6001 247.3 50.9001 246.7C50.0001 246.3 45.1001 244.3 44.8001 242.6C44.8001 242.4 44.8001 242.2 44.8001 242.1C43.9001 242.3 42.9001 242.4 41.6001 242.3C40.6001 242.2 39.7001 241.9 38.9001 241.6C38.9001 241.8 38.8001 242 38.8001 242.2Z" fill="#032F51"/>
<path d="M70.5001 89.0001C70.6001 88.8001 71.4001 85.8001 72.0001 83.7001C72.5001 81.6001 70.6001 86.1001 70.1001 86.9001C69.6001 87.7001 68.0001 89.3001 67.5001 89.8001C67.0001 90.3001 66.8001 93.3001 66.8001 93.8001C66.8001 94.0001 66.4001 94.4001 66.1001 94.8001C66.5001 95.2001 66.9001 95.6001 67.4001 96.0001C68.2001 96.6001 68.9001 96.9001 69.6001 97.2001V97.1001C69.8001 95.6001 71.1001 95.0001 71.5001 94.2001C72.0001 93.4001 72.6001 91.6001 72.4001 90.7001C72.3001 90.4001 71.7001 90.1001 71.5001 89.9001C71.2001 89.6001 70.6001 88.7001 70.5001 89.0001Z" fill="#EDAB7D"/>
<path d="M24.1998 175.6C24.1998 175.8 24.2998 179.8 23.6998 179.4C23.0998 179 23.3998 175.2 22.9998 175.1C22.5998 175 22.6998 176.8 22.4998 178.3C22.2998 179.9 21.7998 175.3 21.7998 175.3L22.1998 171.6C22.2998 171.5 22.4998 171.4 22.5998 171.2C22.7998 171.1 22.9998 171.1 23.1998 171C24.3998 170.8 25.4998 171 26.2998 171.2C26.2998 171.5 26.2998 171.6 26.2998 171.6C26.2998 171.6 28.7998 175 29.1998 176.2C29.5998 177.4 26.8998 174.1 26.4998 174.1C25.9998 174.1 26.4998 174.9 26.4998 174.9C26.4998 174.9 27.8998 180.1 27.1998 180.5C26.4998 180.9 25.7998 175.6 25.5998 175.6C25.3998 175.6 25.9998 180.3 25.3998 180.1C24.6998 180.2 24.2998 175.9 24.1998 175.6Z" fill="#EDAB7D"/>
<path d="M72.6001 35.7001L165.4 15.6001L98.4001 44.4001L72.6001 35.7001Z" fill="#26BED6"/>
<path d="M98.3999 44.4001L110.2 70.7001L165.4 15.6001L98.3999 44.4001Z" fill="#003C71"/>
<path d="M110.2 70.7L155.6 32L164.6 16L121.7 53.3L110.2 70.7Z" fill="#022B49"/>
<path d="M151.8 64.8001L121.8 53.5001L165.4 15.6001L151.8 64.8001Z" fill="#26BED6"/>
<path d="M118.726 0.0467479L117.091 0.512207L129.603 44.4665L131.239 44.001L118.726 0.0467479Z" fill="#935212"/>
<path d="M98.3999 4.2L117.1 0.5C117.1 0.5 121.9 17.3 122 17.7C122.1 18.1 102.4 22.2 102.4 22.2L98.3999 4.2Z" fill="#DB1919"/>
<path d="M110.2 6.2002L112.4 9.1002L116 8.9002L114 11.8002L115.3 15.2002L111.8 14.2002L109.1 16.4002L109 12.9002L105.9 10.9002L109.3 9.7002L110.2 6.2002Z" fill="#FFFF00"/>
<path d="M260 237.2H89C86.2 237.2 84 235 84 232.2V127.3C84 124.5 86.2 122.3 89 122.3H260C262.8 122.3 265 124.5 265 127.3V232.2C265 235 262.7 237.2 260 237.2Z" fill="white"/>
<path d="M265 143.8H84V127.3C84 124.5 86.2 122.3 89 122.3H260C262.8 122.3 265 124.5 265 127.3V143.8Z" fill="#D1D1D1"/>
<path d="M148.3 159.1H95.2998V219.7H148.3V159.1Z" fill="#D1D1D1"/>
<path d="M110.3 174.4C109.4 172.5 110.4 168.9 111.5 167.2C115.4 160.9 125.9 160.7 130.8 165.6C135.5 172.6 129.5 184.8 122.5 182.5C115.4 180.2 114 182.2 110.3 174.4Z" fill="black"/>
<path d="M118.7 198.4H126.2L126.3 189.2H118.9L118.7 198.4Z" fill="#F0A87D"/>
<path d="M118.8 189.1C118.8 189.1 121.1 192.3 126.1 192.3V189.1H118.8Z" fill="#DB8E67"/>
<path d="M129.4 177.9C129.4 177.9 129.9 175.2 132 175.2C134.2 175.2 132.5 181 130 182C128.7 182.7 129.4 177.9 129.4 177.9Z" fill="#F0A87D"/>
<path d="M115.5 177.9C115.5 177.9 115 175.2 112.9 175.2C110.7 175.2 112.4 181 114.9 182C116.1 182.7 115.5 177.9 115.5 177.9Z" fill="#F0A87D"/>
<path d="M122.4 190.7C118.8 190.8 115.3 187.3 113.7 181.2V173.2C113.7 168 117.6 163.7 122.4 163.7C127.2 163.7 131.1 168 131.1 173.2V181.2C130.5 186.4 126.2 190.7 122.4 190.7Z" fill="#F0A87D"/>
<path d="M112 199.3V198.9L110.3 218.1L133 219L134.7 199.8C134.7 199.8 132.1 197.3 128.7 196.9C127.6 196.8 124.9 195.5 123.7 195.5C119.5 195.5 115.4 196.9 112 199.3Z" fill="#FFC0BE"/>
<path d="M113.1 165.8C113.2 165.8 119.9 170.3 120.6 170.6C123.9 172.2 128.1 173.6 131.5 173.5C135.3 173.4 130.9 167.6 129.9 166.3C127.3 162.8 121.5 160.9 118.1 162.9L113.1 165.8Z" fill="black"/>
<path d="M116.5 163.9L117.2 165.3C119.1 167.7 115.1 173.1 113.9 174.9C112.5 176.9 111.4 172.3 111.5 170.4C111.5 167.8 114.5 161.5 116.5 163.9Z" fill="black"/>
<path d="M146.7 219.6L146.5 217.9C143.9 207 139.6 192.4 128.3 194.4C128.3 194.4 128.1 195.6 122.4 195.6C116.6 195.6 116.6 194.7 116.6 194.7C116.6 194.7 103.1 192.6 98.5 217.2H98.4L98 219.6H146.7Z" fill="#26BED6"/>
<path d="M197.8 159.1H160.8V167H197.8V159.1Z" fill="#D1D1D1"/>
<path d="M220.7 175.8H160.8V183.7H220.7V175.8Z" fill="#D1D1D1"/>
<path d="M246.8 192.7H160.8V200.6H246.8V192.7Z" fill="#D1D1D1"/>
<path d="M238.3 209.7H160.8V217.6H238.3V209.7Z" fill="#D1D1D1"/>
<path d="M145.7 138.5V128.1H147.8V138.5H145.7Z" fill="#003C71"/>
<path d="M150 138.5V128.1H152.9C156.9 128.1 159 129.8 159 133.3C159 136.8 157 138.5 152.9 138.5H150ZM152.1 129.8V136.9H153.3C154.2 136.9 155 136.6 155.7 136C156.4 135.3 156.8 134.5 156.8 133.4C156.8 132.3 156.4 131.4 155.7 130.8C155 130.2 154.2 129.9 153.3 129.9H152.1V129.8Z" fill="#003C71"/>
<path d="M172.6 136.6L172.7 138.3C171.8 138.5 171 138.6 170.3 138.6C168.5 138.6 167.2 138.2 166.2 137.3C165.1 136.4 164.6 135.1 164.6 133.4C164.6 131.6 165.1 130.3 166.1 129.3C167.1 128.3 168.5 127.8 170.3 127.8C171.1 127.8 171.9 127.9 172.7 128.2L172.5 130C171.8 129.6 171.1 129.4 170.2 129.4C169.1 129.4 168.3 129.8 167.6 130.5C167 131.2 166.6 132.1 166.6 133.2C166.6 134.3 166.9 135.2 167.6 135.9C168.2 136.6 169.1 136.9 170.2 136.9C171.3 137.1 172 136.9 172.6 136.6Z" fill="#003C71"/>
<path d="M173.2 138.5L177.3 128.1H179.7L183.8 138.5H181.5L180.6 136.1H176.3L175.4 138.5H173.2ZM179.9 134.5L178.4 130.2L176.9 134.5H179.9Z" fill="#003C71"/>
<path d="M184.9 138.5V128.1H187.2C188.8 128.1 189.9 128.2 190.5 128.4C191.6 128.8 192.1 129.6 192.1 130.9C192.1 131.5 191.9 132.1 191.5 132.5C191.1 132.9 190.6 133.2 189.9 133.3C190.4 133.3 190.7 133.7 191 134.4L192.7 138.5H190.4L189.1 135.2C188.9 134.8 188.8 134.5 188.6 134.4C188.4 134.2 188.1 134.1 187.7 134.1H187V138.4H184.9V138.5ZM187 129.8V132.6H187.7C189.2 132.6 189.9 132.1 189.9 131.2C189.9 130.6 189.7 130.3 189.2 130C188.9 129.9 188.4 129.8 187.7 129.8H187Z" fill="#003C71"/>
<path d="M194.3 138.5V128.1H197.2C201.2 128.1 203.3 129.8 203.3 133.3C203.3 136.8 201.3 138.5 197.2 138.5H194.3ZM196.4 129.8V136.9H197.6C198.5 136.9 199.3 136.6 200 136C200.7 135.3 201.1 134.5 201.1 133.4C201.1 132.3 200.7 131.4 200 130.8C199.3 130.2 198.5 129.9 197.6 129.9H196.4V129.8Z" fill="#003C71"/>
</g>
<defs>
<clipPath id="clip0">
<rect width="280" height="255" fill="white"/>
</clipPath>
</defs>
</svg>
