<svg width="300" height="84" viewBox="0 0 300 84" fill="none" xmlns="http://www.w3.org/2000/svg">
<g clip-path="url(#clip0)">
<path d="M178.393 17.1428C178.286 12.75 177 11.4642 174.214 11.1428C172.5 11.1428 172.393 11.1428 172.393 11.1428C172.393 11.1428 172.393 9.32139 172.393 5.14282C172.286 -0.535752 169.393 -0.321466 166.929 0.214248C164.571 0.749963 134.571 9.32139 128.571 10.7142C122.571 12.1071 123.964 15.4285 123.964 17.8928C123.964 17.8928 123.857 76.9285 123.857 79.3928C123.857 81.8571 125.893 83.5714 128.25 83.5714C130.607 83.5714 170.464 83.5714 173.893 83.5714C177.321 83.5714 178.393 81.1071 178.393 78.5357C178.393 75.9643 178.393 21.5357 178.393 17.1428ZM168.536 11.25L142.714 11.1428L168.536 3.74996V11.25Z" fill="#9FC43A"/>
<path d="M151.071 38.4644C142.607 38.4644 135.75 45.3215 135.75 53.7858C135.75 62.2501 142.607 69.1072 151.071 69.1072C159.536 69.1072 166.393 62.2501 166.393 53.7858C166.5 45.3215 159.536 38.4644 151.071 38.4644ZM143.036 53.7858C143.036 51.4286 143.357 49.1786 144 47.2501C145.821 47.8929 148.071 48.4286 150.429 48.5358V58.3929C147.964 58.5001 145.714 59.0358 143.893 59.6786C143.357 57.9644 143.036 55.9286 143.036 53.7858ZM151.821 39.8572C154.286 40.1786 156.536 42.5358 157.821 45.9644C156.107 46.6072 154.071 47.0358 151.821 47.1429V39.8572ZM150.429 39.8572V47.1429C148.179 47.0358 146.143 46.5001 144.429 45.9644C145.714 42.5358 147.964 40.2858 150.429 39.8572ZM150.429 59.7858V67.6072C147.857 67.1786 145.607 64.7143 144.321 61.0715C145.929 60.4286 148.071 59.8929 150.429 59.7858ZM151.821 67.6072V59.7858C154.071 59.8929 156.214 60.4286 157.929 61.0715C156.643 64.7143 154.393 67.2858 151.821 67.6072ZM151.821 58.5001V48.6429C154.286 48.5358 156.429 48.0001 158.25 47.3572C158.893 49.2858 159.214 51.5358 159.214 53.7858C159.214 55.9286 158.893 57.9643 158.464 59.7858C156.536 59.1429 154.286 58.5001 151.821 58.5001ZM159.429 46.8215C160.714 46.2858 161.679 45.7501 162.214 45.4286C163.929 47.7858 165 50.6786 165 53.7858C165 56.7858 164.036 59.4643 162.429 61.7143C161.893 61.3929 160.929 60.8572 159.536 60.2144C160.071 58.2858 160.393 56.0358 160.393 53.6786C160.5 51.2144 160.179 48.8572 159.429 46.8215ZM161.357 44.3572C160.821 44.6786 159.964 45.1072 159 45.5358C158.25 43.6072 157.179 42.0001 156 40.7144C158.036 41.4644 159.964 42.7501 161.357 44.3572ZM146.143 40.7144C144.964 41.8929 143.893 43.5001 143.143 45.4286C142.071 45.0001 141.321 44.5715 140.786 44.2501C142.286 42.7501 144.107 41.4644 146.143 40.7144ZM139.929 45.4286C140.464 45.7501 141.429 46.2858 142.714 46.8215C142.071 48.9644 141.643 51.3215 141.643 53.7858C141.643 56.1429 141.964 58.2858 142.5 60.3215C141.107 60.9643 140.036 61.5001 139.607 61.8215C138 59.5715 137.036 56.7858 137.036 53.7858C137.143 50.6786 138.107 47.7858 139.929 45.4286ZM140.464 62.8929C140.893 62.5715 141.75 62.1429 142.929 61.6072C143.679 63.7501 144.857 65.5715 146.143 66.8572C144 66.0001 141.964 64.6072 140.464 62.8929ZM156 66.8572C157.286 65.5715 158.357 63.7501 159.214 61.6072C160.393 62.1429 161.25 62.5715 161.786 62.8929C160.179 64.6072 158.25 66.0001 156 66.8572Z" fill="white"/>
<path d="M133.071 29.6786V24.2144H134.464C135.964 24.2144 136.714 24.7501 136.714 25.8215C136.714 26.4644 136.5 26.8929 136.071 27.2144C135.75 27.4286 135.214 27.6429 134.571 27.6429H134.143V29.6786H133.071ZM134.25 25.0715V26.7858H134.678C135.321 26.7858 135.75 26.4644 135.75 25.9286C135.75 25.3929 135.428 25.0715 134.678 25.0715H134.25Z" fill="white"/>
<path d="M137.035 29.6786L139.178 24.2144H140.464L142.607 29.6786H141.428L140.999 28.3929H138.749L138.321 29.6786H137.035ZM140.571 27.5358L139.821 25.2858L139.071 27.5358H140.571Z" fill="white"/>
<path d="M146.25 24.3215L146.143 25.1786C145.821 25.0715 145.393 24.9643 145.071 24.9643C144.857 24.9643 144.643 24.9643 144.535 25.0715C144.321 25.1786 144.214 25.3929 144.214 25.7143C144.214 25.9286 144.428 26.1429 144.857 26.3572C145.5 26.6786 145.928 26.7857 146.035 26.8929C146.464 27.2143 146.678 27.5357 146.678 28.0715C146.678 28.6072 146.464 29.0357 146.035 29.3572C145.714 29.5715 145.178 29.7857 144.643 29.7857C144.321 29.7857 143.785 29.6786 143.25 29.5715L143.357 28.6072C143.785 28.8215 144.214 28.9286 144.643 28.9286C144.857 28.9286 145.071 28.8215 145.285 28.7143C145.5 28.6072 145.607 28.3929 145.607 28.1786C145.607 27.8572 145.393 27.6429 144.964 27.5357C144.214 27.2143 143.893 27 143.785 27C143.357 26.6786 143.143 26.3572 143.143 25.8215C143.143 25.2857 143.357 24.8572 143.785 24.5357C144.107 24.3215 144.535 24.1072 145.071 24.1072C145.5 24.1072 145.928 24.1072 146.25 24.3215Z" fill="white"/>
<path d="M150.642 24.3215L150.535 25.1786C150.214 25.0715 149.785 24.9643 149.464 24.9643C149.249 24.9643 149.035 24.9643 148.928 25.0715C148.714 25.1786 148.607 25.3929 148.607 25.7143C148.607 25.9286 148.821 26.1429 149.249 26.3572C149.892 26.6786 150.321 26.7857 150.428 26.8929C150.857 27.2143 151.071 27.5357 151.071 28.0715C151.071 28.6072 150.857 29.0357 150.428 29.3572C150.107 29.5715 149.571 29.7857 149.035 29.7857C148.714 29.7857 148.178 29.6786 147.642 29.5715L147.749 28.6072C148.178 28.8215 148.607 28.9286 149.035 28.9286C149.249 28.9286 149.464 28.8215 149.678 28.7143C149.892 28.6072 149.999 28.3929 149.999 28.1786C149.999 27.8572 149.785 27.6429 149.357 27.5357C148.607 27.2143 148.285 27 148.178 27C147.749 26.6786 147.535 26.3572 147.535 25.8215C147.535 25.2857 147.749 24.8572 148.178 24.5357C148.499 24.3215 148.928 24.1072 149.464 24.1072C149.785 24.1072 150.214 24.1072 150.642 24.3215Z" fill="white"/>
<path d="M151.929 29.6786V24.2144H153.322C154.822 24.2144 155.572 24.7501 155.572 25.8215C155.572 26.4644 155.357 26.8929 154.929 27.2144C154.607 27.4286 154.072 27.6429 153.429 27.6429H153V29.6786H151.929ZM153 25.0715V26.7858H153.429C154.072 26.7858 154.5 26.4644 154.5 25.9286C154.5 25.3929 154.179 25.0715 153.429 25.0715H153Z" fill="white"/>
<path d="M156.107 26.8929C156.107 26.0357 156.322 25.3929 156.857 24.8572C157.286 24.3215 158.036 24.1072 158.893 24.1072C159.75 24.1072 160.393 24.3215 160.929 24.8572C161.357 25.3929 161.679 26.0357 161.679 26.8929C161.679 27.75 161.465 28.3929 161.036 28.9286C160.607 29.4643 159.857 29.6786 159 29.6786C158.143 29.6786 157.5 29.4643 156.965 28.9286C156.322 28.3929 156.107 27.75 156.107 26.8929ZM157.179 26.8929C157.179 27.4286 157.286 27.8572 157.5 28.2857C157.822 28.7143 158.143 28.9286 158.679 28.9286C159.215 28.9286 159.643 28.7143 159.857 28.2857C160.072 27.9643 160.179 27.4286 160.179 26.8929C160.179 26.3572 160.072 25.9286 159.857 25.6072C159.536 25.1786 159.215 24.9643 158.679 24.9643C158.143 24.9643 157.822 25.1786 157.5 25.6072C157.393 25.9286 157.179 26.3572 157.179 26.8929Z" fill="white"/>
<path d="M162.321 29.6786V24.2144H163.5C164.357 24.2144 164.893 24.3215 165.214 24.4286C165.75 24.6429 166.071 25.0715 166.071 25.7144C166.071 26.0358 165.964 26.3572 165.75 26.5715C165.536 26.7858 165.321 27.0001 164.893 27.0001C165.107 27.0001 165.321 27.2144 165.428 27.5358L166.286 29.6786H165.107L164.464 27.9644C164.357 27.7501 164.25 27.6429 164.25 27.5358C164.143 27.4286 163.928 27.4286 163.714 27.4286H163.393V29.6786H162.321ZM163.5 25.0715V26.5715H163.821C164.571 26.5715 165 26.3572 165 25.8215C165 25.5001 164.893 25.2858 164.571 25.1786C164.357 25.0715 164.143 25.0715 163.821 25.0715H163.5Z" fill="white"/>
<path d="M168.215 29.6786V25.0715H166.607V24.2144H170.893V25.0715H169.286V29.6786H168.215Z" fill="white"/>
<path d="M76.7143 74.6786H5.35714C2.35714 74.6786 0 72.3214 0 69.3214V27.8571C0 24.8571 2.35714 22.5 5.35714 22.5H76.7143C79.7143 22.5 82.0714 24.8571 82.0714 27.8571V69.3214C82.0714 72.2143 79.7143 74.6786 76.7143 74.6786Z" fill="white"/>
<path d="M82.0714 32.25H0V27.8571C0 24.8571 2.35714 22.5 5.35714 22.5H76.7143C79.7143 22.5 82.0714 24.8571 82.0714 27.8571V32.25Z" fill="#D1D1D1"/>
<path d="M29.1426 39.2144H5.14258V66.7501H29.1426V39.2144Z" fill="#D1D1D1"/>
<path d="M11.8929 47.2499C11.4643 46.3927 12.0001 44.7856 12.4286 43.9284C14.2501 41.0356 18.9643 41.0356 21.2143 43.1784C23.3572 46.3927 20.5715 51.857 17.4643 50.8927C14.2501 49.8213 13.6072 50.7856 11.8929 47.2499Z" fill="black"/>
<path d="M15.75 58.0714H19.1786V53.8928H15.8571L15.75 58.0714Z" fill="#F0A87D"/>
<path d="M15.8574 53.8928C15.8574 53.8928 16.9288 55.2857 19.1788 55.2857V53.8928H15.8574Z" fill="#DB8E67"/>
<path d="M20.679 48.857C20.679 48.857 20.8933 47.6785 21.8576 47.6785C22.8218 47.6785 22.0718 50.2499 21.0004 50.7856C20.3576 50.9999 20.679 48.857 20.679 48.857Z" fill="#F0A87D"/>
<path d="M14.2503 48.857C14.2503 48.857 14.036 47.6785 13.0717 47.6785C12.1075 47.6785 12.8575 50.2499 13.9289 50.7856C14.5717 50.9999 14.2503 48.857 14.2503 48.857Z" fill="#F0A87D"/>
<path d="M17.4643 54.6428C15.8571 54.6428 14.25 53.1428 13.5 50.357V46.7142C13.5 44.357 15.3214 42.4285 17.4643 42.4285C19.6071 42.4285 21.4286 44.357 21.4286 46.7142V50.357C21.1071 52.7142 19.1786 54.6428 17.4643 54.6428Z" fill="#F0A87D"/>
<path d="M12.75 58.4999V58.2856L23.0357 58.7142C23.0357 58.7142 21.8571 57.5356 20.25 57.4285C19.7143 57.3214 18.5357 56.7856 18 56.7856C16.1786 56.7856 14.25 57.4285 12.75 58.4999Z" fill="#FFC0BE"/>
<path d="M13.1787 43.2856C13.1787 43.2856 16.2859 45.3213 16.6073 45.4285C18.1073 46.1785 20.0359 46.8213 21.5359 46.7142C23.2501 46.607 21.3216 44.0356 20.7859 43.3928C19.6073 41.7856 16.9287 40.9285 15.4287 41.7856C15.5359 41.9999 13.1787 43.2856 13.1787 43.2856Z" fill="black"/>
<path d="M14.7861 42.4286L15.1076 43.0714C15.9647 44.1429 14.1433 46.6071 13.6076 47.4643C12.9647 48.3214 12.5361 46.2857 12.5361 45.4286C12.5361 44.25 13.8218 41.3571 14.7861 42.4286Z" fill="black"/>
<path d="M28.3926 66.6429C27.214 61.7143 25.2854 55.7143 20.1426 56.25C20.1426 56.25 20.0354 56.7857 17.464 56.7857C14.8926 56.7857 14.8926 56.3572 14.8926 56.3572C14.8926 56.3572 8.78543 55.3929 6.64258 66.5357L28.3926 66.6429Z" fill="#26BED6"/>
<path d="M51.6427 39.2144H34.8213V42.8572H51.6427V39.2144Z" fill="#D1D1D1"/>
<path d="M62.0356 46.8215H34.8213V50.4644H62.0356V46.8215Z" fill="#D1D1D1"/>
<path d="M73.8213 54.4285H34.8213V58.0713H73.8213V54.4285Z" fill="#D1D1D1"/>
<path d="M69.9642 62.1428H34.8213V65.7857H69.9642V62.1428Z" fill="#D1D1D1"/>
<path d="M27.9639 29.893V25.1787H28.9282V29.893H27.9639Z" fill="#003C71"/>
<path d="M30 29.893V25.1787H31.2857C33.1071 25.1787 34.0714 25.9287 34.0714 27.5359C34.0714 29.143 33.1071 29.893 31.2857 29.893H30ZM30.9643 25.9287V29.143H31.5C31.9286 29.143 32.25 29.0359 32.5714 28.7144C32.8929 28.393 33.1071 27.9644 33.1071 27.5359C33.1071 27.0001 32.8929 26.6787 32.5714 26.3573C32.25 26.0359 31.9286 25.9287 31.5 25.9287H30.9643Z" fill="#003C71"/>
<path d="M40.1777 29.0358V29.7858C39.7492 29.893 39.4277 29.893 39.1063 29.893C38.3563 29.893 37.7134 29.6787 37.1777 29.3572C36.642 28.9287 36.4277 28.393 36.4277 27.5358C36.4277 26.6787 36.642 26.143 37.0706 25.7144C37.4992 25.2858 38.142 25.0715 38.9992 25.0715C39.4277 25.0715 39.7492 25.1787 40.0706 25.2858L39.9634 26.0358C39.642 25.8215 39.3206 25.8215 38.892 25.8215C38.4634 25.8215 38.0349 26.0358 37.7134 26.3572C37.392 26.6787 37.2849 27.1072 37.2849 27.5358C37.2849 28.0715 37.392 28.393 37.7134 28.7144C38.0349 29.0358 38.3563 29.143 38.892 29.143C39.642 29.2501 39.9634 29.143 40.1777 29.0358Z" fill="#003C71"/>
<path d="M40.5 29.893L42.3214 25.1787H43.3929L45.2143 29.893H44.1429L43.7143 28.8216H41.7857L41.3571 29.893H40.5ZM43.5 28.0716L42.8571 26.0359L42.2143 27.9644H43.5V28.0716Z" fill="#003C71"/>
<path d="M45.75 29.893V25.1787H46.8214C47.5714 25.1787 48.1071 25.1787 48.3214 25.2859C48.8571 25.5001 49.0714 25.8216 49.0714 26.4644C49.0714 26.7859 48.9643 27.0001 48.8571 27.2144C48.6429 27.4287 48.4286 27.5359 48.1071 27.5359C48.3214 27.5359 48.5357 27.7501 48.6429 28.0716L49.3929 29.893H48.3214L47.7857 28.393C47.6786 28.1787 47.6786 28.0716 47.5714 28.0716C47.4643 27.9644 47.3571 27.9644 47.1429 27.9644H46.8214V29.893H45.75ZM46.7143 25.9287V27.2144H47.0357C47.6786 27.2144 48 27.0001 48 26.5716C48 26.3573 47.8929 26.143 47.6786 26.0359C47.5714 25.9287 47.3571 25.9287 47.0357 25.9287H46.7143Z" fill="#003C71"/>
<path d="M50.0352 29.893V25.1787H51.3209C53.1423 25.1787 54.1066 25.9287 54.1066 27.5359C54.1066 29.143 53.1423 29.893 51.3209 29.893H50.0352ZM50.9994 25.9287V29.143H51.5352C51.9637 29.143 52.2852 29.0359 52.6066 28.7144C52.928 28.393 53.1423 27.9644 53.1423 27.5359C53.1423 27.0001 52.928 26.6787 52.6066 26.3573C52.2852 26.0359 51.9637 25.9287 51.5352 25.9287H50.9994Z" fill="#003C71"/>
<path d="M294.643 74.6786H223.286C220.286 74.6786 217.929 72.3214 217.929 69.3214V27.8571C217.929 24.8571 220.286 22.5 223.286 22.5H294.643C297.643 22.5 300 24.8571 300 27.8571V69.3214C300 72.2143 297.643 74.6786 294.643 74.6786Z" fill="white"/>
<path d="M300 32.25H217.929V27.8571C217.929 24.8571 220.286 22.5 223.286 22.5H294.643C297.643 22.5 300 24.8571 300 27.8571V32.25Z" fill="#F79321"/>
<path d="M247.071 39.2144H223.071V66.7501H247.071V39.2144Z" fill="#D1D1D1"/>
<path d="M229.607 47.2499C229.178 46.3927 229.714 44.7856 230.142 43.9284C231.964 41.0356 236.678 41.0356 238.928 43.1784C241.071 46.3927 238.285 51.857 235.178 50.8927C231.964 49.8213 231.321 50.7856 229.607 47.2499Z" fill="black"/>
<path d="M233.357 58.0714H236.786L236.893 53.8928H233.465L233.357 58.0714Z" fill="#F0A87D"/>
<path d="M233.464 53.8928C233.464 53.8928 234.535 55.2857 236.785 55.2857V53.8928H233.464Z" fill="#DB8E67"/>
<path d="M238.285 48.857C238.285 48.857 238.5 47.6785 239.464 47.6785C240.428 47.6785 239.678 50.2499 238.607 50.7856C237.964 50.9999 238.285 48.857 238.285 48.857Z" fill="#F0A87D"/>
<path d="M231.964 48.857C231.964 48.857 231.75 47.6785 230.786 47.6785C229.821 47.6785 230.571 50.2499 231.643 50.7856C232.286 50.9999 231.964 48.857 231.964 48.857Z" fill="#F0A87D"/>
<path d="M235.072 54.6428C233.465 54.6428 231.857 53.1428 231.107 50.357V46.7142C231.107 44.357 232.929 42.4285 235.072 42.4285C237.215 42.4285 239.036 44.357 239.036 46.7142V50.357C238.715 52.7142 236.786 54.6428 235.072 54.6428Z" fill="#F0A87D"/>
<path d="M230.357 58.4999V58.2856L240.643 58.7142C240.643 58.7142 239.465 57.5356 237.857 57.4285C237.322 57.3214 236.143 56.7856 235.607 56.7856C233.786 56.7856 231.965 57.4285 230.357 58.4999Z" fill="#FFC0BE"/>
<path d="M230.893 43.2856C230.893 43.2856 234 45.3213 234.321 45.4285C235.821 46.1785 237.75 46.8213 239.25 46.7142C240.964 46.607 239.035 44.0356 238.5 43.3928C237.321 41.7856 234.643 40.9285 233.143 41.7856C233.143 41.9999 230.893 43.2856 230.893 43.2856Z" fill="black"/>
<path d="M232.393 42.4286L232.714 43.0714C233.571 44.1429 231.75 46.6071 231.214 47.4643C230.571 48.3214 230.143 46.2857 230.143 45.4286C230.143 44.25 231.535 41.3571 232.393 42.4286Z" fill="black"/>
<path d="M246 66.6429C244.821 61.7143 242.893 55.7143 237.75 56.25C237.75 56.25 237.643 56.7857 235.071 56.7857C232.5 56.7857 232.5 56.3572 232.5 56.3572C232.5 56.3572 226.393 55.3929 224.25 66.5357L246 66.6429Z" fill="#26BED6"/>
<path d="M269.571 39.2144H252.75V42.8572H269.571V39.2144Z" fill="#F79321"/>
<path d="M279.964 46.8215H252.75V50.4644H279.964V46.8215Z" fill="#F79321"/>
<path d="M291.75 54.4285H252.75V58.0713H291.75V54.4285Z" fill="#F79321"/>
<path d="M287.893 62.1428H252.75V65.7857H287.893V62.1428Z" fill="#F79321"/>
<path d="M235.286 29.143V24.4287H236.572C238.393 24.4287 239.358 25.1787 239.358 26.7859C239.358 28.393 238.393 29.143 236.572 29.143H235.286ZM236.25 25.0716V28.2859H236.786C237.215 28.2859 237.536 28.1787 237.858 27.8573C238.179 27.5359 238.393 27.1073 238.393 26.6787C238.393 26.143 238.179 25.8216 237.858 25.5001C237.536 25.1787 237.215 25.0716 236.786 25.0716H236.25Z" fill="#003C71"/>
<path d="M240.107 29.1429V25.6071H240.965V26.3571C240.965 26.1429 241.072 25.9286 241.286 25.8214C241.5 25.6071 241.715 25.5 241.929 25.5C242.036 25.5 242.143 25.5 242.25 25.5V26.4643C242.143 26.4643 242.036 26.3571 241.822 26.3571C241.5 26.3571 241.286 26.5714 241.179 26.8929C241.072 27.1071 241.072 27.4286 241.072 27.75V29.0357H240.107V29.1429Z" fill="#003C71"/>
<path d="M242.786 24.9643V24.1072H243.75V24.9643H242.786ZM242.786 29.1429V25.6072H243.75V29.1429H242.786Z" fill="#003C71"/>
<path d="M245.572 29.1429L244.286 25.6072H245.25L246.108 28.1786L246.965 25.6072H247.929L246.643 29.1429H245.572Z" fill="#003C71"/>
<path d="M248.465 24.9643V24.1072H249.429V24.9643H248.465ZM248.465 29.1429V25.6072H249.429V29.1429H248.465Z" fill="#003C71"/>
<path d="M250.394 29.1429V25.6071H251.251V26.0357C251.465 25.7143 251.894 25.5 252.429 25.5C252.858 25.5 253.179 25.6071 253.286 25.9286C253.501 26.1429 253.608 26.4643 253.608 26.8929V29.1429H252.644V27.3214C252.644 27 252.644 26.7857 252.536 26.6786C252.429 26.4643 252.322 26.3571 252.001 26.3571C251.679 26.3571 251.465 26.4643 251.358 26.7857C251.251 27 251.251 27.2143 251.251 27.5357V29.25H250.394V29.1429Z" fill="#003C71"/>
<path d="M256.822 25.6072H257.679V28.7143C257.679 29.8929 257.036 30.5357 255.857 30.5357C255.429 30.5357 255 30.4286 254.679 30.3215L254.786 29.5715C255.215 29.7857 255.536 29.8929 255.857 29.8929C256.286 29.8929 256.607 29.7857 256.715 29.4643C256.822 29.25 256.822 28.9286 256.822 28.6072C256.715 28.7143 256.607 28.9286 256.393 29.0357C256.179 29.1429 255.965 29.25 255.75 29.25C255.215 29.25 254.893 29.0357 254.679 28.7143C254.465 28.3929 254.357 27.9643 254.357 27.4286C254.357 27 254.465 26.5715 254.679 26.25C255 25.8215 255.322 25.6072 255.857 25.6072C256.393 25.6072 256.715 25.8215 256.929 26.1429V25.6072H256.822ZM256.072 28.3929C256.393 28.3929 256.5 28.2858 256.715 28.0715C256.822 27.8572 256.929 27.6429 256.929 27.3215C256.929 27 256.822 26.7857 256.715 26.5715C256.607 26.3572 256.393 26.25 256.179 26.25C255.857 26.25 255.643 26.3572 255.536 26.5715C255.429 26.7857 255.322 27 255.322 27.3215C255.322 27.5357 255.429 27.8572 255.536 28.0715C255.536 28.2858 255.75 28.3929 256.072 28.3929Z" fill="#003C71"/>
<path d="M260.679 29.143V24.4287H261.643V28.393H263.464V29.143H260.679Z" fill="#003C71"/>
<path d="M264 24.9643V24.1072H264.964V24.9643H264ZM264 29.1429V25.6072H264.964V29.1429H264Z" fill="#003C71"/>
<path d="M268.179 25.6071L268.072 26.3571C267.857 26.25 267.643 26.25 267.429 26.25C267.107 26.25 266.893 26.3571 266.786 26.5714C266.572 26.7857 266.572 27 266.572 27.3214C266.572 27.6429 266.679 27.9643 266.786 28.1786C267 28.3929 267.215 28.5 267.536 28.5C267.75 28.5 267.965 28.3929 268.286 28.2857V29.0357C268.072 29.1429 267.75 29.1429 267.322 29.1429C266.786 29.1429 266.357 28.9286 266.036 28.6071C265.715 28.2857 265.607 27.8571 265.607 27.3214C265.607 26.7857 265.715 26.3571 266.036 26.0357C266.357 25.7143 266.786 25.5 267.322 25.5C267.643 25.5 267.965 25.6071 268.179 25.6071Z" fill="#003C71"/>
<path d="M271.715 28.1786V28.9286C271.393 29.1429 270.965 29.2501 270.536 29.2501C270.001 29.2501 269.465 29.1429 269.143 28.8215C268.822 28.5001 268.715 28.0715 268.715 27.5358C268.715 27.0001 268.822 26.5715 269.143 26.2501C269.465 25.9286 269.893 25.7144 270.322 25.7144C270.965 25.7144 271.393 25.9286 271.608 26.3572C271.822 26.6786 271.929 27.2144 271.929 27.8572H269.465C269.465 28.1786 269.572 28.3929 269.786 28.5001C270.001 28.6072 270.215 28.7144 270.536 28.7144C270.858 28.5001 271.286 28.3929 271.715 28.1786ZM269.572 27.0001H271.179C271.179 26.4644 270.858 26.1429 270.429 26.1429C269.893 26.1429 269.572 26.4644 269.572 27.0001Z" fill="#003C71"/>
<path d="M272.679 29.1429V25.6071H273.536V26.0357C273.75 25.7143 274.179 25.5 274.714 25.5C275.143 25.5 275.464 25.6071 275.572 25.9286C275.786 26.1429 275.893 26.4643 275.893 26.8929V29.1429H274.929V27.3214C274.929 27 274.929 26.7857 274.822 26.6786C274.714 26.4643 274.607 26.3571 274.286 26.3571C273.964 26.3571 273.75 26.4643 273.643 26.7857C273.536 27 273.536 27.2143 273.536 27.5357V29.25H272.679V29.1429Z" fill="#003C71"/>
<path d="M279.001 25.6071L278.894 26.25C278.572 26.1429 278.358 26.1429 278.036 26.1429C277.715 26.1429 277.501 26.25 277.501 26.5714C277.501 26.6786 277.608 26.7857 277.929 26.8929C278.358 27 278.572 27.1071 278.679 27.2143C279.001 27.4286 279.108 27.6429 279.108 28.0714C279.108 28.5 279.001 28.7143 278.679 28.9286C278.465 29.1429 278.036 29.1429 277.715 29.1429C277.394 29.1429 277.072 29.1429 276.644 29.0357L276.751 28.2857C277.072 28.3929 277.394 28.5 277.608 28.5C277.715 28.5 277.929 28.5 278.036 28.3929C278.144 28.2857 278.251 28.1786 278.251 28.0714C278.251 27.8571 278.144 27.75 277.822 27.6429C277.394 27.5357 277.072 27.4286 277.072 27.3214C276.751 27.1071 276.644 26.8929 276.644 26.5714C276.644 26.25 276.751 25.9286 277.072 25.7143C277.286 25.5 277.608 25.5 278.036 25.5C278.251 25.5 278.572 25.6071 279.001 25.6071Z" fill="#003C71"/>
<path d="M282.644 28.1786V28.9286C282.322 29.1429 281.894 29.2501 281.465 29.2501C280.929 29.2501 280.394 29.1429 280.072 28.8215C279.751 28.5001 279.644 28.0715 279.644 27.5358C279.644 27.0001 279.751 26.5715 280.072 26.2501C280.394 25.9286 280.822 25.7144 281.251 25.7144C281.894 25.7144 282.322 25.9286 282.536 26.3572C282.751 26.6786 282.858 27.2144 282.858 27.8572H280.394C280.394 28.1786 280.501 28.3929 280.715 28.5001C280.929 28.6072 281.144 28.7144 281.465 28.7144C281.894 28.5001 282.215 28.3929 282.644 28.1786ZM280.501 27.0001H282.108C282.108 26.4644 281.786 26.1429 281.358 26.1429C280.822 26.1429 280.608 26.4644 280.501 27.0001Z" fill="#003C71"/>
<path d="M114 43.5H90.75V47.4643H114V43.5Z" fill="#26BED6"/>
<path d="M114 50.8928H90.75V54.8571H114V50.8928Z" fill="#26BED6"/>
<path d="M209.036 43.5H185.786V47.4643H209.036V43.5Z" fill="#26BED6"/>
<path d="M209.036 50.8928H185.786V54.8571H209.036V50.8928Z" fill="#26BED6"/>
</g>
<defs>
<clipPath id="clip0">
<rect width="300" height="83.5714" fill="white"/>
</clipPath>
</defs>
</svg>
